<svg width="122" height="121" viewBox="0 0 122 121" fill="none" xmlns="http://www.w3.org/2000/svg">
<path d="M61 -2.66639e-06C77.1782 -1.95922e-06 92.6938 6.37409 104.134 17.72C115.573 29.066 122 44.4544 122 60.5C122 68.445 120.422 76.3122 117.357 83.6524C114.291 90.9926 109.798 97.662 104.134 103.28C98.4691 108.898 91.7445 113.354 84.3437 116.395C76.9428 119.435 69.0106 121 61 121C44.8218 121 29.3062 114.626 17.8665 103.28C6.42678 91.934 1.19129e-05 76.5456 1.26143e-05 60.5C1.29615e-05 52.555 1.57782 44.6878 4.64335 37.3476C7.70889 30.0074 12.2021 23.338 17.8665 17.72C29.3062 6.37408 44.8218 -3.37357e-06 61 -2.66639e-06ZM30.5 48.4L61 78.65L91.5 48.4L30.5 48.4Z" fill="white"/>
</svg>
