<svg width="251" height="44" viewBox="0 0 251 44" fill="none" xmlns="http://www.w3.org/2000/svg">
<g clip-path="url(#clip0)">
<g clip-path="url(#clip1)">
<line x1="4.92187" y1="7.14754" x2="4.92188" y2="43.3683" stroke="#62666E" stroke-width="1.84375"/>
<line x1="8.60937" y1="12.1435" x2="8.60938" y2="43.3683" stroke="#62666E" stroke-width="1.84375"/>
<line x1="12.2969" y1="4.64955" x2="12.2969" y2="43.3683" stroke="#62666E" stroke-width="1.84375"/>
<line x1="15.9844" y1="10.8944" x2="15.9844" y2="43.3682" stroke="#62666E" stroke-width="1.84375"/>
<line x1="19.6719" y1="7.14754" x2="19.6719" y2="43.3683" stroke="#62666E" stroke-width="1.84375"/>
<line x1="23.3594" y1="4.64955" x2="23.3594" y2="43.3683" stroke="#EBF1EF" stroke-width="1.84375"/>
<line x1="27.0469" y1="8.33705" x2="27.0469" y2="43.3683" stroke="#EBF1EF" stroke-width="1.84375"/>
<line x1="30.7344" y1="10.7954" x2="30.7344" y2="43.3683" stroke="#EBF1EF" stroke-width="1.84375"/>
<line x1="34.4219" y1="4.64955" x2="34.4219" y2="43.3683" stroke="#EBF1EF" stroke-width="1.84375"/>
<line x1="38.1094" y1="10.7954" x2="38.1094" y2="43.3683" stroke="#EBF1EF" stroke-width="1.84375"/>
<line x1="41.7969" y1="7.14754" x2="41.7969" y2="43.3683" stroke="#EBF1EF" stroke-width="1.84375"/>
<line x1="45.4844" y1="4.64955" x2="45.4844" y2="43.3683" stroke="#62666E" stroke-width="1.84375"/>
<line x1="49.1719" y1="7.10788" x2="49.1719" y2="43.3683" stroke="#62666E" stroke-width="1.84375"/>
<line x1="52.8594" y1="4.64955" x2="52.8594" y2="43.3683" stroke="#62666E" stroke-width="1.84375"/>
<line x1="56.5469" y1="8.39652" x2="56.5469" y2="43.3683" stroke="#62666E" stroke-width="1.84375"/>
<line x1="60.2344" y1="4.64955" x2="60.2344" y2="43.3683" stroke="#62666E" stroke-width="1.84375"/>
</g>
<path d="M3.77877 43.6728L9.49027 42.829L5.90373 38.3046L3.77877 43.6728ZM71.5387 0.163239L65.8308 1.03121L69.4365 5.5404L71.5387 0.163239ZM36.5587 17.6877L36.9851 17.4266L36.6904 16.9452L36.2481 17.2958L36.5587 17.6877ZM40.8519 24.701L40.4254 24.9621L40.7214 25.4456L41.1641 25.0915L40.8519 24.701ZM7.61578 41.2692L36.8693 18.0795L36.2481 17.2958L6.99457 40.4856L7.61578 41.2692ZM36.1323 17.9487L40.4254 24.9621L41.2783 24.44L36.9851 17.4266L36.1323 17.9487ZM41.1641 25.0915L68.3364 3.36406L67.7119 2.58304L40.5396 24.3105L41.1641 25.0915Z" fill="#8F9298"/>
<path d="M88.0387 36.7768L88.0267 38.6728H77.4307V21.4768H88.0267V23.3728H79.7587V29.0848H86.4547V30.9088H79.7587V36.7768H88.0387ZM100.762 38.6728H98.7103C98.5343 38.6728 98.3943 38.6288 98.2903 38.5408C98.1943 38.4448 98.1143 38.3408 98.0503 38.2288L94.9903 33.4648C94.9583 33.5768 94.9223 33.6888 94.8823 33.8008C94.8503 33.9048 94.8023 34.0008 94.7383 34.0888L91.9063 38.2288C91.8263 38.3408 91.7383 38.4448 91.6423 38.5408C91.5543 38.6288 91.4303 38.6728 91.2703 38.6728H89.3623L93.6223 32.4328L89.5303 26.5168H91.5823C91.7583 26.5168 91.8863 26.5448 91.9663 26.6008C92.0463 26.6568 92.1183 26.7368 92.1823 26.8408L95.1703 31.4008C95.2343 31.1688 95.3343 30.9448 95.4703 30.7288L98.0863 26.8888C98.1583 26.7768 98.2343 26.6888 98.3143 26.6248C98.4023 26.5528 98.5063 26.5168 98.6263 26.5168H100.594L96.5023 32.3248L100.762 38.6728ZM104.879 35.7448C105.271 36.2728 105.699 36.6448 106.163 36.8608C106.627 37.0768 107.147 37.1848 107.723 37.1848C108.859 37.1848 109.731 36.7808 110.339 35.9728C110.947 35.1648 111.251 34.0128 111.251 32.5168C111.251 31.7248 111.179 31.0448 111.035 30.4768C110.899 29.9088 110.699 29.4448 110.435 29.0848C110.171 28.7168 109.847 28.4488 109.463 28.2808C109.079 28.1128 108.643 28.0288 108.155 28.0288C107.459 28.0288 106.847 28.1888 106.319 28.5088C105.799 28.8288 105.319 29.2808 104.879 29.8648V35.7448ZM104.771 28.4008C105.283 27.7688 105.875 27.2608 106.547 26.8768C107.219 26.4928 107.987 26.3008 108.851 26.3008C109.555 26.3008 110.191 26.4368 110.759 26.7088C111.327 26.9728 111.811 27.3688 112.211 27.8968C112.611 28.4168 112.919 29.0648 113.135 29.8408C113.351 30.6168 113.459 31.5088 113.459 32.5168C113.459 33.4128 113.339 34.2488 113.099 35.0248C112.859 35.7928 112.511 36.4608 112.055 37.0288C111.607 37.5888 111.055 38.0328 110.399 38.3608C109.751 38.6808 109.019 38.8408 108.203 38.8408C107.459 38.8408 106.819 38.7168 106.283 38.4688C105.755 38.2128 105.287 37.8608 104.879 37.4128V42.7888H102.731V26.5168H104.015C104.319 26.5168 104.507 26.6648 104.579 26.9608L104.771 28.4008ZM124.321 31.2688C124.321 30.7728 124.249 30.3208 124.105 29.9128C123.969 29.4968 123.765 29.1408 123.493 28.8448C123.229 28.5408 122.905 28.3088 122.521 28.1488C122.137 27.9808 121.701 27.8968 121.213 27.8968C120.189 27.8968 119.377 28.1968 118.777 28.7968C118.185 29.3888 117.817 30.2128 117.673 31.2688H124.321ZM126.049 36.9688C125.785 37.2888 125.469 37.5688 125.101 37.8088C124.733 38.0408 124.337 38.2328 123.913 38.3848C123.497 38.5368 123.065 38.6488 122.617 38.7208C122.169 38.8008 121.725 38.8408 121.285 38.8408C120.445 38.8408 119.669 38.7008 118.957 38.4208C118.253 38.1328 117.641 37.7168 117.121 37.1728C116.609 36.6208 116.209 35.9408 115.921 35.1328C115.633 34.3248 115.489 33.3968 115.489 32.3488C115.489 31.5008 115.617 30.7088 115.873 29.9728C116.137 29.2368 116.513 28.6008 117.001 28.0648C117.489 27.5208 118.085 27.0968 118.789 26.7928C119.493 26.4808 120.285 26.3248 121.165 26.3248C121.893 26.3248 122.565 26.4488 123.181 26.6968C123.805 26.9368 124.341 27.2888 124.789 27.7528C125.245 28.2088 125.601 28.7768 125.857 29.4568C126.113 30.1288 126.241 30.8968 126.241 31.7608C126.241 32.0968 126.205 32.3208 126.133 32.4328C126.061 32.5448 125.925 32.6008 125.725 32.6008H117.601C117.625 33.3688 117.729 34.0368 117.913 34.6048C118.105 35.1728 118.369 35.6488 118.705 36.0328C119.041 36.4088 119.441 36.6928 119.905 36.8848C120.369 37.0688 120.889 37.1608 121.465 37.1608C122.001 37.1608 122.461 37.1008 122.845 36.9808C123.237 36.8528 123.573 36.7168 123.853 36.5728C124.133 36.4288 124.365 36.2968 124.549 36.1768C124.741 36.0488 124.905 35.9848 125.041 35.9848C125.217 35.9848 125.353 36.0528 125.449 36.1888L126.049 36.9688ZM130.88 28.2808C131.144 27.9848 131.424 27.7168 131.72 27.4768C132.016 27.2368 132.328 27.0328 132.656 26.8648C132.992 26.6888 133.344 26.5568 133.712 26.4688C134.088 26.3728 134.492 26.3248 134.924 26.3248C135.588 26.3248 136.172 26.4368 136.676 26.6608C137.188 26.8768 137.612 27.1888 137.948 27.5968C138.292 27.9968 138.552 28.4808 138.728 29.0488C138.904 29.6168 138.992 30.2448 138.992 30.9328V38.6728H136.844V30.9328C136.844 30.0128 136.632 29.3008 136.208 28.7968C135.792 28.2848 135.156 28.0288 134.3 28.0288C133.668 28.0288 133.076 28.1808 132.524 28.4848C131.98 28.7888 131.476 29.2008 131.012 29.7208V38.6728H128.864V26.5168H130.148C130.452 26.5168 130.64 26.6648 130.712 26.9608L130.88 28.2808ZM149.327 28.5208C149.231 28.6968 149.083 28.7848 148.883 28.7848C148.763 28.7848 148.627 28.7408 148.475 28.6528C148.323 28.5648 148.135 28.4688 147.911 28.3648C147.695 28.2528 147.435 28.1528 147.131 28.0648C146.827 27.9688 146.467 27.9208 146.051 27.9208C145.691 27.9208 145.367 27.9688 145.079 28.0648C144.791 28.1528 144.543 28.2768 144.335 28.4368C144.135 28.5968 143.979 28.7848 143.867 29.0008C143.763 29.2088 143.711 29.4368 143.711 29.6848C143.711 29.9968 143.799 30.2568 143.975 30.4648C144.159 30.6728 144.399 30.8528 144.695 31.0048C144.991 31.1568 145.327 31.2928 145.703 31.4128C146.079 31.5248 146.463 31.6488 146.855 31.7848C147.255 31.9128 147.643 32.0568 148.019 32.2168C148.395 32.3768 148.731 32.5768 149.027 32.8168C149.323 33.0568 149.559 33.3528 149.735 33.7048C149.919 34.0488 150.011 34.4648 150.011 34.9528C150.011 35.5128 149.911 36.0328 149.711 36.5128C149.511 36.9848 149.215 37.3968 148.823 37.7488C148.431 38.0928 147.951 38.3648 147.383 38.5648C146.815 38.7648 146.159 38.8648 145.415 38.8648C144.567 38.8648 143.799 38.7288 143.111 38.4568C142.423 38.1768 141.839 37.8208 141.359 37.3888L141.863 36.5728C141.927 36.4688 142.003 36.3888 142.091 36.3328C142.179 36.2768 142.291 36.2488 142.427 36.2488C142.571 36.2488 142.723 36.3048 142.883 36.4168C143.043 36.5288 143.235 36.6528 143.459 36.7888C143.691 36.9248 143.971 37.0488 144.299 37.1608C144.627 37.2728 145.035 37.3288 145.523 37.3288C145.939 37.3288 146.303 37.2768 146.615 37.1728C146.927 37.0608 147.187 36.9128 147.395 36.7288C147.603 36.5448 147.755 36.3328 147.851 36.0928C147.955 35.8528 148.007 35.5968 148.007 35.3248C148.007 34.9888 147.915 34.7128 147.731 34.4968C147.555 34.2728 147.319 34.0848 147.023 33.9328C146.727 33.7728 146.387 33.6368 146.003 33.5248C145.627 33.4048 145.239 33.2808 144.839 33.1528C144.447 33.0248 144.059 32.8808 143.675 32.7208C143.299 32.5528 142.963 32.3448 142.667 32.0968C142.371 31.8488 142.131 31.5448 141.947 31.1848C141.771 30.8168 141.683 30.3728 141.683 29.8528C141.683 29.3888 141.779 28.9448 141.971 28.5208C142.163 28.0888 142.443 27.7128 142.811 27.3928C143.179 27.0648 143.631 26.8048 144.167 26.6128C144.703 26.4208 145.315 26.3248 146.003 26.3248C146.803 26.3248 147.519 26.4528 148.151 26.7088C148.791 26.9568 149.343 27.3008 149.807 27.7408L149.327 28.5208ZM160.766 31.2688C160.766 30.7728 160.694 30.3208 160.55 29.9128C160.414 29.4968 160.21 29.1408 159.938 28.8448C159.674 28.5408 159.35 28.3088 158.966 28.1488C158.582 27.9808 158.146 27.8968 157.658 27.8968C156.634 27.8968 155.822 28.1968 155.222 28.7968C154.63 29.3888 154.262 30.2128 154.118 31.2688H160.766ZM162.494 36.9688C162.23 37.2888 161.914 37.5688 161.546 37.8088C161.178 38.0408 160.782 38.2328 160.358 38.3848C159.942 38.5368 159.51 38.6488 159.062 38.7208C158.614 38.8008 158.17 38.8408 157.73 38.8408C156.89 38.8408 156.114 38.7008 155.402 38.4208C154.698 38.1328 154.086 37.7168 153.566 37.1728C153.054 36.6208 152.654 35.9408 152.366 35.1328C152.078 34.3248 151.934 33.3968 151.934 32.3488C151.934 31.5008 152.062 30.7088 152.318 29.9728C152.582 29.2368 152.958 28.6008 153.446 28.0648C153.934 27.5208 154.53 27.0968 155.234 26.7928C155.938 26.4808 156.73 26.3248 157.61 26.3248C158.338 26.3248 159.01 26.4488 159.626 26.6968C160.25 26.9368 160.786 27.2888 161.234 27.7528C161.69 28.2088 162.046 28.7768 162.302 29.4568C162.558 30.1288 162.686 30.8968 162.686 31.7608C162.686 32.0968 162.65 32.3208 162.578 32.4328C162.506 32.5448 162.37 32.6008 162.17 32.6008H154.046C154.07 33.3688 154.174 34.0368 154.358 34.6048C154.55 35.1728 154.814 35.6488 155.15 36.0328C155.486 36.4088 155.886 36.6928 156.35 36.8848C156.814 37.0688 157.334 37.1608 157.91 37.1608C158.446 37.1608 158.906 37.1008 159.29 36.9808C159.682 36.8528 160.018 36.7168 160.298 36.5728C160.578 36.4288 160.81 36.2968 160.994 36.1768C161.186 36.0488 161.35 35.9848 161.486 35.9848C161.662 35.9848 161.798 36.0528 161.894 36.1888L162.494 36.9688ZM180.178 21.3208V38.6728H178.522C178.266 38.6728 178.05 38.6328 177.874 38.5528C177.706 38.4648 177.542 38.3208 177.382 38.1208L168.322 26.5528C168.37 27.0808 168.394 27.5688 168.394 28.0168V38.6728H165.55V21.3208H167.242C167.378 21.3208 167.494 21.3288 167.59 21.3448C167.694 21.3528 167.782 21.3768 167.854 21.4168C167.934 21.4488 168.01 21.5008 168.082 21.5728C168.154 21.6368 168.234 21.7248 168.322 21.8368L177.418 33.4528C177.394 33.1728 177.374 32.8968 177.358 32.6248C177.342 32.3528 177.334 32.1008 177.334 31.8688V21.3208H180.178ZM198.346 29.9728V36.9928C197.466 37.6408 196.526 38.1168 195.526 38.4208C194.534 38.7168 193.47 38.8648 192.334 38.8648C190.918 38.8648 189.634 38.6448 188.482 38.2048C187.338 37.7648 186.358 37.1528 185.542 36.3688C184.734 35.5848 184.11 34.6488 183.67 33.5608C183.23 32.4728 183.01 31.2848 183.01 29.9968C183.01 28.6928 183.222 27.4968 183.646 26.4088C184.07 25.3208 184.67 24.3848 185.446 23.6008C186.23 22.8168 187.178 22.2088 188.29 21.7768C189.402 21.3448 190.65 21.1288 192.034 21.1288C192.738 21.1288 193.394 21.1848 194.002 21.2968C194.618 21.4088 195.186 21.5648 195.706 21.7648C196.234 21.9568 196.714 22.1928 197.146 22.4728C197.578 22.7528 197.974 23.0608 198.334 23.3968L197.41 24.8608C197.266 25.0928 197.078 25.2368 196.846 25.2928C196.614 25.3408 196.362 25.2808 196.09 25.1128C195.826 24.9608 195.562 24.8088 195.298 24.6568C195.034 24.5048 194.738 24.3728 194.41 24.2608C194.09 24.1488 193.726 24.0568 193.318 23.9848C192.918 23.9128 192.454 23.8768 191.926 23.8768C191.07 23.8768 190.294 24.0208 189.598 24.3088C188.91 24.5968 188.322 25.0088 187.834 25.5448C187.346 26.0808 186.97 26.7248 186.706 27.4768C186.442 28.2288 186.31 29.0688 186.31 29.9968C186.31 30.9888 186.45 31.8768 186.73 32.6608C187.018 33.4368 187.418 34.0968 187.93 34.6408C188.45 35.1768 189.074 35.5888 189.802 35.8768C190.53 36.1568 191.342 36.2968 192.238 36.2968C192.878 36.2968 193.45 36.2288 193.954 36.0928C194.458 35.9568 194.95 35.7728 195.43 35.5408V32.3968H193.246C193.038 32.3968 192.874 32.3408 192.754 32.2288C192.642 32.1088 192.586 31.9648 192.586 31.7968V29.9728H198.346Z" fill="#EBF1EF"/>
<path d="M201.927 37.7488C201.927 37.5968 201.955 37.4528 202.011 37.3168C202.067 37.1808 202.143 37.0648 202.239 36.9688C202.343 36.8648 202.459 36.7848 202.587 36.7288C202.723 36.6648 202.871 36.6328 203.031 36.6328C203.183 36.6328 203.327 36.6648 203.463 36.7288C203.599 36.7848 203.715 36.8648 203.811 36.9688C203.915 37.0648 203.995 37.1808 204.051 37.3168C204.115 37.4528 204.147 37.5968 204.147 37.7488C204.147 37.9088 204.115 38.0568 204.051 38.1928C203.995 38.3208 203.915 38.4368 203.811 38.5408C203.715 38.6368 203.599 38.7128 203.463 38.7688C203.327 38.8248 203.183 38.8528 203.031 38.8528C202.719 38.8528 202.455 38.7488 202.239 38.5408C202.031 38.3248 201.927 38.0608 201.927 37.7488ZM215.832 28.3288C215.792 28.3688 215.752 28.4048 215.712 28.4368C215.68 28.4608 215.632 28.4728 215.568 28.4728C215.488 28.4728 215.38 28.4208 215.244 28.3168C215.108 28.2048 214.924 28.0848 214.692 27.9568C214.46 27.8288 214.168 27.7128 213.816 27.6088C213.472 27.4968 213.052 27.4408 212.556 27.4408C211.868 27.4408 211.256 27.5648 210.72 27.8128C210.192 28.0528 209.744 28.4008 209.376 28.8568C209.008 29.3128 208.728 29.8648 208.536 30.5128C208.352 31.1608 208.26 31.8888 208.26 32.6968C208.26 33.5368 208.356 34.2808 208.548 34.9288C208.748 35.5768 209.028 36.1248 209.388 36.5728C209.748 37.0128 210.184 37.3488 210.696 37.5808C211.208 37.8128 211.776 37.9288 212.4 37.9288C212.976 37.9288 213.456 37.8608 213.84 37.7248C214.232 37.5888 214.552 37.4408 214.8 37.2808C215.056 37.1208 215.256 36.9728 215.4 36.8368C215.544 36.7008 215.664 36.6328 215.76 36.6328C215.856 36.6328 215.936 36.6728 216 36.7528L216.3 37.1368C216.116 37.3768 215.884 37.6008 215.604 37.8088C215.324 38.0168 215.008 38.1968 214.656 38.3488C214.304 38.5008 213.92 38.6168 213.504 38.6968C213.096 38.7848 212.668 38.8288 212.22 38.8288C211.46 38.8288 210.764 38.6928 210.132 38.4208C209.508 38.1408 208.968 37.7408 208.512 37.2208C208.064 36.6928 207.712 36.0488 207.456 35.2888C207.208 34.5288 207.084 33.6648 207.084 32.6968C207.084 31.7848 207.204 30.9528 207.444 30.2008C207.684 29.4488 208.036 28.8008 208.5 28.2568C208.964 27.7128 209.528 27.2928 210.192 26.9968C210.864 26.6928 211.632 26.5408 212.496 26.5408C213.272 26.5408 213.96 26.6648 214.56 26.9128C215.16 27.1608 215.684 27.4968 216.132 27.9208L215.832 28.3288ZM223.618 26.5408C224.474 26.5408 225.238 26.6888 225.91 26.9848C226.59 27.2728 227.162 27.6848 227.626 28.2208C228.09 28.7568 228.442 29.4048 228.682 30.1648C228.93 30.9168 229.054 31.7608 229.054 32.6968C229.054 33.6328 228.93 34.4768 228.682 35.2288C228.442 35.9808 228.09 36.6248 227.626 37.1608C227.162 37.6968 226.59 38.1088 225.91 38.3968C225.238 38.6848 224.474 38.8288 223.618 38.8288C222.762 38.8288 221.994 38.6848 221.314 38.3968C220.642 38.1088 220.07 37.6968 219.598 37.1608C219.134 36.6248 218.778 35.9808 218.53 35.2288C218.29 34.4768 218.17 33.6328 218.17 32.6968C218.17 31.7608 218.29 30.9168 218.53 30.1648C218.778 29.4048 219.134 28.7568 219.598 28.2208C220.07 27.6848 220.642 27.2728 221.314 26.9848C221.994 26.6888 222.762 26.5408 223.618 26.5408ZM223.618 37.9288C224.33 37.9288 224.95 37.8088 225.478 37.5688C226.014 37.3208 226.458 36.9688 226.81 36.5128C227.17 36.0568 227.438 35.5088 227.614 34.8688C227.79 34.2208 227.878 33.4968 227.878 32.6968C227.878 31.9048 227.79 31.1848 227.614 30.5368C227.438 29.8888 227.17 29.3368 226.81 28.8808C226.458 28.4168 226.014 28.0608 225.478 27.8128C224.95 27.5648 224.33 27.4408 223.618 27.4408C222.906 27.4408 222.282 27.5648 221.746 27.8128C221.218 28.0608 220.774 28.4168 220.414 28.8808C220.062 29.3368 219.794 29.8888 219.61 30.5368C219.434 31.1848 219.346 31.9048 219.346 32.6968C219.346 33.4968 219.434 34.2208 219.61 34.8688C219.794 35.5088 220.062 36.0568 220.414 36.5128C220.774 36.9688 221.218 37.3208 221.746 37.5688C222.282 37.8088 222.906 37.9288 223.618 37.9288ZM232.273 38.6728V26.7328H232.909C233.109 26.7328 233.225 26.8328 233.257 27.0328L233.365 28.7608C233.829 28.0968 234.361 27.5608 234.961 27.1528C235.561 26.7448 236.237 26.5408 236.989 26.5408C237.861 26.5408 238.557 26.7928 239.077 27.2968C239.605 27.8008 239.961 28.5008 240.145 29.3968C240.289 28.9088 240.489 28.4848 240.745 28.1248C241.009 27.7648 241.309 27.4688 241.645 27.2368C241.981 26.9968 242.345 26.8208 242.737 26.7088C243.137 26.5968 243.545 26.5408 243.961 26.5408C244.553 26.5408 245.085 26.6408 245.557 26.8408C246.029 27.0328 246.429 27.3208 246.757 27.7048C247.085 28.0888 247.337 28.5608 247.513 29.1208C247.689 29.6808 247.777 30.3208 247.777 31.0408V38.6728H246.637V31.0408C246.637 29.8728 246.385 28.9848 245.881 28.3768C245.377 27.7608 244.657 27.4528 243.721 27.4528C243.305 27.4528 242.905 27.5288 242.521 27.6808C242.145 27.8328 241.809 28.0608 241.513 28.3648C241.225 28.6608 240.993 29.0328 240.817 29.4808C240.649 29.9288 240.565 30.4488 240.565 31.0408V38.6728H239.413V31.0408C239.413 29.8808 239.181 28.9928 238.717 28.3768C238.261 27.7608 237.589 27.4528 236.701 27.4528C236.053 27.4528 235.453 27.6448 234.901 28.0288C234.349 28.4128 233.857 28.9448 233.425 29.6248V38.6728H232.273Z" fill="#EBF1EF"/>
</g>
<defs>
<clipPath id="clip0">
<rect width="250.235" height="43.6728" fill="white"/>
</clipPath>
<clipPath id="clip1">
<rect width="59" height="38.7187" fill="white" transform="translate(4 4.64955)"/>
</clipPath>
</defs>
</svg>
