<svg width="163" height="105" viewBox="0 0 163 105" fill="none" xmlns="http://www.w3.org/2000/svg">
<path d="M0.0418887 104.344L28.5994 100.125L10.6667 77.5031L0.0418887 104.344ZM162.179 0.234025L133.639 4.57388L151.667 27.1198L162.179 0.234025ZM78.4781 42.1667L80.6103 40.8615L79.1368 38.4543L76.9251 40.2076L78.4781 42.1667ZM88.7508 58.9483L86.6186 60.2535L88.0984 62.671L90.3121 60.9008L88.7508 58.9483ZM19.2269 92.3262L80.0311 44.1258L76.9251 40.2076L16.1209 88.408L19.2269 92.3262ZM76.3459 43.4719L86.6186 60.2535L90.883 57.6431L80.6103 40.8615L76.3459 43.4719ZM90.3121 60.9008L146.167 16.2381L143.045 12.333L87.1895 56.9958L90.3121 60.9008Z" fill="#353A45"/>
</svg>
