<svg width="251" height="44" viewBox="0 0 251 44" fill="none" xmlns="http://www.w3.org/2000/svg">
<g clip-path="url(#clip0)">
<g clip-path="url(#clip1)">
<line x1="4.92187" y1="7.31128" x2="4.92188" y2="43.532" stroke="#00945E" stroke-width="1.84375"/>
<line x1="8.60937" y1="12.3071" x2="8.60938" y2="43.5319" stroke="#00945E" stroke-width="1.84375"/>
<line x1="12.2969" y1="4.81323" x2="12.2969" y2="43.532" stroke="#00945E" stroke-width="1.84375"/>
<line x1="15.9844" y1="11.0581" x2="15.9844" y2="43.5319" stroke="#00945E" stroke-width="1.84375"/>
<line x1="19.6719" y1="7.31128" x2="19.6719" y2="43.532" stroke="#00945E" stroke-width="1.84375"/>
<line x1="23.3594" y1="4.81323" x2="23.3594" y2="43.532" stroke="#C5CBC9" stroke-width="1.84375"/>
<line x1="27.0469" y1="8.50073" x2="27.0469" y2="43.532" stroke="#C5CBC9" stroke-width="1.84375"/>
<line x1="30.7344" y1="10.959" x2="30.7344" y2="43.5319" stroke="#C5CBC9" stroke-width="1.84375"/>
<line x1="34.4219" y1="4.81323" x2="34.4219" y2="43.532" stroke="#C5CBC9" stroke-width="1.84375"/>
<line x1="38.1094" y1="10.959" x2="38.1094" y2="43.5319" stroke="#C5CBC9" stroke-width="1.84375"/>
<line x1="41.7969" y1="7.31128" x2="41.7969" y2="43.532" stroke="#C5CBC9" stroke-width="1.84375"/>
<line x1="45.4844" y1="4.81323" x2="45.4844" y2="43.532" stroke="#00945E" stroke-width="1.84375"/>
<line x1="49.1719" y1="7.27148" x2="49.1719" y2="43.5319" stroke="#00945E" stroke-width="1.84375"/>
<line x1="52.8594" y1="4.81323" x2="52.8594" y2="43.532" stroke="#00945E" stroke-width="1.84375"/>
<line x1="56.5469" y1="8.5603" x2="56.5469" y2="43.5321" stroke="#00945E" stroke-width="1.84375"/>
<line x1="60.2344" y1="4.81323" x2="60.2344" y2="43.532" stroke="#00945E" stroke-width="1.84375"/>
</g>
<path d="M3.77877 43.8365L9.49027 42.9927L5.90373 38.4683L3.77877 43.8365ZM71.5387 0.32692L65.8308 1.19489L69.4365 5.70408L71.5387 0.32692ZM36.5587 17.8513L36.9851 17.5903L36.6904 17.1089L36.2481 17.4595L36.5587 17.8513ZM40.8519 24.8647L40.4254 25.1257L40.7214 25.6092L41.1641 25.2552L40.8519 24.8647ZM7.61578 41.4329L36.8693 18.2432L36.2481 17.4595L6.99457 40.6493L7.61578 41.4329ZM36.1323 18.1124L40.4254 25.1257L41.2783 24.6037L36.9851 17.5903L36.1323 18.1124ZM41.1641 25.2552L68.3364 3.52774L67.7119 2.74672L40.5396 24.4742L41.1641 25.2552Z" fill="#333333"/>
<path d="M88.0387 37.104L88.0267 39H77.4307V21.804H88.0267V23.7H79.7587V29.412H86.4547V31.236H79.7587V37.104H88.0387ZM100.762 39H98.7103C98.5343 39 98.3943 38.956 98.2903 38.868C98.1943 38.772 98.1143 38.668 98.0503 38.556L94.9903 33.792C94.9583 33.904 94.9223 34.016 94.8823 34.128C94.8503 34.232 94.8023 34.328 94.7383 34.416L91.9063 38.556C91.8263 38.668 91.7383 38.772 91.6423 38.868C91.5543 38.956 91.4303 39 91.2703 39H89.3623L93.6223 32.76L89.5303 26.844H91.5823C91.7583 26.844 91.8863 26.872 91.9663 26.928C92.0463 26.984 92.1183 27.064 92.1823 27.168L95.1703 31.728C95.2343 31.496 95.3343 31.272 95.4703 31.056L98.0863 27.216C98.1583 27.104 98.2343 27.016 98.3143 26.952C98.4023 26.88 98.5063 26.844 98.6263 26.844H100.594L96.5023 32.652L100.762 39ZM104.879 36.072C105.271 36.6 105.699 36.972 106.163 37.188C106.627 37.404 107.147 37.512 107.723 37.512C108.859 37.512 109.731 37.108 110.339 36.3C110.947 35.492 111.251 34.34 111.251 32.844C111.251 32.052 111.179 31.372 111.035 30.804C110.899 30.236 110.699 29.772 110.435 29.412C110.171 29.044 109.847 28.776 109.463 28.608C109.079 28.44 108.643 28.356 108.155 28.356C107.459 28.356 106.847 28.516 106.319 28.836C105.799 29.156 105.319 29.608 104.879 30.192V36.072ZM104.771 28.728C105.283 28.096 105.875 27.588 106.547 27.204C107.219 26.82 107.987 26.628 108.851 26.628C109.555 26.628 110.191 26.764 110.759 27.036C111.327 27.3 111.811 27.696 112.211 28.224C112.611 28.744 112.919 29.392 113.135 30.168C113.351 30.944 113.459 31.836 113.459 32.844C113.459 33.74 113.339 34.576 113.099 35.352C112.859 36.12 112.511 36.788 112.055 37.356C111.607 37.916 111.055 38.36 110.399 38.688C109.751 39.008 109.019 39.168 108.203 39.168C107.459 39.168 106.819 39.044 106.283 38.796C105.755 38.54 105.287 38.188 104.879 37.74V43.116H102.731V26.844H104.015C104.319 26.844 104.507 26.992 104.579 27.288L104.771 28.728ZM124.321 31.596C124.321 31.1 124.249 30.648 124.105 30.24C123.969 29.824 123.765 29.468 123.493 29.172C123.229 28.868 122.905 28.636 122.521 28.476C122.137 28.308 121.701 28.224 121.213 28.224C120.189 28.224 119.377 28.524 118.777 29.124C118.185 29.716 117.817 30.54 117.673 31.596H124.321ZM126.049 37.296C125.785 37.616 125.469 37.896 125.101 38.136C124.733 38.368 124.337 38.56 123.913 38.712C123.497 38.864 123.065 38.976 122.617 39.048C122.169 39.128 121.725 39.168 121.285 39.168C120.445 39.168 119.669 39.028 118.957 38.748C118.253 38.46 117.641 38.044 117.121 37.5C116.609 36.948 116.209 36.268 115.921 35.46C115.633 34.652 115.489 33.724 115.489 32.676C115.489 31.828 115.617 31.036 115.873 30.3C116.137 29.564 116.513 28.928 117.001 28.392C117.489 27.848 118.085 27.424 118.789 27.12C119.493 26.808 120.285 26.652 121.165 26.652C121.893 26.652 122.565 26.776 123.181 27.024C123.805 27.264 124.341 27.616 124.789 28.08C125.245 28.536 125.601 29.104 125.857 29.784C126.113 30.456 126.241 31.224 126.241 32.088C126.241 32.424 126.205 32.648 126.133 32.76C126.061 32.872 125.925 32.928 125.725 32.928H117.601C117.625 33.696 117.729 34.364 117.913 34.932C118.105 35.5 118.369 35.976 118.705 36.36C119.041 36.736 119.441 37.02 119.905 37.212C120.369 37.396 120.889 37.488 121.465 37.488C122.001 37.488 122.461 37.428 122.845 37.308C123.237 37.18 123.573 37.044 123.853 36.9C124.133 36.756 124.365 36.624 124.549 36.504C124.741 36.376 124.905 36.312 125.041 36.312C125.217 36.312 125.353 36.38 125.449 36.516L126.049 37.296ZM130.88 28.608C131.144 28.312 131.424 28.044 131.72 27.804C132.016 27.564 132.328 27.36 132.656 27.192C132.992 27.016 133.344 26.884 133.712 26.796C134.088 26.7 134.492 26.652 134.924 26.652C135.588 26.652 136.172 26.764 136.676 26.988C137.188 27.204 137.612 27.516 137.948 27.924C138.292 28.324 138.552 28.808 138.728 29.376C138.904 29.944 138.992 30.572 138.992 31.26V39H136.844V31.26C136.844 30.34 136.632 29.628 136.208 29.124C135.792 28.612 135.156 28.356 134.3 28.356C133.668 28.356 133.076 28.508 132.524 28.812C131.98 29.116 131.476 29.528 131.012 30.048V39H128.864V26.844H130.148C130.452 26.844 130.64 26.992 130.712 27.288L130.88 28.608ZM149.327 28.848C149.231 29.024 149.083 29.112 148.883 29.112C148.763 29.112 148.627 29.068 148.475 28.98C148.323 28.892 148.135 28.796 147.911 28.692C147.695 28.58 147.435 28.48 147.131 28.392C146.827 28.296 146.467 28.248 146.051 28.248C145.691 28.248 145.367 28.296 145.079 28.392C144.791 28.48 144.543 28.604 144.335 28.764C144.135 28.924 143.979 29.112 143.867 29.328C143.763 29.536 143.711 29.764 143.711 30.012C143.711 30.324 143.799 30.584 143.975 30.792C144.159 31 144.399 31.18 144.695 31.332C144.991 31.484 145.327 31.62 145.703 31.74C146.079 31.852 146.463 31.976 146.855 32.112C147.255 32.24 147.643 32.384 148.019 32.544C148.395 32.704 148.731 32.904 149.027 33.144C149.323 33.384 149.559 33.68 149.735 34.032C149.919 34.376 150.011 34.792 150.011 35.28C150.011 35.84 149.911 36.36 149.711 36.84C149.511 37.312 149.215 37.724 148.823 38.076C148.431 38.42 147.951 38.692 147.383 38.892C146.815 39.092 146.159 39.192 145.415 39.192C144.567 39.192 143.799 39.056 143.111 38.784C142.423 38.504 141.839 38.148 141.359 37.716L141.863 36.9C141.927 36.796 142.003 36.716 142.091 36.66C142.179 36.604 142.291 36.576 142.427 36.576C142.571 36.576 142.723 36.632 142.883 36.744C143.043 36.856 143.235 36.98 143.459 37.116C143.691 37.252 143.971 37.376 144.299 37.488C144.627 37.6 145.035 37.656 145.523 37.656C145.939 37.656 146.303 37.604 146.615 37.5C146.927 37.388 147.187 37.24 147.395 37.056C147.603 36.872 147.755 36.66 147.851 36.42C147.955 36.18 148.007 35.924 148.007 35.652C148.007 35.316 147.915 35.04 147.731 34.824C147.555 34.6 147.319 34.412 147.023 34.26C146.727 34.1 146.387 33.964 146.003 33.852C145.627 33.732 145.239 33.608 144.839 33.48C144.447 33.352 144.059 33.208 143.675 33.048C143.299 32.88 142.963 32.672 142.667 32.424C142.371 32.176 142.131 31.872 141.947 31.512C141.771 31.144 141.683 30.7 141.683 30.18C141.683 29.716 141.779 29.272 141.971 28.848C142.163 28.416 142.443 28.04 142.811 27.72C143.179 27.392 143.631 27.132 144.167 26.94C144.703 26.748 145.315 26.652 146.003 26.652C146.803 26.652 147.519 26.78 148.151 27.036C148.791 27.284 149.343 27.628 149.807 28.068L149.327 28.848ZM160.766 31.596C160.766 31.1 160.694 30.648 160.55 30.24C160.414 29.824 160.21 29.468 159.938 29.172C159.674 28.868 159.35 28.636 158.966 28.476C158.582 28.308 158.146 28.224 157.658 28.224C156.634 28.224 155.822 28.524 155.222 29.124C154.63 29.716 154.262 30.54 154.118 31.596H160.766ZM162.494 37.296C162.23 37.616 161.914 37.896 161.546 38.136C161.178 38.368 160.782 38.56 160.358 38.712C159.942 38.864 159.51 38.976 159.062 39.048C158.614 39.128 158.17 39.168 157.73 39.168C156.89 39.168 156.114 39.028 155.402 38.748C154.698 38.46 154.086 38.044 153.566 37.5C153.054 36.948 152.654 36.268 152.366 35.46C152.078 34.652 151.934 33.724 151.934 32.676C151.934 31.828 152.062 31.036 152.318 30.3C152.582 29.564 152.958 28.928 153.446 28.392C153.934 27.848 154.53 27.424 155.234 27.12C155.938 26.808 156.73 26.652 157.61 26.652C158.338 26.652 159.01 26.776 159.626 27.024C160.25 27.264 160.786 27.616 161.234 28.08C161.69 28.536 162.046 29.104 162.302 29.784C162.558 30.456 162.686 31.224 162.686 32.088C162.686 32.424 162.65 32.648 162.578 32.76C162.506 32.872 162.37 32.928 162.17 32.928H154.046C154.07 33.696 154.174 34.364 154.358 34.932C154.55 35.5 154.814 35.976 155.15 36.36C155.486 36.736 155.886 37.02 156.35 37.212C156.814 37.396 157.334 37.488 157.91 37.488C158.446 37.488 158.906 37.428 159.29 37.308C159.682 37.18 160.018 37.044 160.298 36.9C160.578 36.756 160.81 36.624 160.994 36.504C161.186 36.376 161.35 36.312 161.486 36.312C161.662 36.312 161.798 36.38 161.894 36.516L162.494 37.296ZM180.178 21.648V39H178.522C178.266 39 178.05 38.96 177.874 38.88C177.706 38.792 177.542 38.648 177.382 38.448L168.322 26.88C168.37 27.408 168.394 27.896 168.394 28.344V39H165.55V21.648H167.242C167.378 21.648 167.494 21.656 167.59 21.672C167.694 21.68 167.782 21.704 167.854 21.744C167.934 21.776 168.01 21.828 168.082 21.9C168.154 21.964 168.234 22.052 168.322 22.164L177.418 33.78C177.394 33.5 177.374 33.224 177.358 32.952C177.342 32.68 177.334 32.428 177.334 32.196V21.648H180.178ZM198.346 30.3V37.32C197.466 37.968 196.526 38.444 195.526 38.748C194.534 39.044 193.47 39.192 192.334 39.192C190.918 39.192 189.634 38.972 188.482 38.532C187.338 38.092 186.358 37.48 185.542 36.696C184.734 35.912 184.11 34.976 183.67 33.888C183.23 32.8 183.01 31.612 183.01 30.324C183.01 29.02 183.222 27.824 183.646 26.736C184.07 25.648 184.67 24.712 185.446 23.928C186.23 23.144 187.178 22.536 188.29 22.104C189.402 21.672 190.65 21.456 192.034 21.456C192.738 21.456 193.394 21.512 194.002 21.624C194.618 21.736 195.186 21.892 195.706 22.092C196.234 22.284 196.714 22.52 197.146 22.8C197.578 23.08 197.974 23.388 198.334 23.724L197.41 25.188C197.266 25.42 197.078 25.564 196.846 25.62C196.614 25.668 196.362 25.608 196.09 25.44C195.826 25.288 195.562 25.136 195.298 24.984C195.034 24.832 194.738 24.7 194.41 24.588C194.09 24.476 193.726 24.384 193.318 24.312C192.918 24.24 192.454 24.204 191.926 24.204C191.07 24.204 190.294 24.348 189.598 24.636C188.91 24.924 188.322 25.336 187.834 25.872C187.346 26.408 186.97 27.052 186.706 27.804C186.442 28.556 186.31 29.396 186.31 30.324C186.31 31.316 186.45 32.204 186.73 32.988C187.018 33.764 187.418 34.424 187.93 34.968C188.45 35.504 189.074 35.916 189.802 36.204C190.53 36.484 191.342 36.624 192.238 36.624C192.878 36.624 193.45 36.556 193.954 36.42C194.458 36.284 194.95 36.1 195.43 35.868V32.724H193.246C193.038 32.724 192.874 32.668 192.754 32.556C192.642 32.436 192.586 32.292 192.586 32.124V30.3H198.346Z" fill="#005938"/>
<path d="M201.927 38.076C201.927 37.924 201.955 37.78 202.011 37.644C202.067 37.508 202.143 37.392 202.239 37.296C202.343 37.192 202.459 37.112 202.587 37.056C202.723 36.992 202.871 36.96 203.031 36.96C203.183 36.96 203.327 36.992 203.463 37.056C203.599 37.112 203.715 37.192 203.811 37.296C203.915 37.392 203.995 37.508 204.051 37.644C204.115 37.78 204.147 37.924 204.147 38.076C204.147 38.236 204.115 38.384 204.051 38.52C203.995 38.648 203.915 38.764 203.811 38.868C203.715 38.964 203.599 39.04 203.463 39.096C203.327 39.152 203.183 39.18 203.031 39.18C202.719 39.18 202.455 39.076 202.239 38.868C202.031 38.652 201.927 38.388 201.927 38.076ZM215.832 28.656C215.792 28.696 215.752 28.732 215.712 28.764C215.68 28.788 215.632 28.8 215.568 28.8C215.488 28.8 215.38 28.748 215.244 28.644C215.108 28.532 214.924 28.412 214.692 28.284C214.46 28.156 214.168 28.04 213.816 27.936C213.472 27.824 213.052 27.768 212.556 27.768C211.868 27.768 211.256 27.892 210.72 28.14C210.192 28.38 209.744 28.728 209.376 29.184C209.008 29.64 208.728 30.192 208.536 30.84C208.352 31.488 208.26 32.216 208.26 33.024C208.26 33.864 208.356 34.608 208.548 35.256C208.748 35.904 209.028 36.452 209.388 36.9C209.748 37.34 210.184 37.676 210.696 37.908C211.208 38.14 211.776 38.256 212.4 38.256C212.976 38.256 213.456 38.188 213.84 38.052C214.232 37.916 214.552 37.768 214.8 37.608C215.056 37.448 215.256 37.3 215.4 37.164C215.544 37.028 215.664 36.96 215.76 36.96C215.856 36.96 215.936 37 216 37.08L216.3 37.464C216.116 37.704 215.884 37.928 215.604 38.136C215.324 38.344 215.008 38.524 214.656 38.676C214.304 38.828 213.92 38.944 213.504 39.024C213.096 39.112 212.668 39.156 212.22 39.156C211.46 39.156 210.764 39.02 210.132 38.748C209.508 38.468 208.968 38.068 208.512 37.548C208.064 37.02 207.712 36.376 207.456 35.616C207.208 34.856 207.084 33.992 207.084 33.024C207.084 32.112 207.204 31.28 207.444 30.528C207.684 29.776 208.036 29.128 208.5 28.584C208.964 28.04 209.528 27.62 210.192 27.324C210.864 27.02 211.632 26.868 212.496 26.868C213.272 26.868 213.96 26.992 214.56 27.24C215.16 27.488 215.684 27.824 216.132 28.248L215.832 28.656ZM223.618 26.868C224.474 26.868 225.238 27.016 225.91 27.312C226.59 27.6 227.162 28.012 227.626 28.548C228.09 29.084 228.442 29.732 228.682 30.492C228.93 31.244 229.054 32.088 229.054 33.024C229.054 33.96 228.93 34.804 228.682 35.556C228.442 36.308 228.09 36.952 227.626 37.488C227.162 38.024 226.59 38.436 225.91 38.724C225.238 39.012 224.474 39.156 223.618 39.156C222.762 39.156 221.994 39.012 221.314 38.724C220.642 38.436 220.07 38.024 219.598 37.488C219.134 36.952 218.778 36.308 218.53 35.556C218.29 34.804 218.17 33.96 218.17 33.024C218.17 32.088 218.29 31.244 218.53 30.492C218.778 29.732 219.134 29.084 219.598 28.548C220.07 28.012 220.642 27.6 221.314 27.312C221.994 27.016 222.762 26.868 223.618 26.868ZM223.618 38.256C224.33 38.256 224.95 38.136 225.478 37.896C226.014 37.648 226.458 37.296 226.81 36.84C227.17 36.384 227.438 35.836 227.614 35.196C227.79 34.548 227.878 33.824 227.878 33.024C227.878 32.232 227.79 31.512 227.614 30.864C227.438 30.216 227.17 29.664 226.81 29.208C226.458 28.744 226.014 28.388 225.478 28.14C224.95 27.892 224.33 27.768 223.618 27.768C222.906 27.768 222.282 27.892 221.746 28.14C221.218 28.388 220.774 28.744 220.414 29.208C220.062 29.664 219.794 30.216 219.61 30.864C219.434 31.512 219.346 32.232 219.346 33.024C219.346 33.824 219.434 34.548 219.61 35.196C219.794 35.836 220.062 36.384 220.414 36.84C220.774 37.296 221.218 37.648 221.746 37.896C222.282 38.136 222.906 38.256 223.618 38.256ZM232.273 39V27.06H232.909C233.109 27.06 233.225 27.16 233.257 27.36L233.365 29.088C233.829 28.424 234.361 27.888 234.961 27.48C235.561 27.072 236.237 26.868 236.989 26.868C237.861 26.868 238.557 27.12 239.077 27.624C239.605 28.128 239.961 28.828 240.145 29.724C240.289 29.236 240.489 28.812 240.745 28.452C241.009 28.092 241.309 27.796 241.645 27.564C241.981 27.324 242.345 27.148 242.737 27.036C243.137 26.924 243.545 26.868 243.961 26.868C244.553 26.868 245.085 26.968 245.557 27.168C246.029 27.36 246.429 27.648 246.757 28.032C247.085 28.416 247.337 28.888 247.513 29.448C247.689 30.008 247.777 30.648 247.777 31.368V39H246.637V31.368C246.637 30.2 246.385 29.312 245.881 28.704C245.377 28.088 244.657 27.78 243.721 27.78C243.305 27.78 242.905 27.856 242.521 28.008C242.145 28.16 241.809 28.388 241.513 28.692C241.225 28.988 240.993 29.36 240.817 29.808C240.649 30.256 240.565 30.776 240.565 31.368V39H239.413V31.368C239.413 30.208 239.181 29.32 238.717 28.704C238.261 28.088 237.589 27.78 236.701 27.78C236.053 27.78 235.453 27.972 234.901 28.356C234.349 28.74 233.857 29.272 233.425 29.952V39H232.273Z" fill="#323E48"/>
</g>
<defs>
<clipPath id="clip0">
<rect width="250.235" height="44" fill="white"/>
</clipPath>
<clipPath id="clip1">
<rect width="59" height="38.7187" fill="white" transform="translate(4 4.81323)"/>
</clipPath>
</defs>
</svg>
