<svg width="42" height="42" viewBox="0 0 42 42" fill="none" xmlns="http://www.w3.org/2000/svg">
<path d="M41.8333 21.0001C41.8333 26.5254 39.6384 31.8245 35.7314 35.7315C31.8244 39.6385 26.5253 41.8334 21 41.8334C18.2641 41.8334 15.555 41.2945 13.0274 40.2476C10.4998 39.2006 8.20315 37.666 6.2686 35.7315C2.36159 31.8245 0.166656 26.5254 0.166656 21.0001C0.166656 15.4747 2.36159 10.1757 6.2686 6.26869C10.1756 2.36168 15.4746 0.166748 21 0.166748C23.7359 0.166748 26.4449 0.705618 28.9726 1.75259C31.5002 2.79956 33.7968 4.33414 35.7314 6.26869C37.6659 8.20324 39.2005 10.4999 40.2475 13.0275C41.2945 15.5551 41.8333 18.2642 41.8333 21.0001ZM25.1667 10.5834L14.75 21.0001L25.1667 31.4167V10.5834Z" fill="white"/>
</svg>
