<svg width="1440" height="452" viewBox="0 0 1440 452" fill="none" xmlns="http://www.w3.org/2000/svg">
<path d="M579.224 80.1161C562.932 87.6844 545.426 92.7994 527.052 95.1005C545.809 83.3231 560.21 64.6732 566.991 42.452C549.161 53.5369 529.654 61.347 509.311 65.5447C492.741 47.0506 469.136 35.4924 443.008 35.4924C392.843 35.4924 352.171 78.1012 352.171 130.654C352.171 138.113 352.975 145.375 354.523 152.342C279.031 148.372 212.101 110.487 167.299 52.9121C159.481 66.967 155.002 83.3159 155.002 100.754C155.002 133.77 171.039 162.897 195.411 179.963C180.986 179.49 166.879 175.408 154.267 168.059C154.262 168.457 154.262 168.856 154.262 169.256C154.262 215.364 185.572 253.827 227.125 262.57C213.749 266.381 199.718 266.938 186.105 264.2C197.663 302.007 231.21 329.519 270.957 330.29C239.869 355.812 200.702 371.027 158.146 371.027C150.813 371.027 143.584 370.575 136.478 369.697C176.676 396.698 224.421 412.452 275.718 412.452C442.797 412.452 534.161 267.444 534.161 141.69C534.161 137.563 534.074 133.459 533.898 129.378C551.681 115.91 567.03 99.2283 579.224 80.1161Z" fill="#55ACEE"/>
<rect y="-0.000488281" width="1440" height="452" fill="#00945E" fill-opacity="0.67"/>
<rect y="-0.000488281" width="1440" height="452" fill="#323E48" fill-opacity="0.33"/>
</svg>
