<svg width="78" height="48" viewBox="0 0 78 48" fill="none" xmlns="http://www.w3.org/2000/svg">
<g clip-path="url(#clip0)">
<line x1="5.92187" y1="9.14771" x2="5.92188" y2="45.3685" stroke="#00945E" stroke-width="1.84375"/>
<line x1="9.60937" y1="14.1436" x2="9.60938" y2="45.3683" stroke="#00945E" stroke-width="1.84375"/>
<line x1="13.2969" y1="6.64966" x2="13.2969" y2="45.3684" stroke="#00945E" stroke-width="1.84375"/>
<line x1="16.9844" y1="12.8945" x2="16.9844" y2="45.3683" stroke="#00945E" stroke-width="1.84375"/>
<line x1="20.6719" y1="9.14771" x2="20.6719" y2="45.3685" stroke="#00945E" stroke-width="1.84375"/>
<line x1="24.3594" y1="6.64966" x2="24.3594" y2="45.3684" stroke="#EBF1EF" stroke-width="1.84375"/>
<line x1="28.0469" y1="10.3372" x2="28.0469" y2="45.3684" stroke="#EBF1EF" stroke-width="1.84375"/>
<line x1="31.7344" y1="12.7954" x2="31.7344" y2="45.3683" stroke="#EBF1EF" stroke-width="1.84375"/>
<line x1="35.4219" y1="6.64966" x2="35.4219" y2="45.3684" stroke="#EBF1EF" stroke-width="1.84375"/>
<line x1="39.1094" y1="12.7954" x2="39.1094" y2="45.3683" stroke="#EBF1EF" stroke-width="1.84375"/>
<line x1="42.7969" y1="9.14771" x2="42.7969" y2="45.3685" stroke="#EBF1EF" stroke-width="1.84375"/>
<line x1="46.4844" y1="6.64966" x2="46.4844" y2="45.3684" stroke="#00945E" stroke-width="1.84375"/>
<line x1="50.1719" y1="9.10791" x2="50.1719" y2="45.3683" stroke="#00945E" stroke-width="1.84375"/>
<line x1="53.8594" y1="6.64966" x2="53.8594" y2="45.3684" stroke="#00945E" stroke-width="1.84375"/>
<line x1="57.5469" y1="10.3967" x2="57.5469" y2="45.3685" stroke="#00945E" stroke-width="1.84375"/>
<line x1="61.2344" y1="6.64966" x2="61.2344" y2="45.3684" stroke="#00945E" stroke-width="1.84375"/>
</g>
<path d="M4.77877 45.6729L10.4903 44.8291L6.90373 40.3047L4.77877 45.6729ZM72.5387 2.16335L66.8308 3.03132L70.4365 7.54051L72.5387 2.16335ZM37.5587 19.6878L37.9851 19.4267L37.6904 18.9453L37.2481 19.296L37.5587 19.6878ZM41.8519 26.7011L41.4254 26.9622L41.7214 27.4457L42.1641 27.0916L41.8519 26.7011ZM8.61578 43.2693L37.8693 20.0796L37.2481 19.296L7.99457 42.4857L8.61578 43.2693ZM37.1323 19.9488L41.4254 26.9622L42.2783 26.4401L37.9851 19.4267L37.1323 19.9488ZM42.1641 27.0916L69.3364 5.36416L68.7119 4.58315L41.5396 26.3106L42.1641 27.0916Z" fill="#333333"/>
<defs>
<clipPath id="clip0">
<rect width="59" height="38.7187" fill="white" transform="translate(5 6.64966)"/>
</clipPath>
</defs>
</svg>
