<svg width="61" height="61" viewBox="0 0 61 61" fill="none" xmlns="http://www.w3.org/2000/svg">
<g clip-path="url(#clip0)">
<path d="M36.2156 61L27.8281 59.8563V13.1531H36.2156V61Z" fill="#B0BDC6"/>
<path d="M42.2234 13.1531H36.2188V61L42.2234 55.186V13.1531Z" fill="#7D8B91"/>
<path d="M16.3938 8.10156C14.5828 8.10156 12.8672 8.29219 11.3422 8.76875C4.09844 10.7703 0 17.0609 0 25.5437V41.7469L34.0266 47.5609V27.8313C34.0266 17.5375 26.7828 8.10156 16.3938 8.10156Z" fill="#697277"/>
<path d="M34.0266 47.5609L0 41.7469L34.0266 26.2109V47.5609Z" fill="#94989B"/>
<path d="M41.9344 32.9781L31.1641 24.9719L36.5016 13.6297C36.8828 14.0109 37.2641 14.5828 37.4547 15.25L41.9344 31.1672C42.0297 31.8344 42.0297 32.5016 41.9344 32.9781Z" fill="#B0BDC6"/>
<path d="M7.52969 16.775L22.875 26.8781L14.7734 42.7953C14.1062 42.4141 13.5344 41.7469 13.3438 40.7938L7.24375 19.1578C7.05312 18.2047 7.14844 17.4422 7.52969 16.775Z" fill="#B0BDC6"/>
<path d="M28.6875 30.5L31.1656 24.9719L41.9359 32.9781C41.7453 33.4547 41.5547 33.8359 41.1734 33.9312L16.7734 42.8906C16.1062 43.1765 15.4391 42.9859 14.8672 42.7L22.8734 26.8781L28.6875 30.5Z" fill="#CAD5DD"/>
<path d="M9.05625 15.7266L35.2672 13.1531C35.6484 13.1531 36.125 13.3438 36.5062 13.6297L31.1687 24.9719L28.6906 30.5L22.8766 26.8781L7.53125 16.775C7.81719 16.2031 8.38906 15.8219 9.05625 15.7266Z" fill="#DFE9EF"/>
<path d="M44.6078 0C37.5547 0 15.7281 7.33906 11.3438 8.76875C12.8687 8.3875 14.5844 8.10156 16.3953 8.10156C26.7844 8.10156 34.0281 17.5375 34.0281 27.8313V47.5609L61.0016 31.3578V16.2031C61.0016 6.00469 54.9016 0 44.6078 0Z" fill="#333333"/>
<path d="M35.4531 6.10002V33.9313L38.1219 32.6922V14.8688L48.7969 10.7703V1.52502L35.4531 6.10002Z" fill="#ED4C5C"/>
</g>
<defs>
<clipPath id="clip0">
<rect width="61" height="61" fill="white"/>
</clipPath>
</defs>
</svg>
