<svg width="22" height="18" viewBox="0 0 22 18" fill="none" xmlns="http://www.w3.org/2000/svg">
<path d="M20.4998 0.500001H17.8332V2.5C17.8332 2.69261 17.7952 2.88333 17.7215 3.06127C17.6478 3.23921 17.5398 3.4009 17.4036 3.53709C17.2674 3.67328 17.1057 3.78132 16.9278 3.85502C16.7498 3.92873 16.5591 3.96667 16.3665 3.96667C16.1739 3.96667 15.9832 3.92873 15.8052 3.85502C15.6273 3.78132 15.4656 3.67328 15.3294 3.53709C15.1932 3.4009 15.0852 3.23921 15.0115 3.06127C14.9378 2.88333 14.8998 2.69261 14.8998 2.5V0.500001H7.13318V2.5C7.13318 2.88898 6.97866 3.26204 6.7036 3.53709C6.42855 3.81214 6.0555 3.96667 5.66651 3.96667C5.27753 3.96667 4.90448 3.81214 4.62942 3.53709C4.35437 3.26204 4.19985 2.88898 4.19985 2.5V0.500001H1.53318C1.37453 0.498195 1.21713 0.528223 1.07028 0.588309C0.923438 0.648394 0.790134 0.737317 0.678255 0.849818C0.566375 0.962319 0.478193 1.09611 0.418921 1.24329C0.35965 1.39046 0.330495 1.54803 0.333179 1.70667V16.6267C0.330531 16.7825 0.358609 16.9373 0.41581 17.0823C0.473011 17.2273 0.558214 17.3596 0.666554 17.4717C0.774893 17.5837 0.904245 17.6733 1.04722 17.7354C1.1902 17.7974 1.344 17.8307 1.49985 17.8333H20.4998C20.6557 17.8307 20.8095 17.7974 20.9525 17.7354C21.0954 17.6733 21.2248 17.5837 21.3331 17.4717C21.4415 17.3596 21.5267 17.2273 21.5839 17.0823C21.6411 16.9373 21.6692 16.7825 21.6665 16.6267V1.70667C21.6692 1.55083 21.6411 1.39599 21.5839 1.251C21.5267 1.10601 21.4415 0.973715 21.3331 0.861661C21.2248 0.749607 21.0954 0.659994 20.9525 0.597939C20.8095 0.535885 20.6557 0.502605 20.4998 0.500001ZM5.66651 13.8333H4.33318V12.5H5.66651V13.8333ZM5.66651 10.5H4.33318V9.16667H5.66651V10.5ZM5.66651 7.16667H4.33318V5.83333H5.66651V7.16667ZM9.66651 13.8333H8.33318V12.5H9.66651V13.8333ZM9.66651 10.5H8.33318V9.16667H9.66651V10.5ZM9.66651 7.16667H8.33318V5.83333H9.66651V7.16667ZM13.6665 13.8333H12.3332V12.5H13.6665V13.8333ZM13.6665 10.5H12.3332V9.16667H13.6665V10.5ZM13.6665 7.16667H12.3332V5.83333H13.6665V7.16667ZM17.6665 13.8333H16.3332V12.5H17.6665V13.8333ZM17.6665 10.5H16.3332V9.16667H17.6665V10.5ZM17.6665 7.16667H16.3332V5.83333H17.6665V7.16667Z" fill="#1F2430"/>
</svg>
