<svg width="42" height="42" viewBox="0 0 42 42" fill="none" xmlns="http://www.w3.org/2000/svg">
<path d="M0.166687 21.0001C0.166687 15.4747 2.36162 10.1757 6.26863 6.26869C10.1756 2.36168 15.4747 0.166748 21 0.166748C23.7359 0.166748 26.445 0.705618 28.9726 1.75259C31.5002 2.79956 33.7969 4.33414 35.7314 6.26869C37.666 8.20324 39.2005 10.4999 40.2475 13.0275C41.2945 15.5551 41.8334 18.2642 41.8334 21.0001C41.8334 26.5254 39.6384 31.8245 35.7314 35.7315C31.8244 39.6385 26.5254 41.8334 21 41.8334C18.2641 41.8334 15.5551 41.2945 13.0274 40.2476C10.4998 39.2006 8.20318 37.666 6.26863 35.7315C2.36162 31.8245 0.166687 26.5254 0.166687 21.0001ZM16.8334 31.4167L27.25 21.0001L16.8334 10.5834V31.4167Z" fill="white"/>
</svg>
