<svg width="209" height="29" viewBox="0 0 209 29" fill="none" xmlns="http://www.w3.org/2000/svg">
<path d="M5.172 9.216V14.028H11.244V16.512H5.172V21.42H12.876V24H1.932V6.648H12.876V9.216H5.172ZM29.8367 24H26.6207C26.3967 24 26.2167 23.944 26.0807 23.832C25.9527 23.72 25.8487 23.592 25.7687 23.448L21.7487 16.788C21.6847 16.988 21.6087 17.16 21.5207 17.304L17.6687 23.448C17.5727 23.584 17.4607 23.712 17.3327 23.832C17.2127 23.944 17.0527 24 16.8527 24H13.8407L19.6007 15.072L14.0687 6.648H17.2847C17.5087 6.648 17.6687 6.68 17.7647 6.744C17.8687 6.8 17.9647 6.896 18.0527 7.032L22.0007 13.392C22.0807 13.192 22.1767 12.992 22.2887 12.792L25.9127 7.092C26.0007 6.94 26.0967 6.828 26.2007 6.756C26.3047 6.684 26.4367 6.648 26.5967 6.648H29.6807L24.1007 14.94L29.8367 24ZM37.4783 15.372C38.0703 15.372 38.5863 15.3 39.0263 15.156C39.4663 15.004 39.8303 14.792 40.1183 14.52C40.4143 14.24 40.6343 13.904 40.7783 13.512C40.9223 13.112 40.9943 12.668 40.9943 12.18C40.9943 11.716 40.9223 11.296 40.7783 10.92C40.6343 10.544 40.4183 10.224 40.1303 9.96C39.8423 9.696 39.4783 9.496 39.0383 9.36C38.5983 9.216 38.0783 9.144 37.4783 9.144H35.0663V15.372H37.4783ZM37.4783 6.648C38.6383 6.648 39.6423 6.784 40.4903 7.056C41.3383 7.328 42.0383 7.708 42.5903 8.196C43.1423 8.684 43.5503 9.268 43.8143 9.948C44.0863 10.628 44.2223 11.372 44.2223 12.18C44.2223 13.02 44.0823 13.792 43.8023 14.496C43.5223 15.192 43.1023 15.792 42.5423 16.296C41.9823 16.8 41.2783 17.192 40.4303 17.472C39.5903 17.752 38.6063 17.892 37.4783 17.892H35.0663V24H31.8383V6.648H37.4783ZM49.9376 9.216V14.028H56.0096V16.512H49.9376V21.42H57.6416V24H46.6976V6.648H57.6416V9.216H49.9376ZM75.1303 6.648V24H73.4743C73.2183 24 73.0023 23.96 72.8263 23.88C72.6583 23.792 72.4943 23.648 72.3343 23.448L63.2743 11.88C63.3223 12.408 63.3463 12.896 63.3463 13.344V24H60.5023V6.648H62.1943C62.3303 6.648 62.4463 6.656 62.5423 6.672C62.6463 6.68 62.7343 6.704 62.8063 6.744C62.8863 6.776 62.9623 6.828 63.0343 6.9C63.1063 6.964 63.1863 7.052 63.2743 7.164L72.3703 18.78C72.3463 18.5 72.3263 18.224 72.3103 17.952C72.2943 17.68 72.2863 17.428 72.2863 17.196V6.648H75.1303ZM88.2345 9.804C88.1385 9.972 88.0345 10.096 87.9225 10.176C87.8185 10.248 87.6865 10.284 87.5265 10.284C87.3585 10.284 87.1745 10.224 86.9745 10.104C86.7825 9.976 86.5505 9.836 86.2785 9.684C86.0065 9.532 85.6865 9.396 85.3185 9.276C84.9585 9.148 84.5305 9.084 84.0345 9.084C83.5865 9.084 83.1945 9.14 82.8585 9.252C82.5225 9.356 82.2385 9.504 82.0065 9.696C81.7825 9.888 81.6145 10.12 81.5025 10.392C81.3905 10.656 81.3345 10.948 81.3345 11.268C81.3345 11.676 81.4465 12.016 81.6705 12.288C81.9025 12.56 82.2065 12.792 82.5825 12.984C82.9585 13.176 83.3865 13.348 83.8665 13.5C84.3465 13.652 84.8385 13.816 85.3425 13.992C85.8465 14.16 86.3385 14.36 86.8185 14.592C87.2985 14.816 87.7265 15.104 88.1025 15.456C88.4785 15.8 88.7785 16.224 89.0025 16.728C89.2345 17.232 89.3505 17.844 89.3505 18.564C89.3505 19.348 89.2145 20.084 88.9425 20.772C88.6785 21.452 88.2865 22.048 87.7665 22.56C87.2545 23.064 86.6265 23.464 85.8825 23.76C85.1385 24.048 84.2865 24.192 83.3265 24.192C82.7745 24.192 82.2305 24.136 81.6945 24.024C81.1585 23.92 80.6425 23.768 80.1465 23.568C79.6585 23.368 79.1985 23.128 78.7665 22.848C78.3345 22.568 77.9505 22.256 77.6145 21.912L78.5625 20.364C78.6425 20.252 78.7465 20.16 78.8745 20.088C79.0025 20.008 79.1385 19.968 79.2825 19.968C79.4825 19.968 79.6985 20.052 79.9305 20.22C80.1625 20.38 80.4385 20.56 80.7585 20.76C81.0785 20.96 81.4505 21.144 81.8745 21.312C82.3065 21.472 82.8225 21.552 83.4225 21.552C84.3425 21.552 85.0545 21.336 85.5585 20.904C86.0625 20.464 86.3145 19.836 86.3145 19.02C86.3145 18.564 86.1985 18.192 85.9665 17.904C85.7425 17.616 85.4425 17.376 85.0665 17.184C84.6905 16.984 84.2625 16.816 83.7825 16.68C83.3025 16.544 82.8145 16.396 82.3185 16.236C81.8225 16.076 81.3345 15.884 80.8545 15.66C80.3745 15.436 79.9465 15.144 79.5705 14.784C79.1945 14.424 78.8905 13.976 78.6585 13.44C78.4345 12.896 78.3225 12.228 78.3225 11.436C78.3225 10.804 78.4465 10.188 78.6945 9.588C78.9505 8.988 79.3185 8.456 79.7985 7.992C80.2785 7.528 80.8705 7.156 81.5745 6.876C82.2785 6.596 83.0865 6.456 83.9985 6.456C85.0225 6.456 85.9665 6.616 86.8305 6.936C87.6945 7.256 88.4305 7.704 89.0385 8.28L88.2345 9.804ZM95.4064 9.216V14.028H101.478V16.512H95.4064V21.42H103.11V24H92.1664V6.648H103.11V9.216H95.4064ZM120.599 6.648V24H118.943C118.687 24 118.471 23.96 118.295 23.88C118.127 23.792 117.963 23.648 117.803 23.448L108.743 11.88C108.791 12.408 108.815 12.896 108.815 13.344V24H105.971V6.648H107.663C107.799 6.648 107.915 6.656 108.011 6.672C108.115 6.68 108.203 6.704 108.275 6.744C108.355 6.776 108.431 6.828 108.503 6.9C108.575 6.964 108.655 7.052 108.743 7.164L117.839 18.78C117.815 18.5 117.795 18.224 117.779 17.952C117.763 17.68 117.755 17.428 117.755 17.196V6.648H120.599ZM138.767 15.3V22.32C137.887 22.968 136.947 23.444 135.947 23.748C134.955 24.044 133.891 24.192 132.755 24.192C131.339 24.192 130.055 23.972 128.903 23.532C127.759 23.092 126.779 22.48 125.963 21.696C125.155 20.912 124.531 19.976 124.091 18.888C123.651 17.8 123.431 16.612 123.431 15.324C123.431 14.02 123.643 12.824 124.067 11.736C124.491 10.648 125.091 9.712 125.867 8.928C126.651 8.144 127.599 7.536 128.711 7.104C129.823 6.672 131.071 6.456 132.455 6.456C133.159 6.456 133.815 6.512 134.423 6.624C135.039 6.736 135.607 6.892 136.127 7.092C136.655 7.284 137.135 7.52 137.567 7.8C137.999 8.08 138.395 8.388 138.755 8.724L137.831 10.188C137.687 10.42 137.499 10.564 137.267 10.62C137.035 10.668 136.783 10.608 136.511 10.44C136.247 10.288 135.983 10.136 135.719 9.984C135.455 9.832 135.159 9.7 134.831 9.588C134.511 9.476 134.147 9.384 133.739 9.312C133.339 9.24 132.875 9.204 132.347 9.204C131.491 9.204 130.715 9.348 130.019 9.636C129.331 9.924 128.743 10.336 128.255 10.872C127.767 11.408 127.391 12.052 127.127 12.804C126.863 13.556 126.731 14.396 126.731 15.324C126.731 16.316 126.871 17.204 127.151 17.988C127.439 18.764 127.839 19.424 128.351 19.968C128.871 20.504 129.495 20.916 130.223 21.204C130.951 21.484 131.763 21.624 132.659 21.624C133.299 21.624 133.871 21.556 134.375 21.42C134.879 21.284 135.371 21.1 135.851 20.868V17.724H133.667C133.459 17.724 133.295 17.668 133.175 17.556C133.063 17.436 133.007 17.292 133.007 17.124V15.3H138.767Z" fill="#005938"/>
<path d="M148.692 23.076C148.692 22.924 148.72 22.78 148.776 22.644C148.832 22.508 148.908 22.392 149.004 22.296C149.108 22.192 149.224 22.112 149.352 22.056C149.488 21.992 149.636 21.96 149.796 21.96C149.948 21.96 150.092 21.992 150.228 22.056C150.364 22.112 150.48 22.192 150.576 22.296C150.68 22.392 150.76 22.508 150.816 22.644C150.88 22.78 150.912 22.924 150.912 23.076C150.912 23.236 150.88 23.384 150.816 23.52C150.76 23.648 150.68 23.764 150.576 23.868C150.48 23.964 150.364 24.04 150.228 24.096C150.092 24.152 149.948 24.18 149.796 24.18C149.484 24.18 149.22 24.076 149.004 23.868C148.796 23.652 148.692 23.388 148.692 23.076ZM166.705 21.144C166.785 21.144 166.853 21.172 166.909 21.228L167.389 21.744C167.037 22.12 166.653 22.46 166.237 22.764C165.829 23.06 165.377 23.316 164.881 23.532C164.393 23.74 163.853 23.9 163.261 24.012C162.677 24.132 162.033 24.192 161.329 24.192C160.153 24.192 159.073 23.988 158.089 23.58C157.113 23.164 156.273 22.58 155.569 21.828C154.865 21.068 154.317 20.152 153.925 19.08C153.541 18.008 153.349 16.816 153.349 15.504C153.349 14.216 153.549 13.04 153.949 11.976C154.349 10.912 154.909 10 155.629 9.24C156.349 8.472 157.213 7.88 158.221 7.464C159.229 7.04 160.341 6.828 161.557 6.828C162.717 6.828 163.745 7.008 164.641 7.368C165.537 7.728 166.353 8.236 167.089 8.892L166.717 9.432C166.653 9.528 166.553 9.576 166.417 9.576C166.321 9.576 166.165 9.488 165.949 9.312C165.733 9.136 165.433 8.944 165.049 8.736C164.665 8.52 164.185 8.324 163.609 8.148C163.041 7.972 162.357 7.884 161.557 7.884C160.533 7.884 159.593 8.06 158.737 8.412C157.889 8.764 157.157 9.268 156.541 9.924C155.933 10.58 155.457 11.38 155.113 12.324C154.769 13.268 154.597 14.328 154.597 15.504C154.597 16.704 154.769 17.776 155.113 18.72C155.465 19.664 155.945 20.464 156.553 21.12C157.161 21.768 157.877 22.268 158.701 22.62C159.533 22.964 160.429 23.136 161.389 23.136C161.997 23.136 162.537 23.096 163.009 23.016C163.489 22.936 163.929 22.816 164.329 22.656C164.729 22.496 165.101 22.3 165.445 22.068C165.789 21.836 166.129 21.564 166.465 21.252C166.505 21.22 166.545 21.196 166.585 21.18C166.625 21.156 166.665 21.144 166.705 21.144ZM185.475 15.504C185.475 16.816 185.279 18.008 184.887 19.08C184.495 20.144 183.943 21.056 183.231 21.816C182.519 22.568 181.663 23.152 180.663 23.568C179.671 23.976 178.575 24.18 177.375 24.18C176.175 24.18 175.079 23.976 174.087 23.568C173.095 23.152 172.243 22.568 171.531 21.816C170.819 21.056 170.267 20.144 169.875 19.08C169.483 18.008 169.287 16.816 169.287 15.504C169.287 14.2 169.483 13.016 169.875 11.952C170.267 10.88 170.819 9.968 171.531 9.216C172.243 8.456 173.095 7.868 174.087 7.452C175.079 7.036 176.175 6.828 177.375 6.828C178.575 6.828 179.671 7.036 180.663 7.452C181.663 7.86 182.519 8.444 183.231 9.204C183.943 9.964 184.495 10.88 184.887 11.952C185.279 13.016 185.475 14.2 185.475 15.504ZM184.203 15.504C184.203 14.32 184.039 13.256 183.711 12.312C183.383 11.368 182.919 10.568 182.319 9.912C181.719 9.256 180.999 8.756 180.159 8.412C179.319 8.06 178.391 7.884 177.375 7.884C176.367 7.884 175.443 8.06 174.603 8.412C173.763 8.756 173.039 9.256 172.431 9.912C171.831 10.568 171.363 11.368 171.027 12.312C170.699 13.256 170.535 14.32 170.535 15.504C170.535 16.696 170.699 17.764 171.027 18.708C171.363 19.644 171.831 20.44 172.431 21.096C173.039 21.752 173.763 22.252 174.603 22.596C175.443 22.94 176.367 23.112 177.375 23.112C178.391 23.112 179.319 22.94 180.159 22.596C180.999 22.252 181.719 21.752 182.319 21.096C182.919 20.44 183.383 19.644 183.711 18.708C184.039 17.764 184.203 16.696 184.203 15.504ZM206.151 7.02V24H205.083V9.528C205.083 9.32 205.095 9.1 205.119 8.868L198.435 20.736C198.323 20.944 198.163 21.048 197.955 21.048H197.763C197.555 21.048 197.395 20.944 197.283 20.736L190.419 8.844C190.443 9.084 190.455 9.312 190.455 9.528V24H189.375V7.02H190.227C190.339 7.02 190.427 7.032 190.491 7.056C190.555 7.08 190.619 7.144 190.683 7.248L197.535 19.056C197.655 19.28 197.759 19.52 197.847 19.776C197.895 19.648 197.947 19.524 198.003 19.404C198.059 19.276 198.119 19.156 198.183 19.044L204.843 7.248C204.907 7.144 204.971 7.08 205.035 7.056C205.107 7.032 205.199 7.02 205.311 7.02H206.151Z" fill="black"/>
</svg>
