<svg width="21" height="20" viewBox="0 0 21 20" fill="none" xmlns="http://www.w3.org/2000/svg">
<g clip-path="url(#clip0)">
<path d="M12.375 5H8.625C6.89938 5 5.5 6.39938 5.5 8.125V11.875C5.5 13.6006 6.89938 15 8.625 15H12.375C14.1006 15 15.5 13.6006 15.5 11.875V8.125C15.5 6.39938 14.1006 5 12.375 5ZM14.5625 11.875C14.5625 13.0813 13.5813 14.0625 12.375 14.0625H8.625C7.41875 14.0625 6.4375 13.0813 6.4375 11.875V8.125C6.4375 6.91875 7.41875 5.9375 8.625 5.9375H12.375C13.5813 5.9375 14.5625 6.91875 14.5625 8.125V11.875Z" fill="#353A45"/>
<path d="M10.5 7.5C9.11937 7.5 8 8.61937 8 10C8 11.3806 9.11937 12.5 10.5 12.5C11.8806 12.5 13 11.3806 13 10C13 8.61937 11.8806 7.5 10.5 7.5ZM10.5 11.5625C9.63875 11.5625 8.9375 10.8612 8.9375 10C8.9375 9.13813 9.63875 8.4375 10.5 8.4375C11.3612 8.4375 12.0625 9.13813 12.0625 10C12.0625 10.8612 11.3612 11.5625 10.5 11.5625Z" fill="#353A45"/>
<path d="M13.1886 7.64568C13.3726 7.64568 13.5217 7.49654 13.5217 7.31256C13.5217 7.12858 13.3726 6.97943 13.1886 6.97943C13.0046 6.97943 12.8555 7.12858 12.8555 7.31256C12.8555 7.49654 13.0046 7.64568 13.1886 7.64568Z" fill="#353A45"/>
</g>
<circle cx="10.5" cy="10" r="9.75" stroke="#1F2430" stroke-width="0.5"/>
<defs>
<clipPath id="clip0">
<rect width="10" height="10" fill="white" transform="translate(5.5 5)"/>
</clipPath>
</defs>
</svg>
