<?xml version="1.0" encoding="utf-8"?>
<!-- Generator: Adobe Illustrator 19.2.1, SVG Export Plug-In . SVG Version: 6.00 Build 0)  -->
<svg version="1.1" id="layer" xmlns="http://www.w3.org/2000/svg" xmlns:xlink="http://www.w3.org/1999/xlink" x="0px" y="0px"
	 viewBox="0 0 652 652" style="enable-background:new 0 0 652 652;" xml:space="preserve">
<style type="text/css">
	.st0{fill:#FFFFFF;}
	.st1{fill:#FFFFFF;}
</style>
<polygon class="st0" points="183.6,355.8 182.6,355.8 181.6,355.6 180.7,355.5 179.8,355.3 179,355.1 178.2,354.8 177.5,354.6 
	176.8,354.2 176.1,353.9 175.5,353.5 175,353 174.4,352.6 173.9,352.1 173.5,351.6 173,351.1 172.7,350.5 172.3,349.9 172,349.3 
	171.7,348.7 171.4,348 171.2,347.4 171,346.7 170.8,346 170.6,345.2 170.5,344.5 170.4,343.8 170.3,343 170.2,342.2 170.2,341.5 
	170.2,340.6 170.2,339.9 170.2,337.5 180.3,337.5 180.3,339.2 180.3,340.2 180.3,341.2 180.4,342.1 180.5,343 180.6,343.7 
	180.8,344.5 181,345 181.2,345.6 181.4,345.9 181.6,346.1 181.7,346.4 181.9,346.5 182.1,346.7 182.3,346.9 182.5,347.1 
	182.8,347.2 183,347.3 183.3,347.4 183.5,347.5 183.8,347.6 184.5,347.7 185.2,347.7 185.9,347.7 186.5,347.6 186.8,347.5 
	187.1,347.4 187.4,347.3 187.6,347.2 187.9,347.1 188.1,346.9 188.3,346.7 188.5,346.5 188.7,346.4 188.8,346.1 189,345.9 
	189.1,345.6 189.4,345 189.6,344.5 189.8,343.7 189.9,343 190,342.1 190.1,341.2 190.1,340.2 190.1,339.2 190.1,300.2 201.1,300.2 
	201.1,339.5 201.1,340.6 201.1,341.6 201,342.6 200.9,343.5 200.8,344.4 200.6,345.3 200.4,346.1 200.1,346.9 199.8,347.7 
	199.6,348.4 199.3,349.1 198.9,349.8 198.5,350.4 198.1,351 197.6,351.5 197.1,352 196.5,352.5 196,352.9 195.4,353.4 194.8,353.7 
	194.1,354.1 193.4,354.4 192.7,354.7 191.9,354.9 191.1,355.2 190.3,355.3 189.5,355.5 188.6,355.6 187.7,355.7 186.7,355.8 
	185.7,355.8 184.7,355.9 "/>
<path class="st1" d="M201.1,300.2L201.1,300.2h-11.1v39v1l0,1l-0.1,0.9l-0.1,0.8l-0.1,0.8l-0.2,0.7l-0.2,0.6l-0.3,0.6l-0.1,0.2
	l-0.2,0.3l-0.2,0.2l-0.2,0.2l-0.2,0.2l-0.2,0.2l-0.2,0.2l-0.3,0.2l-0.2,0.1l-0.3,0.1l-0.3,0.1l-0.3,0.1l-0.6,0.1l-0.7,0l-0.7,0
	l-0.6-0.1l-0.3-0.1l-0.3-0.1l-0.3-0.1l-0.2-0.1l-0.2-0.2l-0.2-0.2l-0.2-0.2l-0.2-0.2l-0.2-0.2l-0.2-0.2l-0.1-0.3l-0.2-0.2L181,345
	l-0.2-0.6l-0.2-0.7l-0.1-0.8l-0.1-0.8l-0.1-0.9l0-1v-1v-1.7v0h-10.2v2.4v0.8l0,0.8l0,0.8l0.1,0.8l0.1,0.8l0.1,0.7l0.2,0.7l0.2,0.8
	l0.2,0.7l0.2,0.7l0.3,0.7l0.3,0.6l0.3,0.6l0.3,0.6l0.4,0.6l0.4,0.6l0.4,0.5l0.5,0.5l0.5,0.5l0.5,0.4l0.6,0.4l0.6,0.4l0.7,0.3
	l0.7,0.3l0.8,0.3l0.8,0.3l0.8,0.2l0.9,0.2l0.9,0.1l1,0.1l1,0.1l1.1,0l1,0l1,0l1-0.1l0.9-0.1l0.9-0.1l0.9-0.2l0.8-0.2l0.8-0.2
	l0.8-0.3l0.7-0.3l0.7-0.3l0.7-0.3l0.6-0.4l0.6-0.4l0.6-0.4l0.5-0.5l0.5-0.5l0.4-0.6l0.4-0.6l0.4-0.6l0.4-0.6l0.3-0.7l0.3-0.7
	l0.3-0.8l0.2-0.8l0.2-0.8l0.2-0.9l0.2-0.9l0.1-0.9l0.1-1l0-1v-1.1V300.2z M201.1,300.2L201.1,300.2L201.1,300.2z M185.2,347.7l0.7,0
	l0.6-0.1l0.3-0.1l0.3-0.1l0.3-0.1l0.2-0.1l0.3-0.1l0.2-0.2l0.2-0.2l0.2-0.2l0.2-0.2l0.1-0.2l0.2-0.3l0.1-0.2l0.3-0.6l0.2-0.6
	l0.2-0.7l0.1-0.8l0.1-0.8l0.1-0.9l0-1v-1v-39h11v39.3v1.1l0,1l-0.1,1l-0.1,0.9l-0.2,0.9l-0.2,0.9l-0.2,0.8l-0.2,0.8l-0.3,0.8
	l-0.3,0.7l-0.3,0.7l-0.4,0.6l-0.4,0.6l-0.4,0.6l-0.4,0.6l-0.5,0.5l-0.5,0.5l-0.6,0.4l-0.6,0.4l-0.6,0.4l-0.7,0.3l-0.7,0.3l-0.7,0.3
	l-0.8,0.3l-0.8,0.2l-0.8,0.2l-0.9,0.1l-0.9,0.1l-0.9,0.1l-1,0.1l-1,0l-1,0l-1.1,0l-1-0.1l-1-0.1l-0.9-0.1l-0.9-0.2l-0.8-0.2
	l-0.8-0.3l-0.8-0.3l-0.7-0.3l-0.7-0.3l-0.6-0.4l-0.6-0.4l-0.5-0.4l-0.5-0.5l-0.4-0.5l-0.4-0.5l-0.4-0.6l-0.4-0.6l-0.3-0.6l-0.3-0.6
	l-0.3-0.6l-0.3-0.7l-0.2-0.7l-0.2-0.7l-0.2-0.8l-0.2-0.7l-0.1-0.8l-0.1-0.8l-0.1-0.8l0-0.8l0-0.8v-0.8v-2.4h10.1v1.7v1l0,1l0.1,0.9
	l0.1,0.8l0.1,0.8l0.2,0.7l0.2,0.6l0.3,0.6l0.2,0.2l0.2,0.3l0.1,0.2l0.2,0.2l0.2,0.2l0.2,0.2l0.2,0.2l0.2,0.1l0.2,0.1l0.3,0.1
	l0.3,0.1l0.3,0.1l0.6,0.1L185.2,347.7z"/>
<path class="st0" d="M201.1,300.2h-11v39v1l0,1l-0.1,0.9l-0.1,0.8l-0.1,0.8l-0.2,0.7l-0.2,0.6l-0.3,0.6l-0.1,0.2l-0.2,0.3l-0.1,0.2
	l-0.2,0.2l-0.2,0.2l-0.2,0.2l-0.2,0.2l-0.3,0.2l-0.2,0.1l-0.3,0.1l-0.3,0.1l-0.3,0.1l-0.6,0.1l-0.7,0l-0.7,0l-0.6-0.1l-0.3-0.1
	l-0.3-0.1l-0.3-0.1l-0.2-0.1l-0.2-0.2l-0.2-0.2l-0.2-0.2l-0.2-0.2l-0.2-0.2l-0.1-0.2l-0.2-0.3l-0.2-0.2L181,345l-0.2-0.6l-0.2-0.7
	l-0.1-0.8l-0.1-0.8l-0.1-0.9l0-1v-1v-1.7h-10.1v2.4v0.8l0,0.8l0,0.8l0.1,0.8l0.1,0.8l0.1,0.8l0.2,0.7l0.2,0.7l0.2,0.7l0.2,0.7
	l0.3,0.7l0.3,0.6l0.3,0.6l0.3,0.6l0.4,0.6l0.4,0.6l0.4,0.5l0.4,0.5l0.5,0.5l0.5,0.4l0.6,0.4l0.6,0.4l0.7,0.3l0.7,0.3l0.8,0.3
	l0.8,0.3l0.8,0.2l0.9,0.2l0.9,0.1l1,0.1l1,0.1l1.1,0l1,0l1,0l1-0.1l0.9-0.1l0.9-0.1l0.9-0.2l0.8-0.2l0.8-0.2l0.8-0.3l0.7-0.3
	l0.7-0.3l0.7-0.3l0.6-0.4l0.6-0.4l0.6-0.4l0.5-0.5l0.5-0.5l0.4-0.6l0.4-0.6l0.4-0.6l0.4-0.6l0.3-0.7l0.3-0.7l0.3-0.8l0.2-0.8
	l0.2-0.8l0.2-0.9l0.2-0.9l0.1-0.9l0.1-1l0-1v-1.1V300.2z M185.2,347.8l0.7,0l0.6-0.1l0.3-0.1l0.3-0.1l0.3-0.1l0.2-0.1l0.3-0.1
	l0.2-0.2l0.2-0.2l0.2-0.2l0.2-0.2l0.2-0.2l0.2-0.3l0.1-0.2l0.3-0.6l0.2-0.6l0.2-0.7l0.1-0.8l0.1-0.8l0.1-0.9l0-1v-1v-39h11v39.3v1.1
	l0,1l-0.1,1l-0.1,0.9l-0.2,0.9l-0.2,0.9l-0.2,0.8l-0.2,0.8l-0.3,0.8l-0.3,0.7l-0.3,0.7l-0.4,0.6l-0.4,0.6l-0.4,0.6l-0.4,0.6
	l-0.5,0.5l-0.5,0.5l-0.6,0.4l-0.6,0.4l-0.6,0.4l-0.7,0.3l-0.7,0.3l-0.7,0.3l-0.8,0.3l-0.8,0.2l-0.8,0.2l-0.9,0.2l-0.9,0.1l-0.9,0.1
	l-1,0.1l-1,0l-1,0l-1.1,0l-1-0.1l-1-0.1l-0.9-0.1l-0.9-0.2l-0.8-0.2l-0.8-0.3l-0.8-0.3l-0.7-0.3l-0.7-0.3l-0.6-0.4L175,353l-0.5-0.4
	l-0.5-0.5l-0.5-0.5l-0.4-0.5l-0.4-0.6l-0.4-0.6l-0.3-0.6l-0.3-0.6l-0.3-0.6l-0.3-0.7l-0.2-0.7l-0.2-0.7l-0.2-0.8l-0.2-0.7l-0.1-0.7
	l-0.1-0.8l-0.1-0.7l0-0.8l0-0.8v-0.8v-2.3h10.1v1.7v1l0,1l0.1,0.9l0.1,0.8l0.1,0.8l0.2,0.7l0.2,0.6l0.3,0.6l0.2,0.2l0.1,0.3l0.2,0.2
	l0.2,0.2l0.2,0.2l0.2,0.2l0.2,0.2l0.2,0.1l0.2,0.1l0.3,0.1l0.3,0.1l0.3,0.1l0.6,0.1L185.2,347.8z"/>
<polygon class="st0" points="223.8,355.8 223,355.8 222.2,355.8 221.4,355.7 220.5,355.6 219.8,355.5 219,355.3 218.2,355.2 
	217.4,354.9 216.7,354.7 215.9,354.4 215.2,354.1 214.5,353.8 213.9,353.4 213.2,353 212.6,352.5 212,352 211.4,351.5 210.9,350.9 
	210.4,350.2 209.9,349.5 209.5,348.8 209.1,348 208.7,347.1 208.4,346.2 208.1,345.3 207.8,344.3 207.6,343.2 207.5,342.1 
	207.3,340.9 207.2,339.6 207.2,338.2 207.2,300.2 218.3,300.2 218.3,338.2 218.3,339.3 218.3,340.2 218.4,341.2 218.6,342 
	218.7,342.8 218.9,343.6 219.1,344 219.2,344.4 219.4,344.7 219.6,345 219.8,345.4 219.9,345.6 220.2,345.9 220.4,346.2 
	220.7,346.4 220.9,346.6 221.2,346.8 221.5,347 221.9,347.2 222.2,347.3 222.6,347.4 223,347.6 223.4,347.6 223.8,347.7 
	224.2,347.7 224.7,347.7 225.2,347.7 225.6,347.7 226.1,347.6 226.5,347.6 226.9,347.4 227.2,347.3 227.6,347.2 227.9,347 
	228.2,346.8 228.5,346.6 228.8,346.4 229,346.2 229.2,345.9 229.5,345.6 229.7,345.4 229.8,345 230,344.7 230.2,344.4 230.3,344 
	230.4,343.6 230.7,342.8 230.9,342 231,341.2 231.1,340.2 231.1,339.3 231.2,338.2 231.2,300.2 242.2,300.2 242.2,338.2 
	242.2,339.5 242.1,340.8 242,341.9 241.8,343 241.6,344 241.3,345 241.1,346 240.7,346.9 240.3,347.7 239.9,348.5 239.5,349.2 
	239,350 238.5,350.6 238,351.2 237.4,351.7 236.8,352.3 236.2,352.8 235.6,353.2 234.9,353.6 234.2,354 233.5,354.3 232.7,354.6 
	232,354.8 231.2,355 230.4,355.3 229.7,355.4 228.8,355.6 228,355.7 227.2,355.8 226.4,355.8 225.5,355.8 224.7,355.9 "/>
<path class="st1" d="M242.2,300.2h-11.1v38.1l0,1l0,1l-0.1,0.9l-0.2,0.9l-0.2,0.8l-0.2,0.8l-0.1,0.4l-0.1,0.4l-0.2,0.3l-0.2,0.3
	l-0.2,0.3l-0.2,0.3l-0.2,0.3l-0.3,0.3l-0.2,0.2l-0.3,0.2l-0.3,0.2l-0.3,0.2l-0.3,0.2l-0.3,0.1l-0.4,0.1l-0.4,0.1l-0.4,0.1l-0.5,0.1
	h-0.4l-0.4,0l-0.5,0h-0.5l-0.4-0.1l-0.4-0.1l-0.4-0.1l-0.4-0.1l-0.3-0.1l-0.3-0.2l-0.3-0.2l-0.3-0.2l-0.3-0.2l-0.3-0.2l-0.2-0.3
	l-0.2-0.3l-0.2-0.3l-0.2-0.3l-0.2-0.3l-0.2-0.3l-0.1-0.4l-0.2-0.4l-0.2-0.8l-0.2-0.8l-0.2-0.9l-0.1-0.9l0-1l0-1v-38.1h0h-11v38.1
	v1.4l0.1,1.3l0.2,1.2l0.2,1.2l0.2,1l0.2,1.1l0.3,0.9l0.3,0.9l0.4,0.9l0.4,0.8l0.4,0.7l0.5,0.7l0.5,0.6l0.5,0.6l0.6,0.5l0.6,0.5
	l0.6,0.4l0.6,0.4l0.7,0.4l0.7,0.3l0.7,0.3l0.8,0.3l0.8,0.2l0.8,0.2l0.8,0.2l0.8,0.2l0.8,0.1l0.8,0.1l0.8,0.1l0.8,0.1h0.8l0.9,0
	l0.8,0l0.9,0l0.8,0l0.8-0.1l0.8-0.1l0.8-0.1l0.8-0.2l0.8-0.2l0.7-0.2l0.8-0.3l0.7-0.3l0.7-0.3l0.7-0.4l0.7-0.4l0.6-0.4l0.6-0.5
	l0.6-0.5l0.6-0.6l0.5-0.6l0.5-0.6l0.4-0.7l0.4-0.8l0.4-0.8l0.4-0.8l0.3-0.9l0.3-0.9l0.3-1l0.2-1.1l0.2-1.1l0.1-1.2l0.1-1.2l0-1.3
	V300.2z M224.7,347.7l0.4,0h0.5l0.4-0.1l0.4-0.1l0.4-0.1l0.4-0.1l0.3-0.2l0.3-0.1l0.3-0.2l0.3-0.2l0.3-0.2l0.2-0.2l0.3-0.3l0.2-0.3
	l0.2-0.3l0.2-0.3l0.2-0.3l0.1-0.3l0.2-0.4l0.1-0.4l0.2-0.8l0.2-0.8l0.2-0.9l0.1-0.9l0-1l0-1v-38.1h11v38.1l0,1.3l-0.1,1.2l-0.1,1.2
	l-0.2,1.1l-0.2,1l-0.3,1l-0.3,0.9l-0.3,0.9l-0.4,0.8l-0.4,0.8l-0.4,0.8l-0.5,0.7l-0.5,0.6l-0.5,0.6l-0.6,0.6l-0.6,0.5l-0.6,0.5
	l-0.6,0.4l-0.7,0.4l-0.7,0.4l-0.7,0.3l-0.7,0.3l-0.8,0.3l-0.8,0.2l-0.8,0.2l-0.8,0.2l-0.8,0.2l-0.8,0.1l-0.8,0.1l-0.8,0l-0.9,0
	l-0.8,0l-0.9,0H223l-0.8-0.1l-0.8-0.1l-0.8-0.1l-0.8-0.1l-0.8-0.2l-0.8-0.2l-0.8-0.2l-0.7-0.2l-0.8-0.3l-0.7-0.3l-0.7-0.3l-0.7-0.4
	l-0.6-0.4l-0.6-0.4L212,352l-0.6-0.5l-0.5-0.6l-0.5-0.6l-0.5-0.7l-0.4-0.8l-0.4-0.8l-0.4-0.9l-0.3-0.9l-0.3-0.9l-0.2-1l-0.2-1
	l-0.2-1.2l-0.2-1.2l-0.1-1.3v-1.4v-38.1h11v38.1l0,1l0,1l0.1,0.9l0.2,0.9l0.1,0.8l0.2,0.8l0.2,0.4l0.2,0.4l0.2,0.3l0.2,0.3l0.2,0.3
	l0.2,0.3l0.2,0.3l0.2,0.3l0.3,0.2l0.3,0.2l0.3,0.2l0.3,0.2l0.3,0.1l0.3,0.2l0.4,0.1l0.4,0.1l0.4,0.1l0.4,0.1h0.4L224.7,347.7z
	 M218.2,300.2L218.2,300.2L218.2,300.2z"/>
<path class="st0" d="M242.2,300.2h-11v38.1l0,1l0,1l-0.1,0.9l-0.2,0.9l-0.2,0.8l-0.2,0.8l-0.1,0.4l-0.2,0.4l-0.2,0.3l-0.2,0.3
	l-0.2,0.3l-0.2,0.3l-0.2,0.3l-0.3,0.3l-0.2,0.2l-0.3,0.2l-0.3,0.2l-0.3,0.2l-0.3,0.2l-0.3,0.2l-0.4,0.1l-0.4,0.1l-0.4,0.1l-0.4,0.1
	h-0.4l-0.5,0l-0.5,0h-0.5l-0.4-0.1l-0.4-0.1l-0.4-0.1l-0.4-0.1l-0.3-0.2l-0.3-0.2l-0.3-0.2l-0.3-0.2l-0.3-0.2l-0.3-0.2l-0.2-0.3
	l-0.2-0.3l-0.2-0.3l-0.2-0.3l-0.2-0.3l-0.2-0.3l-0.2-0.4l-0.1-0.4l-0.2-0.8l-0.2-0.8l-0.2-0.9l-0.1-0.9l0-1l0-1v-38.1h-11v38.1v1.3
	l0.1,1.3l0.1,1.2l0.2,1.2l0.2,1l0.2,1l0.3,0.9l0.3,0.9l0.4,0.9l0.4,0.8l0.4,0.7l0.5,0.7l0.5,0.6l0.5,0.6l0.6,0.5l0.6,0.5l0.6,0.4
	l0.6,0.4l0.7,0.4l0.7,0.3l0.7,0.3l0.8,0.3l0.8,0.2l0.8,0.2l0.8,0.2l0.8,0.2l0.8,0.1l0.8,0.1l0.8,0.1l0.8,0.1h0.8l0.9,0l0.8,0l0.9,0
	l0.8,0l0.8-0.1l0.8-0.1l0.8-0.2l0.8-0.1l0.8-0.2l0.8-0.2l0.8-0.3l0.7-0.3l0.7-0.3l0.7-0.4l0.7-0.4l0.6-0.4l0.6-0.5l0.6-0.5l0.6-0.6
	l0.5-0.6l0.5-0.6l0.5-0.7l0.4-0.8l0.4-0.8l0.4-0.8l0.3-0.9l0.3-0.9l0.3-1l0.2-1.1l0.2-1.1l0.1-1.2l0.1-1.2l0-1.3V300.2z
	 M224.7,347.8l0.5,0h0.4l0.5-0.1l0.4-0.1l0.4-0.1l0.4-0.1l0.3-0.1l0.3-0.2l0.3-0.2l0.3-0.2l0.3-0.2l0.2-0.2l0.3-0.3l0.2-0.3l0.2-0.3
	l0.2-0.3l0.2-0.3l0.1-0.3l0.2-0.4l0.1-0.4l0.2-0.8l0.2-0.8l0.2-0.9l0.1-0.9l0-1l0-1v-38.1h11v38.1l0,1.3l-0.1,1.2l-0.1,1.2l-0.2,1.1
	l-0.2,1l-0.3,1L241,346l-0.3,0.9l-0.4,0.8l-0.4,0.8l-0.5,0.8l-0.4,0.7l-0.5,0.6l-0.5,0.6l-0.6,0.6l-0.6,0.5l-0.6,0.5l-0.6,0.4
	l-0.7,0.4l-0.7,0.4l-0.7,0.3l-0.7,0.3l-0.8,0.3l-0.7,0.2l-0.8,0.2l-0.8,0.2l-0.8,0.1l-0.8,0.1l-0.8,0.1l-0.8,0l-0.9,0l-0.8,0l-0.9,0
	H223l-0.8-0.1l-0.8-0.1l-0.8-0.1l-0.8-0.1l-0.8-0.2l-0.8-0.2l-0.8-0.2l-0.7-0.2l-0.8-0.3l-0.7-0.3l-0.7-0.3l-0.7-0.4l-0.6-0.4
	l-0.6-0.5L212,352l-0.6-0.5l-0.5-0.6l-0.5-0.6l-0.5-0.7l-0.4-0.7l-0.4-0.8l-0.4-0.9l-0.3-0.9l-0.3-0.9l-0.2-1l-0.2-1l-0.2-1.2
	l-0.1-1.2l-0.1-1.3v-1.3v-38.1h11v38.1l0,1l0,1l0.1,0.9l0.2,0.9l0.2,0.8l0.2,0.8l0.2,0.4l0.1,0.4l0.2,0.3l0.2,0.3l0.2,0.3l0.2,0.3
	l0.2,0.3l0.2,0.3l0.3,0.2l0.3,0.2l0.3,0.2l0.3,0.2l0.3,0.2l0.3,0.1l0.4,0.1l0.4,0.1l0.4,0.1l0.4,0.1h0.5L224.7,347.8z"/>
<polygon class="st0" points="248.3,354.8 248.3,300.2 259.3,300.2 259.3,345.8 275.8,345.8 275.8,354.8 "/>
<path class="st1" d="M259.3,300.2h-11.1v54.6h0h27.6v-9.1h-16.5V300.2z M248.3,354.8v-54.6h11.1v45.6h16.5v9H248.3z"/>
<path class="st0" d="M259.3,300.2h-11.1v54.6h27.6v-9h-16.5V300.2z M248.3,354.8v-54.6h11v45.6h16.5v9H248.3z"/>
<rect x="281.9" y="300.2" class="st0" width="11.1" height="54.6"/>
<path class="st1" d="M293,300.2h-11.1v54.6h0H293V300.2z M281.9,300.2H293v54.6h-11.1V300.2z"/>
<path class="st0" d="M293,300.2h-11.1v54.6H293V300.2z M281.9,300.2h11v54.6h-11V300.2z M281.9,354.8L281.9,354.8L281.9,354.8
	L281.9,354.8z"/>
<polygon class="st0" points="315.7,355.8 314.9,355.8 314,355.7 313.2,355.7 312.4,355.6 311.6,355.5 310.8,355.3 310,355.1 
	309.2,354.9 308.5,354.7 307.8,354.4 307.1,354.1 306.3,353.8 305.7,353.4 305,353 304.4,352.5 303.8,352 303.2,351.5 302.7,350.9 
	302.2,350.2 301.7,349.5 301.3,348.8 300.9,348 300.5,347.1 300.2,346.2 299.9,345.3 299.6,344.3 299.4,343.2 299.3,342.1 
	299.1,340.9 299.1,339.6 299,338.2 299,300.2 310.1,300.2 310.1,338.2 310.1,339.3 310.1,340.2 310.2,341.2 310.4,342 310.5,342.8 
	310.8,343.6 310.9,344 311,344.4 311.2,344.7 311.4,345 311.6,345.4 311.7,345.6 312,345.9 312.2,346.2 312.5,346.4 312.8,346.6 
	313,346.8 313.4,347 313.7,347.2 314,347.3 314.4,347.4 314.8,347.6 315.2,347.6 315.6,347.7 316.1,347.7 316.5,347.7 317,347.7 
	317.4,347.7 317.9,347.6 318.3,347.6 318.6,347.4 319,347.3 319.4,347.2 319.7,347 320,346.8 320.3,346.6 320.6,346.4 320.8,346.2 
	321,345.9 321.3,345.6 321.5,345.4 321.6,345 321.8,344.7 322,344.4 322.1,344 322.3,343.6 322.5,342.8 322.7,342 322.8,341.2 
	322.9,340.2 322.9,339.3 323,338.2 323,300.2 334,300.2 334,338.2 334,339.5 333.9,340.7 333.8,341.9 333.6,343 333.4,344 
	333.2,345 332.9,346 332.5,346.9 332.1,347.7 331.7,348.5 331.3,349.2 330.8,350 330.3,350.6 329.8,351.2 329.2,351.7 328.6,352.3 
	328,352.8 327.3,353.2 326.7,353.6 326,354 325.3,354.3 324.5,354.6 323.8,354.8 323,355 322.2,355.3 321.5,355.4 320.7,355.6 
	319.8,355.7 319,355.7 318.2,355.8 317.4,355.8 316.5,355.9 "/>
<path class="st1" d="M334,300.2h-11.1v38.1l0,1l0,1l-0.1,0.9l-0.2,0.9l-0.1,0.8l-0.2,0.8l-0.1,0.4l-0.2,0.4l-0.2,0.3l-0.2,0.3
	l-0.2,0.3l-0.2,0.3l-0.2,0.3l-0.2,0.3l-0.3,0.2l-0.3,0.2l-0.3,0.2l-0.3,0.2l-0.3,0.2l-0.3,0.1l-0.4,0.1l-0.4,0.1l-0.4,0.1l-0.4,0.1
	H317l-0.5,0l-0.4,0h-0.4l-0.4-0.1l-0.4-0.1l-0.4-0.1l-0.4-0.1l-0.3-0.1l-0.3-0.2l-0.3-0.2l-0.3-0.2l-0.3-0.2l-0.2-0.2l-0.3-0.3
	l-0.2-0.3l-0.2-0.3l-0.2-0.3l-0.2-0.3l-0.2-0.3l-0.2-0.4l-0.1-0.4l-0.2-0.8l-0.2-0.8l-0.1-0.9l-0.1-0.9l0-1l0-1v-38.1h0h-11v38.1
	l0,1.3l0.1,1.3l0.1,1.2l0.2,1.2l0.2,1l0.3,1.1l0.3,0.9l0.3,0.9l0.4,0.9l0.4,0.8l0.4,0.7l0.5,0.7l0.5,0.6l0.5,0.6l0.6,0.5l0.6,0.5
	l0.6,0.5l0.6,0.4l0.7,0.4l0.7,0.3l0.7,0.3l0.7,0.3l0.8,0.2l0.8,0.2l0.8,0.2l0.8,0.2l0.8,0.1l0.8,0.1l0.8,0.1l0.9,0.1h0.8l0.8,0
	l0.9,0l0.8,0l0.8,0l0.8-0.1l0.8-0.1l0.8-0.2l0.8-0.1l0.8-0.2l0.8-0.2l0.8-0.3l0.7-0.3l0.7-0.3l0.7-0.4l0.7-0.4l0.6-0.4l0.6-0.5
	l0.6-0.5l0.6-0.6l0.5-0.6l0.5-0.6l0.5-0.7l0.4-0.8l0.4-0.8l0.4-0.8l0.3-0.9l0.3-0.9l0.2-1l0.2-1l0.1-1.1l0.2-1.2l0.1-1.2v-1.3V300.2
	z M316.5,347.7l0.5,0h0.5l0.4-0.1l0.4-0.1l0.4-0.1l0.4-0.1l0.3-0.2l0.3-0.1l0.3-0.2l0.3-0.2l0.3-0.2l0.3-0.2l0.2-0.3l0.2-0.3
	l0.2-0.3l0.2-0.3l0.2-0.3l0.2-0.3l0.2-0.4l0.1-0.4l0.2-0.8l0.2-0.8l0.2-0.9l0.1-0.9l0-1l0-1v-38.1h11v38.1v1.3l-0.1,1.2l-0.1,1.2
	l-0.2,1.1l-0.2,1l-0.2,1l-0.3,0.9l-0.3,0.9l-0.4,0.8l-0.4,0.8l-0.4,0.8l-0.5,0.7l-0.5,0.6l-0.5,0.6l-0.6,0.6l-0.6,0.5l-0.6,0.5
	l-0.6,0.4l-0.7,0.4l-0.7,0.4l-0.7,0.3l-0.8,0.3l-0.8,0.3L323,355l-0.8,0.2l-0.8,0.2l-0.8,0.1l-0.8,0.1l-0.8,0.1l-0.8,0l-0.8,0
	l-0.9,0l-0.8,0h-0.8l-0.9-0.1l-0.8-0.1l-0.8-0.1l-0.8-0.1l-0.8-0.2l-0.8-0.2l-0.8-0.2l-0.8-0.2l-0.7-0.3l-0.7-0.3l-0.7-0.3l-0.7-0.4
	L305,353l-0.6-0.4l-0.6-0.5l-0.6-0.5l-0.5-0.6l-0.5-0.6l-0.4-0.7l-0.4-0.7l-0.4-0.8l-0.4-0.9l-0.3-0.9l-0.3-0.9l-0.3-1l-0.2-1
	l-0.2-1.2l-0.1-1.2l-0.1-1.3l0-1.3v-38.1h11v38.1l0,1l0,1l0.1,0.9l0.1,0.9l0.2,0.8l0.2,0.8l0.1,0.4l0.2,0.4l0.2,0.3l0.2,0.3l0.2,0.3
	l0.2,0.3l0.2,0.3l0.3,0.3l0.2,0.2l0.3,0.2l0.3,0.2l0.3,0.2l0.3,0.1l0.3,0.2l0.4,0.1l0.4,0.1l0.4,0.1l0.5,0.1h0.4L316.5,347.7z
	 M310,300.2L310,300.2L310,300.2z"/>
<path class="st0" d="M334,300.2h-11v38.1l0,1l0,1l-0.1,0.9l-0.2,0.9l-0.2,0.8l-0.2,0.8l-0.2,0.4l-0.2,0.4l-0.1,0.3l-0.2,0.3
	l-0.2,0.3l-0.2,0.3l-0.2,0.3l-0.2,0.3l-0.3,0.2l-0.3,0.2l-0.3,0.2l-0.3,0.2l-0.3,0.2l-0.3,0.2l-0.4,0.1l-0.4,0.1l-0.4,0.1l-0.4,0.1
	H317l-0.5,0l-0.4,0h-0.4l-0.5-0.1l-0.4-0.1l-0.4-0.1l-0.4-0.1l-0.3-0.2l-0.3-0.2l-0.3-0.2l-0.3-0.2l-0.3-0.2l-0.2-0.2l-0.3-0.3
	l-0.2-0.3l-0.2-0.3l-0.2-0.3l-0.2-0.3l-0.2-0.3l-0.2-0.4l-0.1-0.4l-0.2-0.8l-0.2-0.8l-0.1-0.9l-0.1-0.9l0-1l0-1v-38.1h-11v38.1
	l0,1.3l0.1,1.3l0.1,1.2l0.2,1.2l0.2,1l0.3,1l0.3,0.9l0.3,0.9l0.4,0.9l0.4,0.8l0.4,0.8l0.4,0.7l0.5,0.6l0.5,0.6l0.6,0.5l0.6,0.5
	l0.6,0.4l0.6,0.4l0.7,0.4l0.7,0.3l0.7,0.3l0.7,0.3l0.8,0.2l0.7,0.2l0.8,0.2l0.8,0.2l0.8,0.1l0.8,0.1l0.8,0.1l0.9,0.1h0.8l0.8,0
	l0.9,0l0.8,0l0.8,0l0.8-0.1l0.8-0.1l0.8-0.2l0.8-0.1l0.8-0.2l0.7-0.2l0.8-0.3l0.7-0.3l0.7-0.3l0.7-0.4l0.7-0.4l0.6-0.4l0.6-0.5
	l0.6-0.5l0.6-0.6l0.5-0.6l0.5-0.6l0.5-0.7l0.4-0.8l0.4-0.8l0.4-0.8l0.3-0.9l0.3-0.9l0.2-1l0.2-1l0.2-1.1l0.2-1.2l0.1-1.2v-1.3V300.2
	z M316.5,347.8l0.5,0h0.5l0.4-0.1l0.4-0.1l0.4-0.1l0.4-0.1l0.3-0.2l0.3-0.1l0.3-0.2l0.3-0.2l0.3-0.2l0.3-0.2l0.2-0.3l0.2-0.3
	l0.2-0.3l0.2-0.3l0.2-0.3l0.2-0.3l0.2-0.4l0.1-0.4l0.2-0.8l0.2-0.8l0.2-0.9l0.1-0.9l0-1l0-1v-38.1h11v38.1v1.3l-0.1,1.2l-0.2,1.2
	l-0.2,1.1l-0.2,1l-0.2,1l-0.3,0.9l-0.3,0.9l-0.4,0.8l-0.4,0.8l-0.4,0.8l-0.5,0.7l-0.5,0.6l-0.5,0.6l-0.6,0.6l-0.6,0.5l-0.6,0.5
	l-0.6,0.4l-0.7,0.4l-0.7,0.4l-0.7,0.3l-0.8,0.3l-0.8,0.3L323,355l-0.8,0.2l-0.8,0.1l-0.8,0.2l-0.8,0.1l-0.8,0.1l-0.8,0l-0.8,0
	l-0.9,0l-0.8,0h-0.8l-0.9-0.1l-0.8-0.1l-0.8-0.1l-0.8-0.1l-0.8-0.2l-0.8-0.2l-0.8-0.2l-0.8-0.2l-0.7-0.3l-0.7-0.3l-0.7-0.3l-0.7-0.4
	L305,353l-0.6-0.4l-0.6-0.5l-0.6-0.5l-0.5-0.6l-0.5-0.6l-0.4-0.7l-0.4-0.8l-0.4-0.8l-0.4-0.9l-0.3-0.9l-0.3-0.9l-0.3-1l-0.2-1
	l-0.2-1.2l-0.1-1.2l-0.1-1.3l0-1.3v-38.1h11v38.1l0,1l0,1l0.1,0.9l0.1,0.9l0.2,0.8l0.2,0.8l0.1,0.4l0.2,0.4l0.2,0.3l0.2,0.3l0.2,0.3
	l0.2,0.3l0.2,0.3l0.3,0.3l0.2,0.2l0.3,0.2l0.3,0.2l0.3,0.2l0.3,0.1l0.3,0.2l0.4,0.1l0.4,0.1l0.4,0.1l0.4,0.1h0.5L316.5,347.8z"/>
<polygon class="st0" points="354.5,355.8 353.4,355.8 352.4,355.7 351.3,355.6 350.3,355.4 349.4,355.2 348.5,355 347.7,354.8 
	346.8,354.5 346.1,354.2 345.4,353.8 344.7,353.5 344,353 343.4,352.6 342.8,352.2 342.3,351.7 341.8,351.1 341.3,350.6 340.9,350 
	340.5,349.4 340.1,348.8 339.8,348.1 339.5,347.4 339.2,346.7 339,345.9 338.8,345.2 338.6,344.3 338.5,343.5 338.4,342.7 
	338.3,341.8 338.3,340.9 338.3,339.9 338.3,337.7 349.3,337.7 349.3,339.3 349.3,340.3 349.4,341.2 349.5,342 349.6,342.8 
	349.8,343.6 350.1,344.2 350.2,344.6 350.4,344.9 350.6,345.2 350.8,345.5 351,345.7 351.2,346 351.5,346.2 351.7,346.4 352,346.6 
	352.3,346.8 352.6,347 353,347.1 353.3,347.3 353.7,347.4 354.2,347.5 354.6,347.6 355.1,347.7 355.5,347.7 356,347.7 356.6,347.7 
	357.2,347.7 357.8,347.6 358.4,347.5 359,347.3 359.6,347.1 360.2,346.8 360.6,346.5 361.1,346.1 361.6,345.6 362,345.2 
	362.3,344.6 362.6,344 362.8,343.7 362.9,343.3 362.9,343 363,342.6 363.1,342.2 363.1,341.8 363.2,341.4 363.2,341 363.2,340.1 
	363,339.3 363,338.9 362.9,338.5 362.8,338.2 362.7,337.8 362.5,337.5 362.4,337.2 362.2,336.8 362,336.5 361.8,336.2 361.5,336 
	361.3,335.7 361,335.4 360.4,334.9 359.7,334.4 358.9,333.9 358,333.5 357,333 355.9,332.6 354.7,332.1 353.4,331.7 351.6,331 
	349.9,330.4 349.1,330 348.4,329.7 347.7,329.3 347,329 346.3,328.6 345.7,328.2 345.1,327.8 344.5,327.4 344,326.9 343.5,326.5 
	343,326.1 342.5,325.6 342.1,325.1 341.7,324.5 341.3,324 341,323.5 340.7,322.9 340.4,322.3 340.1,321.7 339.9,321.1 339.7,320.4 
	339.5,319.8 339.3,319.1 339.2,318.3 339.2,317.6 339.1,316.8 339,316 339,315.2 339,314.2 339.1,313.2 339.2,312.3 339.3,311.4 
	339.5,310.6 339.7,309.7 339.9,308.9 340.2,308.2 340.5,307.4 340.9,306.7 341.2,306 341.6,305.4 342.1,304.8 342.5,304.2 
	343.1,303.6 343.6,303.1 344.1,302.6 344.8,302.2 345.4,301.8 346,301.4 346.7,301 347.4,300.7 348.2,300.4 348.9,300.1 
	349.7,299.9 350.5,299.7 351.4,299.5 352.2,299.4 353.1,299.2 354.1,299.2 355,299.1 356,299.1 356.9,299.1 357.8,299.2 
	358.7,299.2 359.5,299.3 360.3,299.4 361.2,299.6 362,299.7 362.8,299.9 363.5,300.1 364.2,300.4 365,300.7 365.6,301 366.3,301.3 
	366.9,301.7 367.5,302.1 368.1,302.5 368.7,303 369.2,303.5 369.7,304 370.1,304.5 370.6,305.1 371,305.7 371.3,306.4 371.6,307 
	371.9,307.8 372.2,308.5 372.4,309.3 372.6,310.2 372.7,311 372.8,311.9 372.9,312.8 372.9,313.8 372.9,315.3 362.3,315.3 
	362.3,314.4 362.3,313.5 362.1,312.7 362,311.9 361.8,311.2 361.5,310.5 361.2,309.9 360.9,309.3 360.7,309.1 360.5,308.8 
	360.3,308.6 360.1,308.4 359.9,308.2 359.6,308.1 359.3,307.9 359.1,307.8 358.8,307.6 358.5,307.5 358.1,307.4 357.8,307.4 
	357.1,307.2 356.3,307.2 355.9,307.2 355.5,307.2 355.1,307.3 354.6,307.4 354.3,307.4 353.9,307.5 353.6,307.6 353.3,307.8 
	353,307.9 352.7,308 352.4,308.2 352.2,308.4 351.7,308.7 351.3,309.2 351,309.6 350.8,310.1 350.5,310.6 350.3,311.2 350.2,311.8 
	350.1,312.4 350.1,313 350.1,313.6 350.1,314.2 350.1,314.8 350.2,315.3 350.3,315.8 350.4,316.4 350.6,316.9 350.9,317.3 
	351.2,317.8 351.5,318.2 351.9,318.7 352.4,319.1 352.9,319.4 353.5,319.8 354.2,320.2 354.9,320.6 355.7,321 364.2,324.6 365,325 
	365.7,325.3 366.4,325.7 367.1,326 367.7,326.4 368.3,326.7 368.9,327.1 369.4,327.5 369.9,327.8 370.3,328.3 370.8,328.6 
	371.2,329 371.6,329.5 371.9,329.9 372.3,330.3 372.6,330.7 372.8,331.2 373.1,331.6 373.4,332.1 373.5,332.6 373.8,333 
	373.9,333.5 374.1,334 374.2,334.5 374.4,335.6 374.6,336.7 374.6,337.9 374.7,339.1 374.7,340.2 374.6,341.2 374.5,342.2 
	374.3,343.1 374.2,344 374,344.9 373.7,345.8 373.4,346.6 373.1,347.4 372.7,348.1 372.3,348.8 371.8,349.5 371.3,350.1 
	370.8,350.7 370.2,351.3 369.6,351.8 369,352.3 368.4,352.8 367.7,353.2 366.9,353.6 366.2,354 365.4,354.3 364.5,354.6 
	363.7,354.8 362.8,355.1 361.8,355.3 360.9,355.4 359.9,355.6 358.9,355.7 357.8,355.8 356.8,355.8 355.7,355.9 "/>
<path class="st1" d="M356,299.1l-1,0l-0.9,0l-0.9,0.1l-0.9,0.1l-0.9,0.1l-0.9,0.2l-0.8,0.2l-0.8,0.3l-0.7,0.3l-0.8,0.3l-0.7,0.3
	l-0.7,0.3l-0.6,0.4l-0.6,0.4l-0.6,0.4l-0.6,0.5l-0.5,0.5l-0.5,0.6l-0.5,0.6l-0.4,0.6l-0.4,0.6l-0.4,0.7l-0.3,0.7l-0.3,0.7l-0.3,0.8
	l-0.3,0.8l-0.2,0.8l-0.2,0.9l-0.1,0.9l-0.1,0.9l0,1l0,1l0,0.8l0,0.8l0.1,0.8l0.1,0.8l0.1,0.7l0.2,0.7l0.2,0.7l0.2,0.7l0.3,0.6
	l0.2,0.6l0.3,0.6l0.3,0.6l0.4,0.5l0.3,0.5l0.4,0.5l0.4,0.5l0.5,0.5l0.5,0.4l0.5,0.4l0.6,0.4l0.6,0.4l0.6,0.4l0.6,0.4l0.7,0.4
	l0.7,0.4l0.7,0.3l0.8,0.3l0.8,0.4l1.7,0.6l1.8,0.6l1.3,0.5l1.2,0.4l1.1,0.4l1,0.5l0.9,0.4l0.8,0.5l0.7,0.5l0.6,0.5l0.3,0.3l0.3,0.3
	l0.2,0.3l0.2,0.3l0.2,0.3l0.2,0.3l0.2,0.3l0.2,0.3l0.1,0.4l0.1,0.3l0.1,0.4l0.1,0.4l0.1,0.8v0.9v0.4l0,0.4l0,0.4l0,0.4l-0.1,0.4
	l-0.1,0.3l-0.1,0.3l-0.1,0.3l-0.3,0.6l-0.3,0.6l-0.4,0.5l-0.4,0.4l-0.5,0.4l-0.5,0.3l-0.6,0.3l-0.6,0.2l-0.6,0.2l-0.6,0.1l-0.6,0.1
	l-0.6,0H356l-0.5,0l-0.5,0l-0.4-0.1l-0.5-0.1l-0.4-0.1l-0.4-0.1l-0.3-0.1l-0.4-0.2l-0.3-0.2l-0.3-0.2l-0.3-0.2l-0.3-0.2l-0.3-0.2
	l-0.2-0.3l-0.2-0.3l-0.2-0.3l-0.2-0.3l-0.2-0.3l-0.2-0.3l-0.3-0.7l-0.2-0.7l-0.2-0.8l-0.1-0.8l0-0.9l0-0.9v-1.6v0h0h-11v2.2v0.9
	l0.1,0.9l0,0.9l0.1,0.9l0.2,0.8l0.2,0.8l0.2,0.8l0.2,0.8l0.3,0.7l0.3,0.7l0.3,0.7l0.4,0.6l0.4,0.6l0.4,0.6l0.5,0.6l0.5,0.5l0.5,0.5
	l0.6,0.5l0.6,0.4l0.7,0.4l0.7,0.4l0.8,0.3l0.8,0.3l0.8,0.3l0.9,0.3l0.9,0.2l0.9,0.2l1,0.2l1.1,0.1l1,0.1l1.1,0l1.2,0l1.1,0l1,0
	l1-0.1l1-0.1l1-0.2l0.9-0.2l0.9-0.2l0.9-0.2l0.9-0.3l0.8-0.3l0.8-0.3l0.8-0.4l0.7-0.4l0.7-0.5l0.6-0.4l0.6-0.5l0.6-0.5l0.6-0.6
	l0.5-0.6l0.5-0.6l0.5-0.7l0.4-0.7l0.4-0.7l0.3-0.8l0.3-0.8l0.3-0.8l0.2-0.9l0.2-0.9l0.2-1l0.1-1l0.1-1v-1.1l0-1.2l-0.1-1.2l-0.2-1.1
	l-0.2-1l-0.2-0.5l-0.2-0.5l-0.1-0.5l-0.2-0.4l-0.2-0.5l-0.3-0.4l-0.3-0.5l-0.3-0.4l-0.3-0.4l-0.3-0.4l-0.4-0.4l-0.4-0.4l-0.4-0.4
	l-0.5-0.4l-0.4-0.4l-0.5-0.4l-0.5-0.4l-0.6-0.4l-0.6-0.3l-0.6-0.4l-0.6-0.3l-0.7-0.3l-0.8-0.4l-0.8-0.3l-8.5-3.7l-0.8-0.4l-0.7-0.4
	l-0.7-0.4l-0.6-0.4l-0.5-0.4l-0.5-0.4l-0.4-0.4l-0.3-0.4l-0.3-0.4l-0.2-0.5l-0.2-0.5l-0.2-0.5l-0.1-0.5l-0.1-0.6l0-0.6v-0.6V313
	l0.1-0.6l0.1-0.6l0.1-0.6l0.2-0.6l0.2-0.5l0.3-0.5l0.3-0.4l0.4-0.5l0.5-0.4l0.3-0.2l0.3-0.1l0.3-0.2l0.3-0.1l0.3-0.2l0.3-0.1
	l0.3-0.1l0.4-0.1l0.4-0.1l0.4,0l0.4,0h0.4l0.8,0l0.7,0.1l0.3,0.1l0.3,0.1l0.3,0.1l0.3,0.2l0.3,0.2l0.3,0.1l0.3,0.2l0.2,0.2l0.2,0.2
	l0.2,0.2l0.2,0.2l0.2,0.3l0.3,0.6l0.3,0.6l0.3,0.7l0.2,0.7l0.2,0.8l0.1,0.8l0,0.9l0,0.9v0h10.6v-1.6v-1l-0.1-0.9l-0.1-0.9l-0.2-0.8
	l-0.1-0.8l-0.2-0.8l-0.3-0.8l-0.3-0.7l-0.3-0.7l-0.4-0.6l-0.4-0.6l-0.4-0.6l-0.4-0.6l-0.5-0.5l-0.5-0.5l-0.6-0.5l-0.6-0.4l-0.6-0.4
	l-0.6-0.4l-0.7-0.3l-0.7-0.3l-0.7-0.3l-0.8-0.3l-0.7-0.2l-0.8-0.2l-0.8-0.2l-0.8-0.2l-0.8-0.1l-0.9-0.1l-0.9,0l-0.9,0L356,299.1z
	 M356,347.7h0.6l0.6,0l0.6-0.1l0.6-0.1l0.6-0.2l0.6-0.2l0.6-0.3l0.5-0.3l0.5-0.4l0.4-0.4l0.4-0.5l0.3-0.6l0.3-0.6l0.1-0.3l0.1-0.3
	l0.1-0.3l0.1-0.4l0-0.4l0-0.4l0-0.4V341v-0.9l-0.1-0.8l-0.1-0.4l-0.1-0.4l-0.1-0.3l-0.1-0.4l-0.1-0.3l-0.2-0.3l-0.2-0.3l-0.2-0.3
	l-0.2-0.3l-0.2-0.3l-0.3-0.3l-0.3-0.3l-0.6-0.5l-0.7-0.5l-0.8-0.5l-0.9-0.4l-1-0.4l-1.1-0.5l-1.2-0.4l-1.3-0.5l-1.8-0.6l-1.6-0.6
	l-0.8-0.4l-0.8-0.3l-0.7-0.3L347,329l-0.7-0.4l-0.6-0.4l-0.6-0.4l-0.6-0.4l-0.6-0.4l-0.5-0.4l-0.5-0.4l-0.5-0.5l-0.4-0.5l-0.4-0.5
	l-0.3-0.5l-0.4-0.5l-0.3-0.6l-0.3-0.6l-0.2-0.6l-0.3-0.6l-0.2-0.7l-0.2-0.7l-0.2-0.7l-0.1-0.7l-0.1-0.8l-0.1-0.8l0-0.8l0-0.8l0-1
	l0-1l0.1-0.9l0.1-0.9l0.2-0.9l0.2-0.8l0.3-0.8l0.3-0.8l0.3-0.8l0.3-0.7l0.4-0.7l0.4-0.6l0.4-0.6l0.4-0.6l0.5-0.6l0.5-0.5l0.6-0.5
	l0.6-0.4l0.6-0.4l0.6-0.4l0.7-0.3l0.7-0.3l0.8-0.3l0.8-0.3l0.8-0.3l0.8-0.2l0.9-0.2l0.9-0.1l0.9-0.1l0.9-0.1l0.9,0l1,0l0.9,0l0.9,0
	l0.9,0l0.9,0.1l0.8,0.1l0.8,0.2l0.8,0.2l0.8,0.2l0.8,0.2l0.8,0.3l0.7,0.3l0.7,0.3l0.7,0.3l0.6,0.4l0.6,0.4l0.6,0.5l0.6,0.4l0.5,0.5
	l0.5,0.5l0.5,0.6l0.4,0.6l0.4,0.6l0.4,0.6l0.3,0.7l0.3,0.8l0.3,0.8l0.2,0.8l0.2,0.8l0.1,0.8l0.1,0.9l0.1,0.9v1v1.5h-10.6l0-0.9
	l0-0.9l-0.1-0.8l-0.2-0.8l-0.2-0.7l-0.3-0.7l-0.3-0.6l-0.3-0.6l-0.2-0.3l-0.2-0.2l-0.2-0.2l-0.2-0.2l-0.2-0.2l-0.3-0.2l-0.3-0.2
	l-0.3-0.2l-0.3-0.1l-0.3-0.1l-0.3-0.1l-0.3-0.1l-0.7-0.1l-0.8,0h-0.4l-0.4,0l-0.4,0l-0.4,0.1l-0.4,0.1l-0.3,0.1l-0.3,0.1l-0.3,0.1
	l-0.3,0.1l-0.3,0.1l-0.3,0.2l-0.3,0.2l-0.4,0.4l-0.4,0.4l-0.3,0.5l-0.3,0.5l-0.2,0.5l-0.2,0.6l-0.1,0.6l-0.1,0.6l-0.1,0.6v0.6v0.6
	l0,0.6l0.1,0.6l0.1,0.5l0.1,0.5l0.2,0.5l0.2,0.5l0.3,0.5l0.3,0.4l0.4,0.4l0.5,0.4l0.5,0.4l0.6,0.4l0.7,0.4l0.8,0.4l0.8,0.4l8.5,3.7
	l0.7,0.3l0.8,0.4l0.7,0.3l0.6,0.3l0.6,0.4l0.6,0.3l0.6,0.4l0.5,0.4l0.5,0.4l0.4,0.4l0.4,0.4l0.4,0.4l0.4,0.4l0.4,0.4l0.3,0.4
	l0.3,0.4l0.3,0.4l0.3,0.5l0.3,0.4l0.2,0.5l0.2,0.4l0.1,0.5l0.2,0.5l0.2,0.5l0.2,1l0.2,1.1l0.1,1.2l0,1.2v1.1l-0.1,1l-0.1,1l-0.2,1
	l-0.1,0.9l-0.2,0.9l-0.3,0.8l-0.3,0.8l-0.3,0.8l-0.4,0.7l-0.4,0.7l-0.4,0.7l-0.5,0.6l-0.5,0.6l-0.6,0.6l-0.6,0.5l-0.6,0.5l-0.6,0.4
	l-0.7,0.4l-0.7,0.4l-0.8,0.4l-0.8,0.3l-0.8,0.3l-0.9,0.3l-0.9,0.2l-0.9,0.2l-0.9,0.2l-1,0.2l-1,0.1l-1,0.1l-1,0l-1.1,0l-1.2,0
	l-1.1,0l-1-0.1l-1.1-0.1l-1-0.2l-0.9-0.2l-0.9-0.2l-0.9-0.3l-0.8-0.3l-0.8-0.3l-0.8-0.3l-0.7-0.4L344,353l-0.6-0.4l-0.6-0.5
	l-0.5-0.5l-0.5-0.5l-0.5-0.6l-0.4-0.6l-0.4-0.6l-0.4-0.6l-0.3-0.7l-0.3-0.7l-0.3-0.7l-0.2-0.8l-0.2-0.8l-0.2-0.8l-0.2-0.8l-0.1-0.9
	l0-0.9l-0.1-0.9v-0.9v-2.2h11v1.6l0,0.9l0,0.9l0.1,0.8l0.2,0.8l0.2,0.8l0.3,0.7l0.1,0.3l0.2,0.3l0.2,0.3l0.2,0.3l0.2,0.3l0.2,0.3
	l0.3,0.2l0.3,0.2l0.3,0.2l0.3,0.2l0.3,0.2l0.4,0.1l0.3,0.2l0.4,0.1l0.4,0.1l0.4,0.1l0.5,0.1l0.5,0L356,347.7z M349.3,337.7
	L349.3,337.7L349.3,337.7z"/>
<path class="st0" d="M356,299.1l-1,0l-0.9,0l-0.9,0.1l-0.9,0.1l-0.9,0.2l-0.9,0.2l-0.8,0.2l-0.8,0.3l-0.7,0.3l-0.8,0.3l-0.7,0.3
	l-0.7,0.3l-0.6,0.4l-0.6,0.4l-0.6,0.5l-0.6,0.5l-0.5,0.5l-0.5,0.6l-0.4,0.6l-0.4,0.6l-0.4,0.6l-0.4,0.7l-0.3,0.7l-0.3,0.8l-0.3,0.7
	l-0.3,0.8l-0.2,0.8l-0.2,0.9l-0.1,0.9l-0.1,0.9l0,1l0,1l0,0.8l0,0.8l0.1,0.8l0.1,0.8l0.1,0.7l0.2,0.7l0.2,0.7l0.2,0.7l0.3,0.6
	l0.2,0.6l0.3,0.6l0.3,0.6l0.4,0.5l0.3,0.5l0.4,0.5l0.4,0.5l0.5,0.5l0.5,0.4l0.5,0.4l0.6,0.4l0.6,0.4l0.6,0.4l0.6,0.4l0.7,0.4
	l0.7,0.4l0.7,0.3l0.7,0.3l0.8,0.4l1.7,0.6l1.8,0.6l1.3,0.5l1.2,0.4l1.1,0.4l1,0.5l0.9,0.4l0.8,0.5l0.7,0.5l0.6,0.5l0.3,0.3l0.3,0.3
	l0.2,0.3l0.2,0.3l0.2,0.3l0.2,0.3l0.1,0.3l0.2,0.3l0.1,0.4l0.1,0.3l0.1,0.4l0.1,0.4l0.1,0.8v0.9v0.4l0,0.4l0,0.4l0,0.4l-0.1,0.4
	l-0.1,0.3l-0.1,0.3l-0.1,0.3l-0.3,0.6l-0.3,0.6l-0.4,0.5l-0.5,0.4l-0.5,0.4l-0.5,0.3l-0.6,0.3l-0.6,0.2l-0.6,0.2l-0.6,0.1l-0.6,0.1
	l-0.6,0H356l-0.5,0l-0.5,0l-0.4-0.1l-0.5-0.1l-0.4-0.1l-0.4-0.1l-0.3-0.2l-0.4-0.2l-0.3-0.2l-0.3-0.2l-0.3-0.2l-0.3-0.2l-0.3-0.2
	l-0.2-0.3l-0.2-0.3l-0.2-0.3l-0.2-0.3l-0.2-0.3l-0.2-0.3l-0.3-0.7l-0.2-0.8l-0.1-0.8l-0.1-0.8l0-0.9l0-0.9v-1.6h-11v2.2v0.9l0.1,0.9
	l0,0.9l0.1,0.9l0.2,0.8l0.2,0.8l0.2,0.8l0.2,0.8l0.3,0.7l0.3,0.7l0.3,0.7l0.4,0.6l0.4,0.6l0.4,0.6l0.5,0.6l0.5,0.5l0.5,0.5l0.6,0.5
	l0.6,0.4l0.7,0.4l0.7,0.4l0.7,0.3l0.8,0.3l0.8,0.3l0.9,0.3l0.9,0.2l0.9,0.2l1,0.2l1,0.1l1.1,0.1l1.1,0l1.2,0l1.1,0l1,0l1.1-0.1
	l1-0.1l1-0.2l0.9-0.2l0.9-0.2l0.9-0.2l0.9-0.3l0.8-0.3l0.8-0.3l0.8-0.4l0.7-0.4l0.7-0.4l0.6-0.5l0.6-0.5l0.6-0.5l0.6-0.6l0.5-0.6
	l0.5-0.6l0.4-0.7l0.4-0.7l0.4-0.7l0.3-0.8l0.3-0.8l0.3-0.8l0.2-0.9l0.2-0.9l0.1-1l0.1-1l0.1-1v-1l0-1.2l-0.1-1.2l-0.2-1.1l-0.2-1
	l-0.2-0.5l-0.2-0.5l-0.2-0.5l-0.2-0.4l-0.2-0.5l-0.3-0.5l-0.3-0.4l-0.3-0.4l-0.3-0.4l-0.3-0.4l-0.4-0.4l-0.4-0.4l-0.4-0.4l-0.4-0.4
	l-0.5-0.4l-0.5-0.4l-0.5-0.4l-0.6-0.4l-0.6-0.3l-0.6-0.4l-0.6-0.3l-0.7-0.3L365,325l-0.8-0.3l-8.5-3.7l-0.8-0.4l-0.8-0.4l-0.7-0.4
	l-0.6-0.4l-0.5-0.4l-0.5-0.4l-0.4-0.4l-0.3-0.4l-0.3-0.5l-0.2-0.5l-0.2-0.5l-0.2-0.5l-0.1-0.5l-0.1-0.6l0-0.6v-0.6V313l0.1-0.6
	l0.1-0.6l0.1-0.6l0.2-0.6l0.2-0.5l0.3-0.5l0.3-0.4l0.4-0.4l0.5-0.4l0.3-0.2l0.3-0.2l0.3-0.2l0.3-0.1l0.3-0.1l0.3-0.1l0.3-0.1
	l0.4-0.1l0.4-0.1l0.4,0l0.4,0h0.5l0.8,0l0.7,0.1l0.3,0.1l0.3,0.1l0.3,0.1l0.3,0.1l0.3,0.2l0.3,0.2l0.3,0.1l0.2,0.2l0.2,0.2l0.2,0.2
	l0.2,0.2l0.2,0.3l0.3,0.6l0.3,0.6l0.3,0.7l0.2,0.7l0.2,0.8l0.1,0.8l0,0.9l0,0.9h10.6v-1.5v-1l-0.1-0.9l-0.1-0.9l-0.2-0.8l-0.2-0.8
	l-0.2-0.8l-0.3-0.8l-0.3-0.8l-0.3-0.7l-0.4-0.6l-0.4-0.6l-0.4-0.6l-0.4-0.6l-0.5-0.5l-0.5-0.5l-0.6-0.4l-0.6-0.5l-0.6-0.4l-0.6-0.4
	l-0.7-0.3l-0.7-0.3l-0.7-0.3l-0.8-0.3l-0.8-0.2l-0.8-0.2l-0.8-0.1l-0.8-0.2l-0.8-0.1l-0.9-0.1l-0.9,0l-0.9,0L356,299.1z M356,347.8
	h0.6l0.6,0l0.6-0.1l0.6-0.1l0.6-0.2l0.6-0.2l0.6-0.3l0.5-0.3l0.5-0.4l0.4-0.4l0.4-0.5l0.3-0.6l0.3-0.6l0.1-0.3l0.1-0.3l0.1-0.3
	l0.1-0.4l0-0.4l0-0.4l0-0.4V341v-0.9l-0.1-0.8l-0.1-0.4l-0.1-0.4l-0.1-0.3l-0.1-0.4l-0.1-0.3l-0.2-0.3l-0.2-0.3l-0.2-0.3l-0.2-0.3
	l-0.2-0.3l-0.3-0.3l-0.3-0.3l-0.6-0.5l-0.7-0.5l-0.8-0.5l-0.9-0.4l-1-0.4l-1.1-0.5l-1.2-0.4l-1.3-0.5l-1.8-0.6l-1.6-0.6l-0.8-0.4
	l-0.8-0.3l-0.7-0.3l-0.7-0.4l-0.7-0.4l-0.6-0.4l-0.6-0.4l-0.6-0.4l-0.6-0.4l-0.5-0.5L343,326l-0.5-0.5l-0.4-0.5l-0.4-0.5l-0.3-0.5
	l-0.4-0.5l-0.3-0.6l-0.3-0.6l-0.2-0.6l-0.3-0.6l-0.2-0.7l-0.2-0.7l-0.2-0.7l-0.1-0.7l-0.1-0.7l-0.1-0.8l0-0.8l0-0.8l0-1l0-1l0.1-0.9
	l0.1-0.9l0.2-0.9l0.2-0.8l0.3-0.8l0.3-0.8l0.3-0.7l0.3-0.7l0.4-0.7l0.4-0.6l0.4-0.6l0.4-0.6l0.5-0.6l0.5-0.5l0.6-0.5l0.6-0.4
	l0.6-0.4l0.6-0.4l0.7-0.3l0.7-0.3l0.8-0.3l0.8-0.3l0.8-0.3l0.8-0.2l0.9-0.2l0.9-0.2l0.9-0.1l0.9-0.1l0.9,0l1,0l0.9,0l0.9,0l0.9,0
	l0.9,0.1l0.8,0.1l0.8,0.1l0.8,0.2l0.8,0.2l0.8,0.2l0.7,0.3l0.7,0.3l0.7,0.3l0.7,0.3l0.6,0.4l0.6,0.4l0.6,0.4l0.6,0.4l0.5,0.5
	l0.5,0.5l0.4,0.6l0.5,0.6l0.4,0.6l0.4,0.6l0.3,0.7l0.3,0.8l0.3,0.7l0.2,0.8l0.2,0.8l0.2,0.8l0.1,0.9l0.1,0.9v1v1.5h-10.5l0-0.9
	l0-0.9l-0.1-0.8l-0.2-0.8l-0.2-0.7l-0.3-0.7l-0.3-0.6l-0.3-0.6l-0.2-0.3l-0.2-0.2l-0.2-0.2l-0.2-0.2l-0.2-0.2l-0.3-0.2l-0.3-0.2
	l-0.3-0.1l-0.3-0.2l-0.3-0.1l-0.3-0.1l-0.3-0.1l-0.7-0.1l-0.8,0h-0.5l-0.4,0l-0.4,0l-0.4,0.1l-0.4,0.1l-0.3,0.1l-0.3,0.1l-0.3,0.2
	l-0.3,0.1l-0.3,0.1l-0.3,0.2l-0.3,0.2l-0.5,0.4l-0.4,0.4l-0.3,0.4l-0.3,0.5l-0.2,0.5l-0.2,0.6l-0.1,0.6l-0.1,0.6l-0.1,0.6v0.6v0.6
	l0,0.6l0.1,0.6l0.1,0.5l0.2,0.5l0.2,0.5l0.2,0.5l0.3,0.4l0.3,0.4l0.4,0.4l0.5,0.4l0.5,0.4l0.6,0.4l0.7,0.4l0.7,0.4l0.8,0.4l8.5,3.7
	l0.8,0.3l0.8,0.4l0.7,0.3l0.6,0.3l0.6,0.4l0.6,0.3l0.6,0.4l0.5,0.4l0.5,0.4l0.4,0.4l0.4,0.4l0.4,0.4l0.4,0.4l0.4,0.4l0.3,0.4
	l0.3,0.4l0.3,0.4l0.3,0.4l0.3,0.5l0.2,0.5l0.2,0.4l0.1,0.5l0.2,0.5l0.2,0.5l0.2,1l0.2,1.1l0.1,1.2l0,1.2v1l-0.1,1l-0.1,1l-0.1,1
	l-0.2,0.9l-0.2,0.9l-0.3,0.8l-0.3,0.8l-0.3,0.8l-0.4,0.7l-0.4,0.7l-0.4,0.7l-0.5,0.6l-0.5,0.6l-0.6,0.6l-0.6,0.5l-0.6,0.5l-0.6,0.4
	l-0.7,0.4l-0.7,0.4l-0.8,0.4l-0.8,0.3l-0.8,0.3l-0.9,0.3l-0.9,0.2l-0.9,0.2l-0.9,0.1l-1,0.2l-1,0.1l-1.1,0.1l-1,0l-1.1,0l-1.2,0
	l-1.1,0l-1-0.1l-1.1-0.1l-1-0.2l-0.9-0.2l-0.9-0.2l-0.9-0.3l-0.8-0.3l-0.8-0.3l-0.8-0.3l-0.7-0.4L344,353l-0.6-0.4l-0.6-0.5
	l-0.5-0.5l-0.5-0.5l-0.5-0.6l-0.4-0.6l-0.4-0.6l-0.4-0.6l-0.3-0.7l-0.3-0.7l-0.3-0.7l-0.2-0.8l-0.2-0.8l-0.2-0.8l-0.2-0.8l-0.1-0.9
	l0-0.9l-0.1-0.9v-0.9v-2.2h11v1.6l0,0.9l0,0.9l0.1,0.8l0.2,0.8l0.2,0.8l0.3,0.7l0.2,0.3l0.2,0.3l0.2,0.3l0.2,0.3l0.2,0.3l0.2,0.3
	l0.3,0.2l0.3,0.2l0.3,0.2l0.3,0.2l0.3,0.2l0.4,0.2l0.3,0.2l0.4,0.1l0.4,0.1l0.4,0.1l0.5,0.1l0.5,0L356,347.8z"/>
<path class="st0" d="M388.9,354.8v-54.6h18.5h0.8l0.8,0l0.8,0l0.8,0.1l0.8,0.1l0.8,0.1l0.8,0.2l0.7,0.2l0.7,0.2l0.7,0.2l0.7,0.3
	l0.6,0.3l0.6,0.3l0.6,0.3l0.6,0.4l0.5,0.4l0.5,0.4l0.5,0.4l0.5,0.5l0.4,0.5l0.4,0.6l0.3,0.6l0.3,0.6l0.3,0.6l0.3,0.7l0.2,0.7
	l0.2,0.8l0.2,0.8l0.1,0.8l0.1,0.9l0.1,0.9v1l0,1.1l-0.1,1l-0.2,1l-0.2,1l-0.1,0.4l-0.2,0.5l-0.2,0.5l-0.2,0.4l-0.2,0.4l-0.2,0.4
	l-0.2,0.4l-0.3,0.4l-0.3,0.4l-0.3,0.4l-0.3,0.4l-0.3,0.3l-0.3,0.3l-0.3,0.3l-0.4,0.3l-0.4,0.3l-0.4,0.3l-0.4,0.3L417,325l-0.5,0.2
	l-0.4,0.2l-0.4,0.2l-0.5,0.2l-0.5,0.2v0.1l0.6,0.1l0.6,0.1l0.5,0.1l0.5,0.2l0.5,0.2l0.5,0.2l0.5,0.2l0.4,0.2l0.4,0.3l0.5,0.3
	l0.4,0.3l0.4,0.3l0.4,0.3l0.3,0.4l0.4,0.4l0.3,0.4l0.3,0.4l0.3,0.4l0.3,0.4l0.3,0.5l0.2,0.5l0.2,0.5l0.2,0.5l0.2,0.6l0.2,0.6
	l0.1,0.6l0.2,0.6l0.1,0.6l0.1,0.6l0.1,0.6l0,0.7v0.7v0.8l0,0.8l-0.1,0.8l-0.1,0.8l-0.2,0.8l-0.2,0.7l-0.1,0.8l-0.2,0.7l-0.2,0.7
	l-0.3,0.7l-0.3,0.7l-0.3,0.6l-0.4,0.6l-0.4,0.6l-0.4,0.6l-0.5,0.6l-0.5,0.5l-0.6,0.5l-0.6,0.5l-0.6,0.4l-0.7,0.4l-0.7,0.4l-0.8,0.4
	l-0.8,0.3l-0.8,0.3l-0.9,0.3l-0.9,0.2l-1,0.2l-1,0.2l-1.1,0.1l-1.1,0l-1.2,0H388.9z M399.9,346.7h4.3h1l0.9-0.1l0.9-0.1l0.9-0.2
	l0.4-0.1l0.4-0.1l0.4-0.2l0.3-0.2l0.3-0.2l0.3-0.2l0.3-0.2l0.3-0.3l0.3-0.2l0.3-0.3l0.3-0.3l0.2-0.3l0.2-0.3l0.2-0.3l0.2-0.4
	l0.2-0.4l0.1-0.4l0.1-0.4l0.1-0.5l0.1-0.5l0.1-0.5l0-0.5l0-0.6v-0.6v-0.6l0-0.6l0-0.5l-0.1-0.5l-0.1-0.5l-0.1-0.5l-0.2-0.4l-0.1-0.4
	l-0.2-0.4l-0.2-0.4l-0.2-0.3l-0.2-0.3l-0.2-0.3l-0.3-0.3l-0.3-0.3l-0.3-0.3l-0.3-0.2l-0.3-0.2l-0.3-0.2l-0.3-0.2l-0.7-0.3l-0.8-0.2
	l-0.8-0.2l-0.8-0.1l-0.9-0.1h-0.9h-4.7V346.7z M399.9,322.6h3.1h1.1l1-0.1l0.9-0.2l0.9-0.2l0.4-0.1l0.4-0.1l0.4-0.1l0.3-0.2l0.3-0.2
	l0.3-0.2l0.3-0.2l0.3-0.2l0.3-0.2l0.2-0.2l0.2-0.3l0.2-0.3l0.2-0.3l0.2-0.3l0.2-0.3l0.2-0.3l0.1-0.4l0.1-0.4l0.1-0.4l0.1-0.4
	l0.1-0.8l0-0.9l0-0.9l-0.1-0.9l-0.1-0.4l-0.1-0.4l-0.1-0.4l-0.1-0.3l-0.2-0.3l-0.1-0.3l-0.2-0.3l-0.2-0.3l-0.2-0.3l-0.2-0.3
	l-0.2-0.2l-0.2-0.2l-0.3-0.2l-0.3-0.2l-0.3-0.2l-0.3-0.1l-0.6-0.3l-0.7-0.2l-0.8-0.2l-0.9-0.1l-0.9-0.1h-1h-4V322.6z"/>
<path class="st1" d="M408.2,300.1h-0.8h-18.5v0h0h0v54.6h18.7l1.2,0l1.1,0l1.1-0.1l1-0.2l1-0.2l0.9-0.2l0.9-0.3l0.8-0.3l0.8-0.3
	l0.8-0.4l0.7-0.4l0.7-0.4l0.6-0.4l0.6-0.5l0.6-0.5l0.5-0.5l0.5-0.6l0.5-0.6l0.4-0.6l0.4-0.6l0.3-0.6l0.3-0.7l0.3-0.7l0.2-0.7
	l0.2-0.7l0.2-0.7l0.2-0.8l0.2-0.8l0.1-0.8l0.1-0.8l0-0.8v-0.8v-0.7l0-0.7l-0.1-0.6l-0.1-0.6l-0.1-0.6l-0.2-0.6l-0.1-0.6l-0.2-0.6
	l-0.2-0.6l-0.2-0.5l-0.2-0.5l-0.2-0.5l-0.3-0.5l-0.3-0.4l-0.3-0.4l-0.3-0.4l-0.3-0.4l-0.4-0.4l-0.3-0.4l-0.4-0.3l-0.4-0.3l-0.4-0.3
	l-0.5-0.3l-0.4-0.3l-0.4-0.2l-0.5-0.2l-0.5-0.2l-0.5-0.2l-0.5-0.2l-0.5-0.1l-0.6-0.1l-0.5-0.1V326l0.5-0.2l0.5-0.1l0.5-0.2l0.4-0.2
	l0.4-0.2l0.5-0.2l0.4-0.3l0.4-0.3l0.4-0.3l0.4-0.3l0.3-0.3l0.3-0.3l0.3-0.3l0.3-0.4l0.3-0.4l0.3-0.4l0.3-0.4l0.2-0.4l0.2-0.4
	l0.2-0.4l0.2-0.4l0.2-0.4l0.2-0.5l0.1-0.4l0.2-1l0.2-1l0.1-1.1l0-1.1v-1l-0.1-0.9l-0.1-0.9l-0.1-0.8l-0.2-0.8l-0.2-0.8l-0.2-0.7
	l-0.3-0.7l-0.3-0.6l-0.3-0.6l-0.3-0.6l-0.4-0.6l-0.4-0.5l-0.5-0.5l-0.5-0.4l-0.5-0.4l-0.5-0.4l-0.6-0.4l-0.6-0.3l-0.6-0.3l-0.6-0.3
	l-0.7-0.3l-0.7-0.2l-0.7-0.2l-0.7-0.2l-0.8-0.2l-0.7-0.1l-0.8-0.1l-0.8-0.1l-0.8,0L408.2,300.1z M388.9,354.8v-54.6h18.5h0.8l0.8,0
	l0.8,0l0.8,0.1l0.8,0.1l0.8,0.1l0.8,0.2l0.7,0.2l0.7,0.2l0.7,0.2l0.7,0.3l0.6,0.3l0.6,0.3l0.6,0.3l0.6,0.4l0.5,0.4l0.5,0.4l0.5,0.5
	l0.5,0.5l0.4,0.5l0.4,0.6l0.3,0.6l0.3,0.6l0.3,0.6l0.3,0.7l0.2,0.7l0.2,0.8l0.2,0.8l0.1,0.8l0.1,0.9l0.1,0.9v1l0,1.1l-0.1,1l-0.2,1
	l-0.2,1l-0.1,0.4l-0.2,0.5l-0.2,0.4l-0.2,0.4l-0.2,0.4l-0.2,0.4l-0.2,0.4l-0.3,0.4l-0.3,0.4l-0.3,0.4l-0.3,0.4l-0.3,0.3l-0.3,0.3
	l-0.3,0.3l-0.4,0.3l-0.4,0.3l-0.4,0.3l-0.4,0.3L417,325l-0.5,0.2l-0.4,0.2l-0.4,0.2l-0.5,0.2l-0.5,0.1v0.2l0.6,0.1l0.6,0.1l0.5,0.1
	l0.5,0.2l0.5,0.2l0.5,0.2l0.5,0.2l0.4,0.2l0.4,0.3l0.5,0.3l0.4,0.3l0.4,0.3l0.4,0.3l0.3,0.4l0.4,0.4l0.3,0.4l0.3,0.4l0.3,0.4
	l0.3,0.5l0.3,0.5l0.2,0.5l0.2,0.5l0.2,0.5l0.2,0.6l0.2,0.6l0.1,0.6l0.2,0.6l0.1,0.6l0.1,0.6l0.1,0.6l0,0.7v0.7v0.8l0,0.8l-0.1,0.8
	l-0.1,0.8l-0.2,0.8l-0.2,0.7l-0.1,0.8l-0.2,0.7l-0.2,0.7l-0.3,0.7l-0.3,0.7l-0.3,0.6l-0.4,0.6l-0.4,0.6l-0.4,0.6l-0.5,0.6l-0.5,0.5
	l-0.6,0.5l-0.6,0.5l-0.6,0.4l-0.7,0.4l-0.7,0.4l-0.8,0.4l-0.8,0.3l-0.8,0.3l-0.9,0.3l-0.9,0.2l-1,0.2l-1,0.2l-1.1,0.1l-1.1,0l-1.2,0
	H388.9z M404.9,308.3h-1h-4v14.3h3.1h1.1l1-0.1l0.9-0.2l0.9-0.2l0.4-0.1l0.4-0.1l0.4-0.1l0.3-0.2l0.3-0.2l0.3-0.2l0.3-0.2l0.3-0.2
	l0.3-0.2l0.2-0.2l0.2-0.3l0.2-0.3l0.2-0.3l0.2-0.3l0.2-0.3l0.2-0.3l0.1-0.4l0.1-0.4l0.1-0.4l0.1-0.4l0.1-0.8l0-0.9l0-0.9l-0.1-0.9
	l-0.1-0.4l-0.1-0.4l-0.1-0.4l-0.1-0.3l-0.2-0.3l-0.1-0.3l-0.2-0.3l-0.2-0.3l-0.2-0.3l-0.2-0.3l-0.2-0.2l-0.2-0.2l-0.3-0.2l-0.3-0.2
	l-0.3-0.2l-0.3-0.2l-0.6-0.3l-0.7-0.2l-0.8-0.2l-0.9-0.1L404.9,308.3z M400,322.6v-14.3l4,0h1l0.9,0.1l0.9,0.1l0.8,0.2l0.7,0.2
	l0.6,0.3l0.3,0.2l0.3,0.2l0.3,0.2l0.3,0.2l0.2,0.2l0.2,0.2l0.2,0.3l0.2,0.3l0.1,0.3l0.2,0.3l0.1,0.3l0.2,0.3l0.1,0.3l0.1,0.4
	l0.1,0.4l0.1,0.4l0.1,0.9l0,0.9l0,0.9l-0.1,0.8l-0.1,0.4l-0.1,0.4l-0.1,0.4l-0.1,0.4l-0.2,0.3l-0.2,0.3l-0.2,0.3l-0.2,0.3l-0.2,0.3
	l-0.2,0.3l-0.2,0.2l-0.3,0.2l-0.3,0.2l-0.3,0.2l-0.3,0.2l-0.3,0.2l-0.3,0.2l-0.4,0.1l-0.4,0.1l-0.4,0.1l-0.9,0.2l-0.9,0.2l-1,0.1
	h-1.1H400z M399.9,322.6L399.9,322.6L399.9,322.6L399.9,322.6z M405.6,330.2h-0.9h-4.7v16.4h4.3h1l0.9-0.1l0.9-0.1l0.9-0.2l0.4-0.1
	l0.4-0.2l0.4-0.1l0.3-0.2l0.3-0.2l0.3-0.2l0.3-0.2l0.3-0.3l0.3-0.2l0.3-0.3l0.3-0.3l0.2-0.3l0.2-0.3l0.2-0.3l0.2-0.4l0.2-0.4
	l0.1-0.4l0.1-0.4l0.1-0.5l0.1-0.5l0.1-0.5l0-0.5l0-0.6v-0.6v-0.6l0-0.6l0-0.5l-0.1-0.5l-0.1-0.5l-0.1-0.4l-0.2-0.4l-0.1-0.4
	l-0.2-0.4l-0.2-0.4l-0.2-0.3l-0.2-0.3l-0.2-0.3l-0.3-0.3l-0.3-0.3l-0.3-0.3l-0.3-0.2l-0.3-0.2l-0.3-0.2l-0.3-0.2l-0.7-0.3l-0.8-0.2
	l-0.8-0.2l-0.8-0.1L405.6,330.2z M400,346.6v-16.4h4.7h0.9l0.9,0.1l0.8,0.1l0.8,0.2l0.7,0.2l0.7,0.3l0.3,0.2l0.3,0.2l0.3,0.2
	l0.3,0.2l0.3,0.3l0.3,0.3l0.3,0.3l0.2,0.3l0.2,0.3l0.2,0.3l0.2,0.4l0.2,0.4l0.2,0.4l0.2,0.4l0.1,0.4l0.1,0.5l0.1,0.5l0,0.5l0,0.6
	v0.6v0.6l0,0.6l0,0.5l-0.1,0.5l-0.1,0.4l-0.1,0.5l-0.1,0.4l-0.2,0.4l-0.2,0.4l-0.2,0.4l-0.2,0.3l-0.2,0.3l-0.2,0.3l-0.3,0.3
	l-0.3,0.3l-0.3,0.2l-0.3,0.3l-0.3,0.2l-0.3,0.2l-0.3,0.2l-0.3,0.2l-0.4,0.2l-0.4,0.1l-0.4,0.1l-0.9,0.2l-0.9,0.1l-0.9,0.1h-1H400z
	 M399.9,346.7L399.9,346.7L399.9,346.7L399.9,346.7z"/>
<path class="st0" d="M408.2,300.2h-0.8h-18.5v54.6h18.6l1.2,0l1.1,0l1.1-0.1l1-0.2l1-0.2l0.9-0.2l0.9-0.3l0.8-0.3l0.8-0.3l0.8-0.4
	l0.7-0.4l0.7-0.4l0.6-0.4l0.6-0.5l0.6-0.5l0.5-0.5l0.5-0.6l0.4-0.6l0.4-0.6l0.4-0.6l0.3-0.6l0.3-0.7l0.3-0.7l0.2-0.7l0.2-0.7
	l0.1-0.8l0.2-0.7l0.2-0.8l0.1-0.8l0.1-0.8l0-0.8v-0.8v-0.7l0-0.7l-0.1-0.6l-0.1-0.6l-0.1-0.6l-0.2-0.6l-0.1-0.6l-0.2-0.6l-0.2-0.6
	l-0.2-0.5l-0.2-0.5l-0.2-0.5l-0.3-0.5l-0.3-0.5l-0.3-0.4l-0.3-0.4l-0.3-0.4l-0.4-0.4l-0.3-0.4l-0.4-0.3l-0.4-0.3l-0.4-0.3l-0.5-0.3
	l-0.4-0.3l-0.4-0.2l-0.5-0.2l-0.5-0.2l-0.5-0.2l-0.5-0.2l-0.5-0.1l-0.6-0.1l-0.6-0.1v-0.2l0.5-0.1l0.5-0.2l0.4-0.2l0.4-0.2l0.5-0.2
	l0.4-0.2l0.4-0.3l0.4-0.3l0.4-0.3l0.4-0.3l0.3-0.3l0.3-0.3l0.3-0.3l0.3-0.4l0.3-0.4l0.3-0.4l0.3-0.4l0.2-0.4l0.2-0.4l0.2-0.4
	l0.2-0.4l0.2-0.4l0.2-0.5l0.1-0.4l0.2-1l0.2-1l0.1-1l0-1.1v-1l-0.1-0.9l-0.1-0.9l-0.1-0.8l-0.2-0.8l-0.2-0.8l-0.2-0.7l-0.3-0.7
	l-0.3-0.6l-0.3-0.6l-0.3-0.6l-0.4-0.6l-0.4-0.5l-0.5-0.5l-0.5-0.5l-0.5-0.4l-0.5-0.4l-0.6-0.4l-0.6-0.3l-0.6-0.3l-0.6-0.3l-0.7-0.3
	l-0.7-0.2l-0.7-0.2l-0.7-0.2l-0.8-0.2l-0.8-0.1l-0.8-0.1l-0.8-0.1l-0.8,0L408.2,300.2z M388.9,300.2h18.5h0.8l0.8,0l0.8,0l0.8,0.1
	l0.8,0.1l0.8,0.1l0.8,0.2l0.7,0.1l0.7,0.2l0.7,0.2l0.7,0.3l0.6,0.3l0.6,0.3l0.6,0.3l0.6,0.4l0.5,0.4l0.5,0.4l0.5,0.4l0.4,0.5
	l0.4,0.5l0.4,0.6l0.3,0.6l0.3,0.6l0.3,0.6l0.3,0.7l0.2,0.7l0.2,0.8l0.2,0.8l0.1,0.8l0.1,0.9l0.1,0.9v1l0,1.1l-0.1,1l-0.2,1l-0.2,1
	l-0.2,0.4l-0.2,0.5l-0.1,0.4l-0.2,0.4l-0.2,0.4l-0.2,0.4l-0.2,0.4l-0.3,0.4l-0.3,0.4l-0.3,0.4l-0.3,0.4l-0.3,0.3l-0.3,0.3l-0.3,0.3
	l-0.4,0.3l-0.4,0.3l-0.4,0.3l-0.4,0.3L417,325l-0.5,0.2l-0.4,0.2l-0.4,0.2l-0.5,0.2l-0.5,0.2h0v0.2v0l0.6,0.1l0.6,0.1l0.5,0.1
	l0.5,0.2l0.5,0.2l0.5,0.2l0.5,0.2l0.4,0.2l0.4,0.3l0.5,0.3l0.4,0.3l0.4,0.3l0.4,0.3l0.3,0.4l0.4,0.4l0.3,0.4l0.3,0.4l0.3,0.4
	l0.3,0.4l0.3,0.5l0.2,0.5l0.2,0.5l0.2,0.5l0.2,0.6l0.2,0.6l0.1,0.6l0.2,0.6l0.1,0.6l0.1,0.6l0.1,0.6l0,0.7v0.7v0.8l0,0.8l-0.1,0.8
	l-0.1,0.8l-0.2,0.7l-0.2,0.8l-0.1,0.8l-0.2,0.7l-0.2,0.7l-0.3,0.7l-0.3,0.7l-0.3,0.6l-0.4,0.6l-0.4,0.6l-0.4,0.6l-0.5,0.6l-0.5,0.5
	l-0.6,0.5l-0.6,0.5l-0.6,0.4l-0.7,0.4l-0.7,0.4l-0.8,0.4l-0.8,0.3l-0.8,0.3l-0.9,0.3l-0.9,0.2l-1,0.2l-1,0.1l-1.1,0.1l-1.1,0l-1.2,0
	h-18.6V300.2z M404.9,308.3h-1h-4h0v14.3h0h3.1h1.1l1-0.1l0.9-0.2l0.9-0.2l0.4-0.1l0.4-0.1l0.4-0.2l0.3-0.2l0.3-0.1l0.3-0.2l0.3-0.2
	l0.3-0.2l0.3-0.2l0.2-0.2l0.2-0.3l0.2-0.3l0.2-0.3l0.2-0.3l0.2-0.3l0.1-0.3l0.1-0.4l0.1-0.4l0.1-0.4l0.1-0.4l0.1-0.8l0-0.9l0-0.9
	l-0.1-0.9l-0.1-0.4l-0.1-0.4l-0.1-0.4l-0.1-0.3l-0.2-0.3l-0.1-0.3l-0.2-0.3l-0.1-0.3l-0.2-0.3l-0.2-0.3l-0.2-0.2l-0.2-0.2l-0.3-0.2
	l-0.3-0.2l-0.3-0.2l-0.3-0.1l-0.6-0.3l-0.7-0.2l-0.8-0.2l-0.9-0.1L404.9,308.3z M399.9,322.6v-14.3h4h1l0.9,0.1l0.9,0.1l0.8,0.2
	l0.7,0.2l0.6,0.3l0.3,0.2l0.3,0.2l0.3,0.2l0.3,0.2l0.2,0.2l0.2,0.2l0.2,0.3l0.2,0.3l0.2,0.3l0.2,0.3l0.1,0.3l0.2,0.3l0.1,0.3
	l0.1,0.4l0.1,0.4l0.1,0.4l0.1,0.9l0,0.9l0,0.9l-0.1,0.8l-0.1,0.4l-0.1,0.4l-0.1,0.4l-0.1,0.4l-0.2,0.3l-0.2,0.3l-0.2,0.3l-0.2,0.3
	l-0.2,0.3l-0.2,0.3l-0.2,0.2l-0.3,0.2l-0.3,0.2l-0.3,0.2l-0.3,0.2l-0.3,0.2l-0.3,0.2l-0.4,0.1l-0.4,0.1l-0.4,0.1l-0.9,0.2l-0.9,0.2
	l-1,0.1h-1.1H399.9z M405.6,330.2h-0.9h-4.7v16.5h0h4.3h1l0.9-0.1l0.9-0.1l0.9-0.2l0.4-0.1l0.4-0.2l0.4-0.2l0.3-0.1l0.3-0.2l0.3-0.2
	l0.3-0.2l0.3-0.3l0.3-0.2l0.3-0.3l0.3-0.3l0.2-0.3l0.2-0.3l0.2-0.3l0.2-0.4l0.2-0.4l0.2-0.4l0.1-0.4l0.1-0.5l0.1-0.4l0.1-0.5l0-0.5
	l0-0.6v-0.6v-0.6l0-0.6l0-0.5l-0.1-0.5l-0.1-0.5l-0.1-0.4l-0.2-0.4l-0.2-0.4l-0.2-0.4l-0.2-0.4l-0.2-0.3l-0.2-0.3l-0.2-0.3l-0.3-0.3
	l-0.3-0.3l-0.3-0.3l-0.3-0.2l-0.3-0.2l-0.3-0.2l-0.3-0.2l-0.7-0.3l-0.7-0.2l-0.8-0.2l-0.8-0.1L405.6,330.2z M399.9,346.7v-16.4h4.7
	h0.9l0.9,0.1l0.8,0.1l0.8,0.2l0.8,0.2l0.7,0.3l0.3,0.2l0.3,0.2l0.3,0.2l0.3,0.2l0.3,0.3l0.3,0.3l0.3,0.3l0.2,0.3l0.2,0.3l0.2,0.3
	l0.2,0.4l0.2,0.4l0.1,0.4l0.2,0.4l0.1,0.4l0.1,0.5l0.1,0.5l0,0.5l0,0.6v0.6v0.6l0,0.6l0,0.5l-0.1,0.5l-0.1,0.5l-0.1,0.5l-0.1,0.4
	l-0.1,0.4l-0.2,0.4l-0.2,0.4l-0.2,0.3l-0.2,0.3l-0.2,0.3l-0.3,0.3l-0.3,0.3l-0.3,0.2l-0.3,0.3l-0.3,0.2l-0.3,0.2l-0.3,0.2l-0.3,0.2
	l-0.4,0.1l-0.4,0.2l-0.4,0.1l-0.9,0.2l-0.9,0.1l-0.9,0.1h-1H399.9z"/>
<polygon class="st0" points="430,354.8 430,300.2 460.6,300.2 460.6,309.2 441,309.2 441,322.1 457.9,322.1 457.9,331.1 441,331.1 
	441,345.8 461.3,345.8 461.3,354.8 "/>
<path class="st1" d="M460.6,300.2L460.6,300.2H430v54.6h31.4v-9.1h-20.3v-14.7h16.9v-9h-16.9v-12.8h19.5V300.2z M460.6,300.2
	L460.6,300.2L460.6,300.2z M430,354.8v-54.6h30.6v9H441v12.9h16.9v9H441v14.7h20.3v9H430z"/>
<path class="st0" d="M460.6,300.2H430v54.6h31.4v-9H441v-14.7h16.9v-9H441v-12.9h19.5V300.2z M430,354.8v-54.6h30.6v9H441v12.9h16.9
	v9H441v14.7h20.3v9H430z"/>
<path class="st0" d="M490.8,354.8l0-0.2l0-0.4l0-0.6l-0.1-0.8l-0.1-0.9l-0.1-1l-0.1-1l0-1l0-1.2l0-1.5l0-1.8l-0.1-1.8l0-1.6l0-1.4
	l0-0.9v-0.3l0-0.8l-0.1-0.7l-0.1-0.7l-0.2-0.7l-0.2-0.6l-0.3-0.6l-0.3-0.5l-0.4-0.5l-0.4-0.4l-0.5-0.4l-0.5-0.3l-0.6-0.3l-0.6-0.2
	l-0.7-0.2l-0.8-0.1l-0.8,0h-5.9v23.1h-11.1v-54.6H487h0.9l0.8,0l0.8,0.1l0.7,0.1l0.8,0.1l0.8,0.2l0.7,0.2l0.7,0.2l0.6,0.2l0.6,0.3
	l0.6,0.3l0.6,0.3l0.6,0.3l0.5,0.4l0.5,0.4l0.5,0.4l0.5,0.4l0.4,0.5l0.4,0.5l0.4,0.6l0.4,0.6l0.3,0.6l0.3,0.6l0.3,0.6l0.2,0.7
	l0.2,0.7l0.2,0.7l0.2,0.8l0.1,0.8l0.1,0.8l0,0.8l0,0.9l0,1.4l-0.1,1.3l-0.1,0.6l-0.1,0.6l-0.1,0.6l-0.1,0.6l-0.2,0.5l-0.1,0.6
	l-0.2,0.5l-0.2,0.5l-0.2,0.5l-0.2,0.5l-0.3,0.4l-0.3,0.4l-0.3,0.4l-0.3,0.4l-0.3,0.4l-0.3,0.4l-0.4,0.3l-0.4,0.3l-0.4,0.3l-0.4,0.3
	l-0.4,0.3l-0.5,0.3l-0.4,0.2l-0.5,0.2l-0.5,0.2l-0.6,0.1l-0.5,0.2l-0.6,0.2v0.2l0.7,0.1l0.6,0.1l0.6,0.2l0.6,0.1l0.5,0.2l0.5,0.2
	l0.5,0.2l0.4,0.3l0.4,0.3l0.4,0.3l0.4,0.3l0.3,0.3l0.3,0.4l0.3,0.4l0.3,0.5l0.3,0.4l0.2,0.5l0.2,0.5l0.2,0.6l0.1,0.6l0.2,0.6
	l0.2,0.7l0.1,0.7l0.1,0.8l0.2,1.6l0.1,1.8l0.1,1.9l0.1,2.1l0,2.1l0.1,1.9l0.2,1.8l0.1,1.5l0.1,1.3l0.1,0.9l0.1,0.6l0,0.2H490.8z
	 M477.6,324h4.6l1,0l0.9-0.1l0.9-0.2l0.8-0.2l0.4-0.1l0.4-0.2l0.3-0.2l0.3-0.2l0.3-0.2l0.3-0.2l0.3-0.2l0.3-0.2l0.2-0.3l0.3-0.3
	l0.2-0.3l0.2-0.3l0.2-0.3l0.2-0.3l0.2-0.4l0.1-0.4l0.1-0.4l0.1-0.4l0.1-0.4l0.1-0.4l0.1-1l0-1.1l0-0.9l-0.1-0.9l-0.2-0.8l-0.2-0.7
	l-0.2-0.4l-0.2-0.3l-0.1-0.3l-0.2-0.3l-0.2-0.3l-0.2-0.3l-0.2-0.3l-0.2-0.3l-0.3-0.2l-0.3-0.2l-0.3-0.2l-0.3-0.2l-0.3-0.1l-0.3-0.2
	l-0.3-0.1l-0.3-0.2l-0.7-0.2l-0.8-0.2l-0.9-0.1h-0.9h-5.2V324z"/>
<path class="st1" d="M487.8,300.2H487h-20.4v0h0h0v54.6h11.1v-23.1h5.9l0.8,0l0.8,0.1l0.7,0.2l0.6,0.2l0.6,0.3l0.5,0.3l0.5,0.4
	l0.4,0.4l0.4,0.5l0.3,0.5l0.3,0.6l0.2,0.6l0.2,0.7l0.1,0.7l0.1,0.7l0,0.8v0.3l0,0.9l0,1.4l0,1.6l0.1,1.8l0,1.7l0,1.5l0,1.2l0,1
	l0.1,1l0.1,1l0.1,0.9l0.1,0.8l0,0.6l0,0.4l0,0.2v0H502l0-0.2l-0.1-0.6l-0.1-0.9l-0.1-1.3l-0.1-1.5l-0.2-1.8l-0.1-1.9l0-2.1l-0.1-2.1
	l-0.1-1.9l-0.1-1.8l-0.2-1.6l-0.1-0.7l-0.1-0.7l-0.2-0.7l-0.2-0.6l-0.2-0.6l-0.2-0.6l-0.2-0.5l-0.2-0.5l-0.3-0.4l-0.3-0.5l-0.3-0.4
	l-0.3-0.4l-0.3-0.3l-0.4-0.3l-0.4-0.3l-0.4-0.3l-0.4-0.3l-0.5-0.2l-0.5-0.2l-0.5-0.2l-0.6-0.2l-0.6-0.2l-0.6-0.1l-0.7-0.1v-0.1
	l0.6-0.2l0.5-0.2l0.6-0.1l0.5-0.2l0.5-0.2l0.4-0.2l0.5-0.3l0.4-0.3l0.4-0.3l0.4-0.3l0.4-0.3l0.4-0.3l0.3-0.4l0.3-0.4l0.3-0.4
	l0.3-0.4l0.3-0.4l0.3-0.4l0.2-0.5l0.2-0.5l0.2-0.5l0.2-0.5l0.2-0.6l0.2-0.5l0.1-0.6l0.1-0.6l0.1-0.6l0.1-0.6l0.1-1.3l0-1.4l0-0.9
	l0-0.8l-0.1-0.8l-0.1-0.8l-0.1-0.7l-0.2-0.7l-0.2-0.7l-0.2-0.7l-0.3-0.6l-0.3-0.6l-0.3-0.6l-0.4-0.6l-0.4-0.6l-0.4-0.5l-0.5-0.5
	l-0.4-0.5l-0.5-0.4l-0.5-0.4l-0.5-0.4l-0.6-0.3l-0.6-0.3l-0.6-0.3l-0.6-0.3l-0.6-0.2l-0.7-0.2l-0.7-0.2l-0.8-0.2l-0.7-0.1l-0.8-0.1
	l-0.8-0.1L487.8,300.2z M466.6,354.8v-54.6H487h0.9l0.8,0l0.8,0.1l0.7,0.1l0.8,0.1l0.8,0.2l0.7,0.2l0.7,0.2l0.6,0.2l0.6,0.3l0.6,0.3
	l0.6,0.3l0.6,0.3l0.5,0.4l0.5,0.4l0.5,0.4l0.5,0.4l0.4,0.5l0.4,0.5l0.4,0.6l0.4,0.6l0.3,0.6l0.3,0.6l0.3,0.6l0.2,0.7l0.2,0.7
	l0.2,0.7l0.2,0.8l0.1,0.8l0.1,0.8l0,0.8l0,0.9l0,1.4l-0.1,1.3l-0.1,0.6l-0.1,0.6l-0.1,0.6l-0.1,0.6l-0.2,0.5l-0.1,0.6l-0.2,0.5
	l-0.2,0.5l-0.2,0.5l-0.2,0.5l-0.3,0.4l-0.3,0.4l-0.3,0.4l-0.3,0.4l-0.3,0.4l-0.3,0.4l-0.4,0.3l-0.4,0.3l-0.4,0.3l-0.4,0.3l-0.4,0.3
	l-0.5,0.3l-0.4,0.2l-0.5,0.2l-0.5,0.2l-0.6,0.1l-0.5,0.2l-0.6,0.2v0.2l0.7,0.1l0.6,0.1l0.6,0.2l0.6,0.1l0.5,0.2l0.5,0.2l0.5,0.2
	l0.4,0.3l0.4,0.3l0.4,0.3l0.4,0.3l0.3,0.3l0.3,0.4l0.3,0.4l0.3,0.5l0.3,0.4l0.2,0.5l0.2,0.5l0.2,0.6l0.1,0.6l0.2,0.6l0.2,0.7
	l0.1,0.7l0.1,0.8l0.2,1.6l0.1,1.8l0.1,1.9l0.1,2.1l0,2.1l0.1,1.9l0.2,1.8l0.1,1.5l0.1,1.3l0.1,0.9l0.1,0.6l0,0.2h-11.2l0-0.2l0-0.4
	l0-0.6l-0.1-0.8l-0.1-0.9l-0.1-1l-0.1-1l0-1l0-1.2l0-1.5l0-1.8l-0.1-1.8l0-1.6l0-1.4l0-0.9v-0.3l0-0.8l-0.1-0.7l-0.1-0.7l-0.2-0.7
	l-0.2-0.6l-0.3-0.6l-0.3-0.5l-0.4-0.5l-0.4-0.4l-0.5-0.4l-0.5-0.3l-0.6-0.3l-0.6-0.2l-0.7-0.2l-0.8-0.1l-0.8,0h-5.9v23.1H466.6z
	 M483.8,308.3h-0.9h-5.2V324h4.6l1,0l0.9-0.1l0.9-0.2l0.8-0.2l0.4-0.1l0.4-0.2l0.3-0.2l0.3-0.2l0.3-0.2l0.3-0.2l0.3-0.2l0.3-0.2
	l0.2-0.3l0.3-0.3l0.2-0.3l0.2-0.3l0.2-0.3l0.2-0.3l0.2-0.4l0.1-0.4l0.1-0.4l0.1-0.4l0.1-0.4l0.1-0.4l0.1-1l0-1.1l0-0.9l-0.1-0.9
	l-0.2-0.8l-0.2-0.7l-0.2-0.4l-0.2-0.3l-0.1-0.3l-0.2-0.3l-0.2-0.3l-0.2-0.3l-0.2-0.3l-0.2-0.3l-0.3-0.2l-0.3-0.2l-0.3-0.2l-0.3-0.2
	l-0.3-0.1l-0.3-0.2l-0.3-0.1l-0.3-0.2l-0.7-0.2l-0.8-0.2L483.8,308.3z M477.7,324v-15.7h5.2h0.9l0.9,0.1l0.8,0.2l0.8,0.2l0.3,0.2
	l0.3,0.1l0.3,0.2l0.3,0.2l0.3,0.2l0.3,0.2l0.3,0.2l0.3,0.2l0.2,0.3l0.2,0.3l0.2,0.3l0.2,0.3l0.2,0.3l0.2,0.3l0.2,0.3l0.1,0.4
	l0.2,0.7l0.2,0.8l0.1,0.9l0,0.9l0,1.1l-0.1,1l-0.1,0.4l-0.1,0.4l-0.1,0.4l-0.1,0.4l-0.1,0.4l-0.2,0.4l-0.2,0.3l-0.2,0.3l-0.2,0.3
	l-0.2,0.3l-0.3,0.3l-0.2,0.3l-0.3,0.2l-0.3,0.2l-0.3,0.2l-0.3,0.2l-0.3,0.2l-0.3,0.1l-0.4,0.2l-0.4,0.1l-0.8,0.2l-0.9,0.2l-0.9,0.1
	l-1,0H477.7z M477.6,324L477.6,324L477.6,324L477.6,324z"/>
<path class="st0" d="M487.8,300.2H487h-20.4v54.6h11.1v-23.1h5.9l0.8,0l0.8,0.1l0.7,0.2l0.6,0.2l0.6,0.3l0.5,0.3l0.5,0.4l0.4,0.4
	l0.4,0.5l0.3,0.5l0.3,0.6l0.2,0.6l0.2,0.7l0.1,0.7l0.1,0.7l0,0.8v0.3l0,0.9l0,1.4l0,1.6l0.1,1.8l0,1.8l0,1.5l0,1.2l0,1l0.1,1l0.1,1
	l0.1,0.9l0.1,0.8l0,0.6l0,0.4l0,0.2H502l0-0.2l-0.1-0.6l-0.1-0.9l-0.1-1.3l-0.1-1.5l-0.2-1.8l-0.1-1.9l0-2.1l-0.1-2.1l-0.1-1.9
	l-0.1-1.8l-0.2-1.6l-0.1-0.8l-0.1-0.7l-0.2-0.7l-0.2-0.6l-0.1-0.6l-0.2-0.6l-0.2-0.5l-0.2-0.5l-0.3-0.4l-0.3-0.5l-0.3-0.4l-0.3-0.4
	l-0.3-0.3l-0.4-0.3l-0.4-0.3l-0.4-0.3l-0.4-0.3l-0.5-0.2l-0.5-0.2l-0.5-0.2l-0.6-0.1l-0.6-0.2l-0.6-0.1l-0.7-0.1v-0.2l0.6-0.2
	l0.5-0.2l0.6-0.1l0.5-0.2l0.5-0.2l0.4-0.2l0.5-0.3l0.4-0.3l0.4-0.3l0.4-0.3l0.4-0.3l0.4-0.3l0.3-0.4l0.3-0.4l0.3-0.4l0.3-0.4
	l0.3-0.4l0.3-0.4l0.2-0.5l0.2-0.5l0.2-0.5l0.2-0.5l0.1-0.6l0.2-0.5l0.1-0.6l0.1-0.6l0.1-0.6l0.1-0.6l0.1-1.3l0-1.4l0-0.9l0-0.8
	l-0.1-0.8l-0.1-0.8l-0.2-0.8l-0.2-0.7l-0.2-0.7l-0.2-0.7l-0.3-0.6l-0.3-0.6l-0.3-0.6l-0.4-0.6l-0.4-0.6l-0.4-0.5l-0.4-0.5l-0.5-0.4
	l-0.5-0.4l-0.5-0.4l-0.5-0.4l-0.6-0.3l-0.6-0.3l-0.6-0.3l-0.6-0.3l-0.6-0.2l-0.7-0.2l-0.7-0.2l-0.8-0.2l-0.8-0.1l-0.7-0.1l-0.8-0.1
	L487.8,300.2z M466.6,300.2H487h0.9l0.8,0l0.8,0.1l0.8,0.1l0.8,0.1l0.8,0.2l0.7,0.2l0.7,0.2l0.6,0.2l0.6,0.3l0.6,0.3l0.6,0.3
	l0.6,0.3l0.5,0.4l0.5,0.4l0.5,0.4l0.5,0.4l0.4,0.5l0.4,0.5l0.4,0.6l0.4,0.6l0.3,0.6l0.3,0.6l0.3,0.6l0.2,0.7l0.2,0.7l0.2,0.7
	l0.2,0.8l0.1,0.8l0.1,0.8l0,0.8l0,0.9l0,1.3l-0.1,1.3l-0.1,0.6l-0.1,0.6l-0.1,0.6l-0.1,0.6l-0.2,0.5l-0.1,0.6l-0.2,0.5l-0.2,0.5
	l-0.2,0.5l-0.2,0.5l-0.3,0.4l-0.3,0.4l-0.3,0.4l-0.3,0.4l-0.3,0.4l-0.3,0.4l-0.4,0.3l-0.4,0.3l-0.4,0.3l-0.4,0.3l-0.4,0.3l-0.5,0.3
	l-0.4,0.2l-0.5,0.2l-0.5,0.2l-0.6,0.2l-0.5,0.2l-0.6,0.1l0,0v0.2v0l0.7,0.1l0.6,0.1l0.6,0.1l0.6,0.2l0.5,0.2l0.5,0.2l0.5,0.2
	l0.4,0.3l0.4,0.3l0.4,0.3l0.4,0.3l0.3,0.3l0.3,0.4l0.3,0.4l0.3,0.4l0.3,0.4l0.2,0.5l0.2,0.5l0.2,0.6l0.1,0.6l0.2,0.6l0.2,0.7
	l0.1,0.7l0.1,0.8l0.2,1.6l0.1,1.8l0.1,1.9l0.1,2.1l0,2.1l0.1,1.9l0.2,1.8l0.1,1.5l0.1,1.3l0.1,0.9l0.1,0.6l0,0.2h-11.1l0-0.1l0-0.4
	l0-0.6l-0.1-0.8l-0.1-0.9l-0.1-1l-0.1-1l0-1l0-1.2l0-1.5l0-1.8l-0.1-1.8l0-1.6l0-1.4l0-0.9v-0.3l0-0.8l-0.1-0.7l-0.1-0.7l-0.2-0.7
	l-0.2-0.6l-0.3-0.6l-0.3-0.5l-0.4-0.5l-0.4-0.4l-0.5-0.4l-0.5-0.3l-0.6-0.3l-0.6-0.2l-0.7-0.2l-0.8-0.1l-0.8,0h-5.9v23.1h-11V300.2z
	 M483.8,308.3h-0.9h-5.2V324h0h4.6l1,0l0.9-0.1l0.9-0.2l0.8-0.2l0.4-0.1l0.4-0.2l0.3-0.2l0.3-0.2l0.3-0.2l0.3-0.2l0.3-0.2l0.3-0.2
	l0.2-0.3l0.3-0.3l0.2-0.3l0.2-0.3l0.2-0.3l0.2-0.3l0.2-0.4l0.1-0.4l0.2-0.4l0.1-0.4l0.1-0.5l0.1-0.4l0.1-1l0-1.1l0-0.9l-0.1-0.9
	l-0.2-0.8l-0.2-0.7l-0.2-0.4l-0.2-0.3l-0.2-0.3l-0.2-0.3l-0.2-0.3l-0.2-0.3l-0.2-0.3l-0.2-0.3l-0.3-0.2l-0.3-0.2l-0.3-0.2l-0.3-0.2
	l-0.3-0.2l-0.3-0.2l-0.3-0.1l-0.3-0.1l-0.8-0.2l-0.8-0.1L483.8,308.3z M477.6,324v-15.7h5.2h0.9l0.9,0.1l0.8,0.2l0.7,0.2l0.3,0.2
	l0.3,0.1l0.3,0.2l0.3,0.1l0.3,0.2l0.3,0.2l0.3,0.2l0.3,0.2l0.2,0.3l0.2,0.3l0.2,0.3l0.2,0.3l0.2,0.3l0.1,0.3l0.2,0.3l0.2,0.4
	l0.2,0.7l0.2,0.8l0.1,0.9l0,0.9l0,1.1l-0.1,1l-0.1,0.4l-0.1,0.4l-0.1,0.4l-0.1,0.4l-0.1,0.4l-0.2,0.4l-0.2,0.3l-0.2,0.3l-0.2,0.3
	l-0.2,0.3l-0.3,0.3l-0.2,0.3l-0.3,0.2l-0.3,0.2l-0.3,0.2l-0.3,0.2l-0.3,0.2l-0.3,0.2l-0.4,0.2l-0.4,0.1l-0.8,0.2l-0.9,0.2l-0.9,0.1
	l-1,0H477.6z"/>
<path class="st0" d="M609.8,354.8v-0.2l-0.1-0.4l0-0.6l-0.1-0.8l-0.1-0.9l-0.1-1l-0.1-1l0-1l0-1.2l0-1.5l0-1.8l-0.1-1.8l0-1.6l0-1.4
	l0-0.9v-0.3l0-0.8l-0.1-0.7l-0.1-0.7l-0.2-0.7l-0.2-0.6l-0.3-0.6l-0.3-0.5l-0.4-0.5l-0.4-0.4l-0.5-0.4l-0.5-0.3l-0.6-0.3l-0.6-0.2
	l-0.7-0.2l-0.8-0.1l-0.8,0h-5.9v23.1h-11.1v-54.6H606h0.9l0.8,0l0.8,0.1l0.7,0.1l0.8,0.1l0.8,0.2l0.7,0.2l0.7,0.2l0.6,0.2l0.6,0.3
	l0.6,0.3l0.6,0.3l0.6,0.3l0.5,0.4l0.5,0.4l0.5,0.4l0.5,0.4l0.4,0.5l0.4,0.5l0.4,0.6l0.4,0.6l0.3,0.6l0.3,0.6l0.3,0.6l0.2,0.7
	l0.2,0.7l0.2,0.7l0.2,0.8l0.1,0.8l0.1,0.8l0,0.8l0,0.9l0,1.4l-0.1,1.3l-0.1,0.6l-0.1,0.6l-0.1,0.6l-0.2,0.6l-0.2,0.5l-0.1,0.6
	l-0.2,0.5l-0.2,0.5l-0.2,0.5l-0.3,0.5l-0.2,0.4l-0.3,0.4l-0.3,0.4l-0.3,0.4l-0.3,0.4l-0.3,0.4l-0.3,0.3l-0.4,0.3l-0.4,0.3l-0.4,0.3
	l-0.4,0.3l-0.5,0.3l-0.4,0.2l-0.5,0.2l-0.5,0.2l-0.6,0.1l-0.5,0.2l-0.6,0.2v0.2l0.7,0.1l0.6,0.1l0.6,0.2l0.6,0.1l0.5,0.2l0.5,0.2
	l0.5,0.2l0.4,0.3l0.4,0.3l0.4,0.3l0.4,0.3l0.3,0.3l0.3,0.4l0.3,0.4l0.3,0.5l0.3,0.4l0.2,0.5l0.2,0.5l0.2,0.6l0.1,0.6l0.2,0.6
	l0.1,0.7l0.2,0.7l0.1,0.8l0.2,1.6l0.1,1.8l0.1,1.9l0.1,2.1l0,2.1l0.1,1.9l0.2,1.8l0.1,1.5l0.1,1.3l0.1,0.9l0.1,0.6l0,0.2H609.8z
	 M596.7,324h4.6l0.9,0l0.9-0.1l0.8-0.2l0.8-0.2l0.4-0.1l0.3-0.2l0.3-0.2l0.3-0.2l0.3-0.2l0.3-0.2l0.3-0.2l0.3-0.2l0.3-0.3l0.2-0.3
	l0.2-0.3l0.2-0.3l0.2-0.3l0.2-0.3l0.2-0.4l0.2-0.4l0.1-0.4l0.1-0.4l0.1-0.4l0.1-0.4l0.1-1l0-1.1l0-0.9l-0.1-0.9l-0.2-0.8l-0.2-0.7
	l-0.2-0.4l-0.1-0.3l-0.2-0.3l-0.2-0.3l-0.2-0.3l-0.2-0.3l-0.2-0.3l-0.2-0.3l-0.3-0.2l-0.3-0.2l-0.3-0.2l-0.3-0.2l-0.3-0.1l-0.3-0.2
	l-0.3-0.1l-0.3-0.2l-0.7-0.2l-0.8-0.2l-0.9-0.1h-0.9h-5.2V324z"/>
<path class="st1" d="M606.9,300.2H606h-20.4v0h0h0v54.6h11.1v-23.1h5.9l0.8,0l0.7,0.1l0.7,0.2l0.6,0.2l0.6,0.3l0.5,0.3l0.5,0.4
	l0.4,0.4l0.4,0.5l0.3,0.5l0.3,0.6l0.2,0.6l0.2,0.7l0.1,0.7l0.1,0.7l0,0.8v0.3l0,0.9l0,1.4l0,1.6l0.1,1.8l0,1.8l0,1.5l0,1.2l0,1
	l0.1,1l0.1,1l0.1,0.9l0.1,0.8l0,0.6l0.1,0.4v0.1v0H621v-0.1l0-0.2l-0.1-0.6l-0.1-0.9l-0.1-1.3l-0.1-1.5l-0.1-1.8l-0.1-1.9l0-2.1
	l-0.1-2.1l-0.1-1.9l-0.1-1.8l-0.2-1.6l-0.1-0.7l-0.2-0.7l-0.1-0.7l-0.2-0.6l-0.2-0.6l-0.2-0.6l-0.2-0.5l-0.2-0.5l-0.3-0.5l-0.3-0.4
	l-0.3-0.4l-0.3-0.4l-0.3-0.3l-0.4-0.3l-0.4-0.3l-0.4-0.3l-0.4-0.3l-0.5-0.2l-0.5-0.2l-0.5-0.2l-0.6-0.1l-0.6-0.2l-0.6-0.1l-0.7-0.1
	v-0.1l0.6-0.1l0.5-0.2l0.6-0.1l0.5-0.2l0.5-0.2l0.4-0.2l0.5-0.3l0.4-0.3l0.4-0.3l0.4-0.3l0.4-0.3l0.3-0.3l0.3-0.4l0.3-0.4l0.3-0.4
	l0.3-0.4l0.3-0.4l0.2-0.5l0.3-0.5l0.2-0.5l0.2-0.5l0.2-0.5l0.2-0.6l0.2-0.5l0.2-0.6l0.1-0.6l0.1-0.6l0.1-0.6l0.1-1.3l0-1.4l0-0.9
	l0-0.8l-0.1-0.8l-0.1-0.8l-0.1-0.7l-0.2-0.7l-0.2-0.7l-0.2-0.7l-0.3-0.6l-0.3-0.6l-0.3-0.6l-0.4-0.6l-0.4-0.6l-0.4-0.5l-0.4-0.5
	l-0.5-0.5l-0.5-0.4l-0.5-0.4l-0.5-0.4l-0.6-0.3l-0.6-0.3l-0.6-0.3l-0.6-0.3l-0.6-0.2l-0.7-0.2l-0.7-0.2l-0.8-0.2l-0.8-0.1l-0.7-0.1
	l-0.8-0.1L606.9,300.2z M585.6,354.8v-54.6H606h0.9l0.8,0l0.8,0.1l0.8,0.1l0.8,0.1l0.8,0.2l0.7,0.2l0.7,0.2l0.6,0.2l0.6,0.3l0.6,0.3
	l0.6,0.3l0.6,0.3l0.5,0.4l0.5,0.4l0.5,0.5l0.5,0.4l0.4,0.5l0.4,0.5l0.4,0.6l0.4,0.6l0.3,0.6l0.3,0.6l0.3,0.6l0.2,0.7l0.2,0.7
	l0.2,0.7l0.2,0.8l0.1,0.8l0.1,0.8l0,0.8l0,0.9l0,1.3l-0.1,1.3l-0.1,0.6l-0.1,0.6l-0.1,0.6l-0.2,0.6l-0.2,0.5l-0.2,0.6l-0.2,0.5
	l-0.2,0.5l-0.2,0.5l-0.3,0.5l-0.2,0.5l-0.3,0.4l-0.3,0.4l-0.3,0.4l-0.3,0.4l-0.3,0.4l-0.3,0.3l-0.4,0.3l-0.4,0.3l-0.4,0.3l-0.4,0.3
	l-0.5,0.3l-0.4,0.2l-0.5,0.2l-0.5,0.2l-0.6,0.1l-0.5,0.2l-0.6,0.2v0.2l0.7,0.1l0.6,0.1l0.6,0.2l0.6,0.1l0.5,0.2l0.5,0.2l0.5,0.2
	l0.4,0.3l0.4,0.3l0.4,0.3l0.4,0.3l0.3,0.3l0.3,0.4l0.3,0.4l0.3,0.5l0.3,0.4l0.2,0.5l0.2,0.5l0.2,0.6l0.2,0.6l0.2,0.6l0.1,0.7
	l0.2,0.7l0.1,0.8l0.2,1.6l0.1,1.8l0.1,1.9l0.1,2.1l0,2.1l0.1,1.9l0.1,1.8l0.1,1.5l0.1,1.3l0.1,0.9l0.1,0.6l0,0.2h-11.2v-0.2
	l-0.1-0.4l0-0.6l-0.1-0.8l-0.1-0.9l-0.1-1l-0.1-1l0-1l0-1.2l0-1.5l0-1.8l-0.1-1.8l0-1.6l0-1.4l0-0.9v-0.3l0-0.8l-0.1-0.7l-0.1-0.7
	l-0.2-0.7l-0.2-0.6l-0.3-0.6l-0.3-0.5l-0.4-0.5l-0.4-0.4l-0.5-0.4l-0.5-0.3l-0.6-0.3l-0.6-0.2l-0.7-0.2l-0.8-0.1l-0.8,0h-5.9v23.1
	H585.6z"/>
<path class="st0" d="M606.9,300.2H606h-20.4v54.6h11.1v-23.1h5.9l0.8,0l0.8,0.1l0.7,0.1l0.6,0.2l0.6,0.3l0.5,0.3l0.5,0.4l0.4,0.4
	l0.4,0.5l0.3,0.5l0.3,0.6l0.2,0.6l0.2,0.7l0.1,0.7l0.1,0.7l0,0.8v0.3l0,0.9l0,1.4l0,1.6l0.1,1.8l0,1.8l0,1.5l0,1.2l0,1l0.1,1l0.1,1
	l0.1,0.9l0.1,0.8l0,0.6l0.1,0.4v0.2H621l0-0.2l-0.1-0.6l-0.1-0.9l-0.1-1.3l-0.1-1.5l-0.2-1.8l-0.1-1.9l0-2.1l-0.1-2.1l-0.1-1.9
	l-0.1-1.8l-0.2-1.6l-0.1-0.8l-0.2-0.7l-0.1-0.7l-0.2-0.6l-0.2-0.6l-0.2-0.6l-0.2-0.5l-0.2-0.5l-0.3-0.4l-0.3-0.4l-0.3-0.4l-0.3-0.4
	l-0.3-0.3l-0.4-0.3l-0.4-0.3l-0.4-0.3l-0.4-0.3l-0.5-0.2l-0.5-0.2l-0.5-0.2l-0.6-0.2l-0.6-0.2l-0.6-0.1l-0.7-0.1v-0.1l0.6-0.2
	l0.5-0.2l0.6-0.2l0.5-0.2l0.5-0.2l0.4-0.2l0.5-0.3l0.4-0.3l0.4-0.3l0.4-0.3l0.4-0.3l0.3-0.3l0.3-0.4l0.3-0.4l0.3-0.4l0.3-0.4
	l0.3-0.4l0.2-0.4l0.3-0.5l0.2-0.5l0.2-0.5l0.2-0.5l0.2-0.6l0.2-0.5l0.2-0.6l0.1-0.6l0.1-0.6l0.1-0.6l0.1-1.3l0-1.4l0-0.9l0-0.8
	l-0.1-0.8l-0.1-0.8l-0.2-0.7l-0.2-0.7l-0.2-0.7l-0.2-0.7l-0.3-0.6l-0.3-0.6l-0.3-0.6l-0.4-0.6l-0.4-0.6l-0.4-0.5l-0.4-0.5l-0.5-0.4
	l-0.5-0.4l-0.5-0.4l-0.5-0.4l-0.6-0.3l-0.6-0.3l-0.6-0.3l-0.6-0.3l-0.6-0.2l-0.7-0.2l-0.7-0.2l-0.8-0.2l-0.8-0.1l-0.8-0.1l-0.8-0.1
	L606.9,300.2z M585.6,300.2H606h0.9l0.8,0l0.8,0.1l0.8,0.1l0.8,0.1l0.8,0.2l0.7,0.2l0.7,0.2l0.6,0.2l0.6,0.3l0.6,0.3l0.6,0.3
	l0.6,0.3l0.5,0.4l0.5,0.4l0.5,0.4l0.4,0.5l0.4,0.5l0.4,0.5l0.4,0.6l0.4,0.6l0.3,0.6l0.3,0.6l0.3,0.6l0.2,0.7l0.2,0.7l0.2,0.7
	l0.2,0.7l0.1,0.8l0.1,0.8l0,0.8l0,0.9l0,1.4l-0.1,1.3l-0.1,0.6l-0.1,0.6l-0.1,0.6l-0.2,0.6l-0.2,0.5l-0.1,0.6l-0.2,0.5l-0.2,0.5
	l-0.2,0.5l-0.3,0.5l-0.2,0.4l-0.3,0.4l-0.3,0.4l-0.3,0.4l-0.3,0.4l-0.3,0.4l-0.3,0.3l-0.4,0.3l-0.4,0.3l-0.4,0.3l-0.4,0.3l-0.5,0.3
	l-0.4,0.2l-0.5,0.2l-0.5,0.2l-0.6,0.1l-0.5,0.2l-0.6,0.2h0v0.2v0l0.7,0.1l0.6,0.1l0.6,0.2l0.6,0.1l0.5,0.2l0.5,0.2l0.5,0.2l0.4,0.3
	l0.4,0.3l0.4,0.3l0.4,0.3l0.3,0.3l0.3,0.4l0.3,0.4l0.3,0.4l0.3,0.4l0.2,0.5l0.2,0.5l0.2,0.6l0.1,0.6l0.2,0.6l0.1,0.7l0.2,0.7
	l0.1,0.7l0.2,1.6l0.1,1.8l0.1,1.9l0.1,2.1l0,2.1l0.1,1.9l0.2,1.8l0.1,1.5l0.1,1.3l0.1,0.9l0.1,0.6l0,0.2h-11.1v-0.1l-0.1-0.4l0-0.6
	l-0.1-0.8l-0.1-0.9l-0.1-1l-0.1-1l0-1l0-1.2l0-1.5l0-1.8l-0.1-1.8l0-1.6l0-1.4l0-0.9v-0.3l0-0.8l-0.1-0.7l-0.1-0.7l-0.2-0.7
	l-0.2-0.6l-0.3-0.6l-0.3-0.5l-0.4-0.5l-0.4-0.4l-0.5-0.4l-0.5-0.3l-0.6-0.3l-0.6-0.2l-0.7-0.2l-0.8-0.1l-0.8,0h-5.9v23.1h-11V300.2z
	"/>
<path class="st1" d="M602.8,308.3h-0.9h-5.2V324h4.6l0.9,0l0.9-0.1l0.8-0.2l0.8-0.2l0.4-0.1l0.3-0.2l0.3-0.2l0.3-0.2l0.3-0.2
	l0.3-0.2l0.3-0.2l0.3-0.2l0.3-0.3l0.2-0.3l0.2-0.3l0.2-0.3l0.2-0.3l0.2-0.3l0.2-0.4l0.2-0.4l0.1-0.4l0.1-0.4l0.1-0.4l0.1-0.4l0.1-1
	l0-1.1l0-0.9l-0.1-0.9l-0.2-0.8l-0.2-0.7l-0.2-0.4l-0.1-0.3l-0.2-0.3l-0.2-0.3l-0.2-0.3l-0.2-0.3l-0.2-0.3l-0.2-0.3l-0.3-0.2
	l-0.3-0.2l-0.3-0.2l-0.3-0.2l-0.3-0.1l-0.3-0.2l-0.3-0.1l-0.3-0.2l-0.7-0.2l-0.8-0.2L602.8,308.3z M596.7,324v-15.7h5.2h0.9l0.9,0.1
	l0.8,0.2l0.8,0.2l0.3,0.2l0.3,0.1l0.3,0.2l0.3,0.2l0.3,0.2l0.3,0.2l0.3,0.2l0.3,0.2l0.2,0.3l0.2,0.3l0.2,0.3l0.2,0.3l0.2,0.3
	l0.2,0.3l0.1,0.3l0.2,0.4l0.2,0.7l0.2,0.8l0.1,0.9l0,0.9l0,1.1l-0.1,1l-0.1,0.4l-0.1,0.4l-0.1,0.4l-0.1,0.4l-0.1,0.4l-0.2,0.4
	l-0.1,0.3l-0.2,0.3l-0.2,0.3l-0.2,0.3l-0.2,0.3l-0.3,0.3l-0.3,0.2l-0.3,0.2l-0.3,0.2l-0.3,0.2l-0.3,0.2l-0.3,0.1l-0.3,0.2l-0.4,0.1
	l-0.8,0.2l-0.8,0.2l-0.9,0.1l-0.9,0H596.7z M596.7,324L596.7,324L596.7,324L596.7,324z"/>
<path class="st0" d="M602.8,308.3h-0.9h-5.2V324h0h4.6l0.9,0l0.9-0.1l0.8-0.2l0.8-0.2l0.4-0.1l0.3-0.2l0.3-0.2l0.3-0.2l0.3-0.2
	l0.3-0.2l0.3-0.2l0.3-0.2l0.3-0.3l0.2-0.3l0.2-0.3l0.2-0.3l0.2-0.3l0.2-0.3l0.2-0.4l0.2-0.4l0.1-0.4l0.1-0.4l0.1-0.5l0.1-0.4l0.1-1
	l0-1.1l0-0.9l-0.1-0.9l-0.2-0.8l-0.2-0.7l-0.2-0.4l-0.1-0.3l-0.2-0.3l-0.2-0.3l-0.2-0.3l-0.2-0.3l-0.2-0.3l-0.2-0.3l-0.3-0.2
	l-0.3-0.2l-0.3-0.2l-0.3-0.2l-0.3-0.2l-0.3-0.2l-0.3-0.1l-0.3-0.1l-0.8-0.2l-0.8-0.1L602.8,308.3z M596.7,324v-15.7h5.2h0.9l0.9,0.1
	l0.8,0.2l0.7,0.2l0.3,0.2l0.3,0.1l0.3,0.2l0.3,0.1l0.3,0.2l0.3,0.2l0.3,0.2l0.3,0.2l0.2,0.3l0.2,0.3l0.2,0.3l0.2,0.3l0.2,0.3
	l0.2,0.3l0.1,0.3l0.2,0.4l0.2,0.7l0.2,0.8l0.1,0.9l0,0.9l0,1.1l-0.1,1l-0.1,0.4l-0.1,0.4l-0.1,0.4l-0.1,0.4l-0.2,0.4l-0.2,0.4
	l-0.2,0.3l-0.2,0.3l-0.2,0.3l-0.2,0.3l-0.2,0.3l-0.3,0.3l-0.3,0.2l-0.3,0.2l-0.3,0.2l-0.3,0.2l-0.3,0.2l-0.3,0.2l-0.3,0.2l-0.4,0.1
	l-0.8,0.2l-0.8,0.2l-0.9,0.1l-0.9,0H596.7z"/>
<polygon class="st0" points="521.7,355.8 520.5,355.7 519.4,355.6 518.3,355.4 517.3,355.1 516.4,354.8 515.5,354.4 514.7,354 
	513.9,353.5 513.1,352.9 512.4,352.3 511.8,351.6 511.2,350.9 510.7,350.1 510.2,349.3 509.7,348.4 509.3,347.5 508.9,346.5 
	508.5,345.4 508.2,344.3 507.9,343.2 507.7,341.9 507.5,340.7 507.3,339.4 507.2,338 507,336.6 506.9,335.1 506.8,333.5 
	506.7,331.9 506.7,330.3 506.7,328.6 506.7,326.9 506.7,325.1 506.7,323.5 506.8,321.9 506.9,320.4 507,318.9 507.2,317.5 
	507.3,316.1 507.6,314.8 507.8,313.5 508.1,312.3 508.4,311.1 508.8,310 509.1,309 509.6,307.9 510.1,307 510.6,306.1 511.1,305.3 
	511.7,304.5 512.4,303.7 513,303 513.8,302.4 514.5,301.8 515.4,301.3 516.2,300.8 517.2,300.4 518.1,300.1 519.1,299.8 
	520.2,299.5 521.4,299.4 522.5,299.2 523.8,299.1 525.1,299.1 526.2,299.1 527.3,299.2 528.3,299.3 529.3,299.4 530.2,299.5 
	531.1,299.8 532,300 532.8,300.2 533.6,300.5 534.4,300.9 535.1,301.3 535.8,301.6 536.4,302.1 537,302.6 537.6,303 538.1,303.6 
	538.6,304.1 539.1,304.7 539.5,305.4 539.9,306 540.2,306.8 540.6,307.5 540.9,308.2 541.1,309 541.4,309.8 541.5,310.7 
	541.7,311.5 541.8,312.5 542,313.4 542,314.4 542.1,315.4 542.1,316.4 531.5,316.4 531.5,315.6 531.4,314.8 531.3,314 531.1,313.2 
	530.9,312.5 530.7,311.7 530.4,311 530,310.3 529.8,309.9 529.6,309.6 529.4,309.3 529.2,309 528.9,308.8 528.6,308.5 528.4,308.3 
	528.1,308.1 527.8,307.9 527.4,307.7 527.1,307.6 526.8,307.4 526.4,307.4 526,307.3 525.6,307.2 525.2,307.2 524.7,307.2 
	524.3,307.3 523.8,307.4 523.4,307.5 522.9,307.6 522.5,307.8 522.2,308 521.8,308.3 521.4,308.6 521.1,308.9 520.8,309.3 
	520.5,309.7 520.2,310.1 519.9,310.6 519.7,311.1 519.5,311.7 519.2,312.2 519,312.9 518.9,313.6 518.7,314.3 518.5,315.1 
	518.4,315.8 518.2,316.7 518.1,317.6 517.9,319.5 517.8,321.6 517.7,323.9 517.7,326.3 517.7,328.7 517.8,331 517.8,333.2 
	518,335.2 518.2,337.1 518.4,338.9 518.6,339.7 518.7,340.5 518.9,341.2 519.1,341.9 519.3,342.7 519.6,343.3 519.8,343.8 
	520.1,344.4 520.4,344.9 520.7,345.4 521.1,345.8 521.4,346.2 521.8,346.6 522.2,346.9 522.7,347.1 523.1,347.4 523.6,347.5 
	524.1,347.6 524.7,347.7 525.3,347.7 525.8,347.7 526.3,347.6 526.9,347.4 527.4,347.2 528,346.9 528.6,346.5 529.2,346.1 
	529.7,345.6 530.2,345 530.6,344.4 530.9,344 531.1,343.7 531.3,343.2 531.4,342.9 531.6,342.4 531.7,342 531.8,341.6 531.9,341.1 
	532,340.6 532.1,340.1 532.1,339.6 532.1,339 532.1,333.5 524.8,333.5 524.8,325.3 542.7,325.3 542.7,354.8 534.6,354.8 
	534.6,349.7 534.4,349.7 533.9,350.5 533.4,351.2 532.8,351.9 532.2,352.5 531.6,353 531,353.5 530.3,354 529.6,354.4 528.9,354.7 
	528.1,355 527.3,355.3 526.5,355.5 525.7,355.6 524.8,355.7 523.9,355.8 522.9,355.9 "/>
<path class="st1" d="M525.1,299.1l-1.3,0l-1.2,0.1l-1.2,0.2l-1.2,0.2l-1.1,0.3l-1,0.3l-1,0.3l-0.9,0.4l-0.9,0.5l-0.8,0.5l-0.8,0.6
	L513,303l-0.7,0.7l-0.6,0.7l-0.6,0.8l-0.6,0.8l-0.5,0.9l-0.5,1l-0.4,1l-0.4,1l-0.4,1.1l-0.3,1.2l-0.3,1.2l-0.2,1.3l-0.2,1.3
	l-0.2,1.4l-0.2,1.4l-0.1,1.5l-0.1,1.5l-0.1,1.6l0,1.6v1.7v1.7l0,1.7l0,1.6l0.1,1.6l0.1,1.5l0.1,1.5l0.2,1.4l0.2,1.4l0.2,1.3l0.2,1.3
	l0.2,1.2l0.3,1.2l0.3,1.1l0.3,1l0.4,1l0.4,0.9l0.5,0.9l0.5,0.8l0.5,0.8l0.6,0.7l0.6,0.7l0.7,0.6l0.8,0.6l0.8,0.5l0.8,0.4l0.9,0.4
	l0.9,0.3l1,0.3l1.1,0.2l1.1,0.2l1.2,0.1l1.2,0l1,0l0.9-0.1l0.9-0.1l0.8-0.2l0.8-0.2l0.8-0.3l0.8-0.3l0.8-0.3l0.7-0.4l0.7-0.4
	l0.6-0.5l0.6-0.6l0.6-0.6l0.5-0.7l0.6-0.7l0.5-0.8h0.1v5h8.2v-29.5h-17.9v8.2h7.3v5.6l0,0.5l0,0.5l0,0.5l-0.1,0.5l-0.1,0.5l-0.1,0.5
	l-0.2,0.4l-0.1,0.4l-0.2,0.4l-0.2,0.4l-0.2,0.3l-0.2,0.4l-0.4,0.6l-0.5,0.6l-0.5,0.5l-0.6,0.4l-0.6,0.3l-0.6,0.3l-0.6,0.2l-0.6,0.2
	l-0.5,0.1l-0.5,0l-0.6,0l-0.6-0.1l-0.5-0.1l-0.5-0.2l-0.4-0.2l-0.5-0.3l-0.4-0.3l-0.4-0.3l-0.3-0.4l-0.3-0.4l-0.3-0.5l-0.3-0.5
	l-0.3-0.6l-0.3-0.6l-0.2-0.6l-0.2-0.7l-0.2-0.7l-0.2-0.8l-0.2-0.8l-0.1-0.8l-0.3-1.8l-0.2-1.9l-0.2-2l-0.1-2.2l0-2.3l0-2.4l0-2.4
	l0.1-2.3l0.1-2.1l0.2-1.9l0.1-0.9l0.2-0.9l0.2-0.8l0.2-0.7l0.2-0.8l0.2-0.7l0.2-0.6l0.2-0.6l0.2-0.6l0.3-0.5l0.3-0.4l0.3-0.4
	l0.3-0.4l0.3-0.4l0.3-0.3l0.3-0.3l0.4-0.3l0.4-0.2l0.4-0.2l0.4-0.2l0.4-0.1l0.4-0.1l0.5,0l0.5,0l0.4,0l0.4,0l0.4,0.1l0.4,0.1
	l0.3,0.2l0.3,0.1l0.3,0.2l0.3,0.2l0.3,0.2l0.3,0.2l0.3,0.3l0.3,0.3l0.2,0.3l0.2,0.3l0.2,0.3l0.2,0.3l0.3,0.7l0.3,0.7l0.3,0.8
	l0.2,0.8l0.2,0.8l0.1,0.8l0.1,0.8v0.8v0h0h10.6v-1.1l0-1l-0.1-1l-0.1-0.9l-0.1-0.9l-0.2-0.9l-0.2-0.9l-0.2-0.8l-0.3-0.8l-0.3-0.7
	l-0.3-0.7l-0.3-0.7l-0.4-0.7l-0.4-0.6l-0.5-0.6l-0.5-0.6l-0.6-0.5l-0.6-0.5l-0.6-0.5l-0.6-0.4l-0.7-0.4l-0.7-0.4l-0.8-0.3l-0.8-0.3
	L532,300l-0.9-0.2l-0.9-0.2l-0.9-0.2l-1-0.1l-1-0.1l-1.1,0L525.1,299.1z M522.9,355.9l-1.2,0l-1.2-0.1l-1.1-0.1l-1.1-0.2l-1-0.3
	l-0.9-0.3l-0.9-0.4l-0.8-0.4l-0.8-0.5l-0.8-0.6l-0.7-0.6l-0.6-0.7l-0.6-0.7l-0.5-0.8l-0.5-0.8l-0.4-0.9l-0.4-0.9l-0.4-1l-0.3-1
	l-0.3-1.1l-0.3-1.2l-0.2-1.2l-0.2-1.3l-0.2-1.3l-0.2-1.4l-0.2-1.4l-0.1-1.5l-0.1-1.5l-0.1-1.6l0-1.6l0-1.7v-1.7v-1.7l0-1.6l0.1-1.6
	l0.1-1.5l0.1-1.5l0.2-1.4l0.2-1.4l0.2-1.3l0.2-1.3l0.3-1.2l0.3-1.2l0.4-1.1l0.4-1l0.4-1l0.5-1l0.5-0.9l0.6-0.8l0.6-0.8l0.6-0.8
	l0.7-0.7l0.7-0.6l0.8-0.6l0.8-0.5l0.9-0.5l0.9-0.4l1-0.3l1-0.3l1-0.3l1.2-0.2l1.2-0.2l1.2-0.1l1.3,0l1.1,0l1.1,0l1,0.1l1,0.1
	l0.9,0.1l0.9,0.2l0.9,0.2l0.8,0.3l0.8,0.3l0.7,0.3l0.7,0.4l0.7,0.4l0.6,0.4l0.6,0.5l0.6,0.5l0.6,0.5l0.5,0.6l0.4,0.6l0.4,0.6
	l0.4,0.7l0.3,0.7l0.3,0.7l0.3,0.8l0.3,0.8l0.2,0.8l0.2,0.9l0.2,0.9l0.1,0.9l0.1,0.9l0.1,1l0,1v1h-10.6v-0.8l-0.1-0.8l-0.1-0.8
	l-0.2-0.8l-0.2-0.8l-0.3-0.8l-0.3-0.7l-0.3-0.7l-0.2-0.3l-0.2-0.3l-0.2-0.3l-0.2-0.3l-0.3-0.3l-0.3-0.3l-0.3-0.2l-0.3-0.2l-0.3-0.2
	l-0.3-0.2l-0.3-0.1l-0.3-0.1l-0.4-0.1l-0.4-0.1l-0.4,0l-0.4,0l-0.5,0l-0.5,0l-0.4,0.1l-0.4,0.1l-0.4,0.2l-0.4,0.2l-0.4,0.2l-0.4,0.3
	l-0.3,0.3l-0.3,0.3l-0.3,0.4l-0.3,0.4l-0.3,0.4l-0.3,0.4l-0.3,0.5l-0.2,0.6l-0.2,0.6l-0.2,0.6l-0.2,0.7l-0.2,0.7l-0.2,0.8l-0.2,0.8
	l-0.2,0.9l-0.1,0.9l-0.2,1.9l-0.1,2.1l-0.1,2.3l0,2.4l0,2.4l0,2.3l0.1,2.2l0.2,2l0.2,1.9l0.3,1.8l0.1,0.8l0.2,0.8l0.2,0.8l0.2,0.7
	l0.2,0.7l0.2,0.6l0.3,0.6l0.3,0.6l0.3,0.5l0.3,0.5l0.3,0.4l0.3,0.4l0.4,0.3l0.4,0.3l0.4,0.3l0.4,0.2l0.5,0.1l0.5,0.1l0.6,0.1l0.6,0
	l0.5,0l0.5-0.1l0.6-0.2l0.6-0.2l0.6-0.3l0.6-0.3l0.6-0.4l0.5-0.5l0.5-0.6l0.4-0.6l0.2-0.4l0.2-0.3l0.2-0.4l0.2-0.4l0.1-0.4l0.2-0.4
	l0.1-0.4l0.1-0.5l0.1-0.5l0-0.5l0-0.5l0-0.5v-5.6h-7.3v-8.1h17.9v29.4h-8.1v-5h-0.2l-0.5,0.8l-0.6,0.7l-0.5,0.7l-0.6,0.6l-0.6,0.6
	l-0.6,0.5l-0.7,0.4l-0.7,0.4l-0.8,0.3l-0.8,0.3l-0.8,0.3l-0.8,0.2l-0.8,0.2l-0.9,0.1l-0.9,0.1L522.9,355.9z"/>
<path class="st0" d="M525.1,299.1l-1.3,0l-1.2,0.1l-1.2,0.2l-1.2,0.2l-1,0.3l-1,0.3l-1,0.3l-0.9,0.4l-0.9,0.5l-0.8,0.5l-0.8,0.6
	L513,303l-0.7,0.7l-0.6,0.7l-0.6,0.8l-0.6,0.8l-0.5,0.9l-0.5,1l-0.4,1l-0.4,1l-0.4,1.1l-0.3,1.2l-0.3,1.2l-0.2,1.3l-0.2,1.3
	l-0.2,1.4l-0.2,1.4l-0.1,1.5l-0.1,1.5l-0.1,1.6l0,1.6v1.7v1.7l0,1.7l0,1.6l0.1,1.6l0.1,1.5l0.1,1.5l0.2,1.4l0.2,1.4l0.2,1.3l0.2,1.3
	l0.2,1.2l0.3,1.2l0.3,1.1l0.3,1l0.4,1l0.4,0.9l0.4,0.9l0.5,0.8l0.5,0.8l0.6,0.7l0.6,0.7l0.7,0.6l0.8,0.6l0.8,0.5l0.8,0.4l0.9,0.4
	l0.9,0.3l1,0.3l1.1,0.2l1.1,0.2l1.2,0.1l1.2,0l1,0l0.9-0.1l0.9-0.1l0.8-0.2l0.8-0.2l0.8-0.3l0.8-0.3l0.8-0.3l0.7-0.4l0.7-0.5
	l0.6-0.5l0.6-0.6l0.6-0.6l0.5-0.7l0.6-0.7l0.5-0.8h0.2v5h8.1v-29.4h-17.9v8.1h7.3v5.6l0,0.5l0,0.5l0,0.5l-0.1,0.5l-0.1,0.5l-0.1,0.4
	l-0.2,0.4l-0.1,0.5l-0.2,0.4l-0.2,0.4l-0.2,0.3l-0.2,0.4l-0.4,0.6l-0.5,0.6l-0.5,0.5l-0.6,0.5l-0.6,0.3l-0.6,0.3l-0.6,0.2l-0.6,0.2
	l-0.5,0.1l-0.5,0l-0.6,0l-0.6-0.1l-0.5-0.1l-0.5-0.1l-0.4-0.2l-0.4-0.3l-0.4-0.3l-0.4-0.3l-0.3-0.4l-0.3-0.4l-0.3-0.5l-0.3-0.5
	l-0.3-0.6l-0.3-0.6l-0.2-0.6l-0.2-0.7l-0.2-0.7l-0.2-0.8l-0.2-0.8l-0.1-0.8l-0.3-1.8l-0.2-1.9l-0.2-2l-0.1-2.2l0-2.3l0-2.4l0-2.4
	l0.1-2.3l0.1-2.1l0.2-1.9l0.1-0.9l0.2-0.9l0.2-0.8l0.2-0.8l0.2-0.7l0.2-0.7l0.2-0.6l0.2-0.6l0.2-0.6l0.3-0.5l0.3-0.4l0.3-0.4
	l0.3-0.4l0.3-0.4l0.3-0.3l0.3-0.3l0.4-0.3l0.4-0.2l0.4-0.2l0.4-0.2l0.4-0.1l0.4-0.1l0.5,0l0.5,0l0.4,0l0.4,0l0.4,0.1l0.4,0.1
	l0.3,0.2l0.3,0.1l0.3,0.2l0.3,0.2l0.3,0.2l0.3,0.2l0.3,0.3l0.3,0.3l0.2,0.3l0.2,0.3l0.2,0.3l0.2,0.3l0.3,0.7l0.3,0.7l0.3,0.8
	l0.2,0.8l0.2,0.8l0.1,0.8l0.1,0.8v0.8h10.6v-1l0-1l-0.1-1l-0.1-0.9l-0.1-0.9l-0.2-0.9l-0.2-0.9l-0.2-0.8l-0.3-0.8l-0.3-0.8l-0.3-0.7
	l-0.3-0.7l-0.4-0.7l-0.4-0.6l-0.4-0.6l-0.5-0.6l-0.6-0.5l-0.6-0.5l-0.6-0.5l-0.6-0.5l-0.7-0.4l-0.7-0.4l-0.7-0.3l-0.8-0.3L532,300
	l-0.9-0.2l-0.9-0.2l-0.9-0.1l-1-0.1l-1-0.1l-1.1,0L525.1,299.1z M522.9,355.8l-1.2,0l-1.2-0.1l-1.1-0.2l-1-0.2l-1-0.3l-0.9-0.3
	l-0.9-0.4l-0.8-0.4l-0.8-0.5l-0.8-0.6l-0.7-0.6l-0.6-0.7l-0.6-0.7l-0.5-0.8l-0.5-0.8l-0.4-0.9l-0.4-0.9l-0.4-1l-0.3-1l-0.3-1.1
	l-0.3-1.2l-0.2-1.2l-0.2-1.3l-0.2-1.3l-0.2-1.4l-0.2-1.4l-0.1-1.5l-0.1-1.5l-0.1-1.6l0-1.6l0-1.7v-1.7v-1.7l0-1.6l0.1-1.6l0.1-1.5
	l0.1-1.5l0.2-1.4l0.2-1.4l0.2-1.3l0.2-1.3l0.3-1.2l0.3-1.2l0.4-1.1l0.4-1l0.4-1l0.5-1l0.5-0.9l0.6-0.8l0.6-0.8l0.6-0.8l0.7-0.7
	l0.7-0.6l0.8-0.6l0.8-0.5l0.9-0.5l0.9-0.4l1-0.3l1-0.3l1.1-0.3l1.2-0.2l1.2-0.2l1.2-0.1l1.3,0l1.1,0l1.1,0l1,0.1l1,0.1l0.9,0.2
	l0.9,0.2l0.9,0.2l0.8,0.3l0.8,0.3l0.8,0.3l0.7,0.4l0.7,0.4l0.6,0.4l0.6,0.5l0.6,0.5l0.6,0.5l0.5,0.6l0.4,0.6l0.4,0.6l0.4,0.7
	l0.3,0.7l0.3,0.7l0.3,0.8l0.3,0.8l0.2,0.8l0.2,0.9l0.2,0.9l0.1,0.9l0.1,0.9l0.1,1l0,1v1h-10.5v-0.8l-0.1-0.8l-0.1-0.8l-0.2-0.8
	l-0.2-0.8l-0.3-0.8l-0.3-0.7l-0.3-0.7l-0.2-0.3l-0.2-0.3l-0.2-0.3l-0.2-0.3l-0.3-0.3l-0.3-0.3l-0.3-0.2l-0.3-0.2l-0.3-0.2l-0.3-0.2
	l-0.3-0.1l-0.3-0.1l-0.4-0.1l-0.4-0.1l-0.4,0l-0.4,0l-0.5,0l-0.5,0l-0.5,0.1l-0.4,0.1l-0.4,0.2l-0.4,0.2l-0.4,0.2l-0.4,0.3l-0.3,0.3
	l-0.3,0.3l-0.3,0.4l-0.3,0.4l-0.3,0.5l-0.3,0.4l-0.3,0.5l-0.2,0.6l-0.2,0.6l-0.2,0.6l-0.2,0.7l-0.2,0.8l-0.2,0.8l-0.2,0.8l-0.2,0.9
	l-0.1,0.9l-0.2,1.9l-0.1,2.1l-0.1,2.3l0,2.4l0,2.4l0,2.3l0.1,2.2l0.2,2l0.2,1.9l0.3,1.8l0.1,0.8l0.2,0.8l0.2,0.8l0.2,0.7l0.2,0.7
	l0.2,0.6l0.3,0.6l0.3,0.6l0.3,0.5l0.3,0.5l0.3,0.4l0.3,0.4l0.4,0.3l0.4,0.3l0.5,0.3l0.4,0.2l0.5,0.2l0.5,0.1l0.6,0.1l0.6,0l0.5,0
	l0.5-0.1l0.6-0.1l0.6-0.2l0.6-0.3l0.6-0.3l0.6-0.4l0.5-0.5l0.5-0.6l0.5-0.6l0.2-0.4l0.2-0.3l0.2-0.4l0.2-0.4l0.2-0.4l0.2-0.4
	l0.1-0.5l0.1-0.5l0.1-0.5l0-0.5l0-0.5l0-0.5v-5.6h-7.3v-8.1h17.8v29.4h-8.1v-5h-0.2h0l-0.5,0.8l-0.6,0.7l-0.5,0.7l-0.6,0.6l-0.6,0.6
	l-0.6,0.5l-0.7,0.4l-0.7,0.4l-0.7,0.3l-0.8,0.3l-0.8,0.3l-0.8,0.2l-0.8,0.2l-0.9,0.1l-0.9,0.1L522.9,355.8z"/>
<polygon class="st0" points="549,354.8 549,300.2 579.6,300.2 579.6,309.2 560.1,309.2 560.1,322 576.9,322 576.9,331.1 
	560.1,331.1 560.1,345.8 580.4,345.8 580.4,354.8 "/>
<path class="st1" d="M579.6,300.1L579.6,300.1H549v54.6h31.4v-9.1h-20.3v-14.7H577v-9h-16.9v-12.8h19.5V300.1z M579.6,300.2
	L579.6,300.2L579.6,300.2z M549,354.8v-54.6h30.6v9h-19.5V322h16.9v9h-16.9v14.7h20.3v9H549z"/>
<path class="st0" d="M579.6,300.2H549v54.6h31.4v-9h-20.3v-14.7h16.9v-9h-16.9v-12.9h19.5V300.2z M549,354.8v-54.6h30.6v9h-19.5
	v12.9h16.9v9h-16.9v14.7h20.3v9H549z"/>
<path class="st0" d="M139,385.6H31.4h-0.5l-0.5,0l-0.5-0.1l-0.5-0.1l-0.5-0.1l-0.5-0.1l-0.5-0.2l-0.5-0.2l-0.4-0.2l-0.5-0.3
	l-0.4-0.2l-0.4-0.3l-0.4-0.3l-0.4-0.3l-0.4-0.3l-0.3-0.4l-0.4-0.3l-0.3-0.4l-0.3-0.4l-0.3-0.4l-0.3-0.4l-0.2-0.4l-0.3-0.4l-0.2-0.5
	l-0.2-0.5l-0.2-0.5l-0.2-0.5l-0.1-0.5l-0.1-0.5l-0.1-0.5l0-0.5v-0.5V267.9v-0.5l0-0.5l0.1-0.5l0.1-0.5l0.1-0.5l0.2-0.5l0.1-0.5
	l0.2-0.4l0.2-0.5l0.2-0.4l0.3-0.4l0.2-0.4l0.3-0.4l0.3-0.4l0.3-0.4l0.3-0.3l0.3-0.3l0.4-0.3l0.4-0.3l0.4-0.3l0.4-0.3l0.4-0.3
	l0.4-0.3l0.4-0.2l0.5-0.2l0.5-0.2l0.4-0.1l0.5-0.2l0.5-0.1l0.5-0.1l0.5,0l0.5,0h108.5l0.5,0l0.5,0l0.5,0.1l0.5,0.1l0.5,0.2l0.4,0.1
	l0.5,0.2l0.5,0.2l0.4,0.2l0.4,0.3l0.4,0.3l0.4,0.3l0.4,0.3l0.4,0.3l0.4,0.3l0.3,0.3l0.3,0.3l0.3,0.4l0.3,0.4l0.3,0.4l0.3,0.4
	l0.3,0.4l0.2,0.4l0.2,0.5l0.2,0.4l0.1,0.5l0.2,0.5l0.1,0.5l0.1,0.5l0.1,0.5l0,0.5v0.5v107.3v0.5l-0.1,0.5l0,0.5l-0.1,0.5l-0.1,0.5
	l-0.1,0.5l-0.2,0.5l-0.2,0.5l-0.2,0.5l-0.2,0.4l-0.2,0.4l-0.3,0.4l-0.3,0.4l-0.3,0.4l-0.3,0.4l-0.4,0.3l-0.3,0.4l-0.4,0.3l-0.4,0.3
	l-0.4,0.3l-0.4,0.3l-0.5,0.2l-0.4,0.3l-0.4,0.2l-0.5,0.2l-0.5,0.2l-0.5,0.1l-0.5,0.1l-0.5,0.1l-0.5,0.1l-0.5,0H139z M31,263.2
	l-0.5,0.1l-0.4,0.1l-0.4,0.2l-0.4,0.2l-0.4,0.3l-0.3,0.3l-0.3,0.3l-0.3,0.3l-0.3,0.4l-0.2,0.4l-0.2,0.4l-0.2,0.4l-0.1,0.4l-0.1,0.5
	l0,0.5v107.3l0,0.5l0.1,0.5l0.1,0.4l0.2,0.4l0.2,0.4l0.2,0.4l0.3,0.3l0.3,0.3l0.3,0.3l0.3,0.3l0.4,0.2l0.4,0.2l0.4,0.1l0.4,0.1
	l0.5,0.1l0.5,0H139l0.5,0l0.4-0.1l0.5-0.1l0.4-0.1l0.4-0.2l0.4-0.2l0.3-0.3l0.3-0.3l0.3-0.3l0.3-0.3l0.2-0.4l0.2-0.4l0.2-0.4
	l0.1-0.4l0.1-0.5l0-0.5V267.9l0-0.5l-0.1-0.5l-0.1-0.4l-0.2-0.4l-0.2-0.4l-0.2-0.4l-0.3-0.4l-0.3-0.3l-0.3-0.3l-0.3-0.3l-0.4-0.3
	l-0.4-0.2l-0.4-0.2l-0.5-0.1l-0.4-0.1l-0.5,0H31.4L31,263.2z"/>
<path class="st1" d="M139.7,257.5h-0.3l0.4,0l0.5,0l0.5,0.1l0.5,0.1l0.5,0.2l0.4,0.2l0.5,0.2l0.4,0.2l0.5,0.2l0.4,0.3l0.5,0.3
	l0.4,0.3l0.4,0.3l0.4,0.3l0.4,0.3l0.3,0.3l0.3,0.3l0.3,0.4l0.3,0.4l0.3,0.4l0.3,0.4l0.3,0.4l0.2,0.4l0.2,0.4l0.2,0.4l0.1,0.5
	l0.2,0.5l0.1,0.5l0.1,0.5l0.1,0.5l0,0.5v0.5v107.3v0.5l-0.1,0.5l0,0.5l-0.1,0.5l-0.1,0.5l-0.2,0.5l-0.1,0.5l-0.2,0.5l-0.2,0.4
	l-0.2,0.4l-0.2,0.4l-0.3,0.4l-0.3,0.4l-0.3,0.4l-0.3,0.4l-0.4,0.3l-0.3,0.4l-0.4,0.3l-0.4,0.3l-0.4,0.3l-0.4,0.3l-0.5,0.2l-0.4,0.3
	l-0.4,0.2l-0.5,0.2l-0.5,0.2l-0.5,0.2l-0.5,0.1l-0.5,0.1l-0.5,0.1l-0.5,0H139H31.4h-0.5l-0.5,0l-0.5-0.1l-0.5-0.1l-0.5-0.1l-0.5-0.2
	l-0.5-0.2l-0.5-0.2l-0.4-0.2l-0.5-0.3l-0.4-0.2l-0.4-0.3l-0.4-0.3l-0.4-0.3l-0.4-0.3l-0.3-0.4l-0.4-0.3l-0.3-0.4l-0.3-0.4l-0.3-0.4
	l-0.3-0.4l-0.2-0.4l-0.3-0.4l-0.2-0.4l-0.2-0.5l-0.2-0.5l-0.2-0.5l-0.1-0.5l-0.1-0.5l-0.1-0.5l0-0.5v0.3l0,0.3l0.1,0.5l0.1,0.5
	l0.1,0.5l0.2,0.5l0.2,0.5l0.2,0.5l0.2,0.5l0.3,0.4l0.2,0.4l0.3,0.4l0.3,0.4l0.3,0.4l0.3,0.4l0.4,0.3l0.3,0.4l0.4,0.3l0.4,0.3
	l0.4,0.3l0.4,0.3l0.4,0.2l0.5,0.3l0.4,0.2l0.5,0.2l0.5,0.2l0.5,0.2l0.5,0.1l0.5,0.1l0.5,0.1l0.5,0h0.5H139h0.5l0.5,0l0.5-0.1
	l0.5-0.1l0.5-0.1l0.5-0.2l0.5-0.2l0.5-0.2l0.5-0.2l0.4-0.3l0.5-0.2l0.4-0.3l0.4-0.3l0.4-0.3l0.4-0.3l0.3-0.4l0.4-0.3l0.3-0.4
	l0.3-0.4l0.3-0.4l0.3-0.4l0.2-0.5l0.2-0.4l0.2-0.4l0.2-0.5l0.2-0.5l0.2-0.5l0.1-0.5l0.1-0.5l0-0.5l0.1-0.5v-0.5V267.9v-0.5l0-0.5
	l-0.1-0.5l-0.1-0.5l-0.1-0.5l-0.2-0.5l-0.2-0.5l-0.2-0.5l-0.2-0.4l-0.2-0.4l-0.3-0.4l-0.3-0.4l-0.3-0.4l-0.3-0.4l-0.3-0.4l-0.3-0.3
	l-0.3-0.3l-0.4-0.3l-0.4-0.3l-0.4-0.3l-0.4-0.3l-0.5-0.3l-0.4-0.3l-0.5-0.2l-0.4-0.2l-0.5-0.2l-0.4-0.2l-0.5-0.2l-0.5-0.1l-0.5-0.1
	l-0.5,0L139.7,257.5z M31,257.5h-0.3l-0.2,0l-0.5,0l-0.5,0.1l-0.5,0.1l-0.5,0.2l-0.4,0.2l-0.5,0.2l-0.5,0.2l-0.4,0.2l-0.4,0.3
	l-0.4,0.3l-0.4,0.3l-0.4,0.3l-0.4,0.3l-0.4,0.3l-0.3,0.3l-0.3,0.3l-0.3,0.4l-0.3,0.4l-0.3,0.4l-0.2,0.4l-0.3,0.4l-0.2,0.4l-0.2,0.4
	l-0.2,0.4l-0.2,0.5l-0.1,0.5l-0.1,0.5l-0.1,0.5l-0.1,0.5l0,0.3v0.3l0-0.5l0.1-0.5l0.1-0.5l0.1-0.5l0.2-0.5l0.2-0.5l0.2-0.4l0.2-0.4
	l0.2-0.4l0.3-0.4l0.2-0.4l0.3-0.4l0.3-0.4l0.3-0.4l0.3-0.3l0.3-0.3l0.4-0.3l0.4-0.3l0.4-0.3l0.4-0.3l0.4-0.3l0.4-0.3l0.4-0.2
	l0.4-0.2l0.5-0.2l0.5-0.2l0.5-0.2l0.5-0.1l0.5-0.1l0.5,0L31,257.5z"/>
<path class="st0" d="M139.5,257.5H31l-0.4,0l-0.5,0l-0.5,0.1l-0.5,0.1l-0.5,0.2l-0.5,0.2l-0.5,0.2l-0.4,0.2l-0.4,0.2l-0.4,0.3
	l-0.4,0.3l-0.4,0.3l-0.4,0.3l-0.4,0.3l-0.4,0.3l-0.3,0.3l-0.3,0.3l-0.3,0.4l-0.3,0.4l-0.3,0.4l-0.2,0.4l-0.3,0.4l-0.2,0.5l-0.2,0.4
	l-0.2,0.4l-0.2,0.5l-0.2,0.5l-0.1,0.5l-0.1,0.5l-0.1,0.5l0,0.5v108.3l0,0.5l0.1,0.5l0.1,0.5l0.1,0.5l0.2,0.5l0.2,0.5l0.2,0.5
	l0.2,0.4l0.3,0.4l0.2,0.4l0.3,0.4l0.3,0.4l0.3,0.4l0.3,0.4l0.4,0.3l0.3,0.4l0.4,0.3l0.4,0.3l0.4,0.3l0.4,0.3l0.4,0.2l0.5,0.3
	l0.4,0.2l0.5,0.2l0.5,0.2l0.5,0.2l0.5,0.1l0.5,0.1l0.5,0.1l0.5,0h0.5H139h0.5l0.5,0l0.5-0.1l0.5-0.1l0.5-0.1l0.5-0.2l0.5-0.2
	l0.5-0.2l0.4-0.2l0.4-0.3l0.5-0.2l0.4-0.3l0.4-0.3l0.4-0.3l0.4-0.3l0.3-0.4l0.4-0.3l0.3-0.4l0.3-0.4l0.3-0.4l0.3-0.4l0.2-0.4
	l0.2-0.4l0.2-0.4l0.2-0.5l0.1-0.5l0.2-0.5l0.1-0.5l0.1-0.5l0-0.5l0.1-0.5v-0.5V267.9v-0.5l0-0.5l-0.1-0.5l-0.1-0.5l-0.1-0.5
	l-0.2-0.5l-0.1-0.5l-0.2-0.4l-0.2-0.4l-0.2-0.5l-0.3-0.4l-0.3-0.4l-0.3-0.4l-0.3-0.4l-0.3-0.4l-0.3-0.3l-0.3-0.3l-0.4-0.3l-0.4-0.3
	l-0.4-0.3l-0.4-0.3l-0.5-0.3l-0.4-0.3l-0.5-0.2l-0.4-0.2l-0.5-0.2l-0.4-0.2l-0.5-0.2l-0.5-0.1l-0.5-0.1l-0.5,0L139.5,257.5z
	 M30.9,385.6l-0.5,0l-0.5-0.1l-0.5-0.1l-0.5-0.1l-0.5-0.2l-0.5-0.2l-0.5-0.2l-0.5-0.2l-0.4-0.3l-0.4-0.2l-0.4-0.3l-0.4-0.3l-0.4-0.3
	l-0.4-0.3l-0.3-0.4l-0.4-0.3l-0.3-0.4l-0.3-0.4l-0.3-0.4l-0.3-0.4l-0.2-0.4l-0.3-0.4l-0.2-0.4l-0.2-0.5l-0.1-0.5l-0.2-0.5l-0.1-0.5
	l-0.1-0.5l-0.1-0.5l0-0.5v-0.5V267.9v-0.5l0-0.5l0.1-0.5l0.1-0.5l0.1-0.5l0.2-0.5l0.2-0.5l0.2-0.5l0.2-0.4l0.2-0.4l0.3-0.4l0.2-0.4
	l0.3-0.4l0.3-0.4l0.3-0.4l0.3-0.3l0.3-0.3l0.4-0.3l0.4-0.3l0.4-0.3l0.4-0.3l0.4-0.3l0.4-0.3l0.5-0.2l0.4-0.2l0.5-0.2l0.4-0.1
	l0.5-0.2l0.5-0.1l0.5-0.1l0.5,0l0.5,0h108.3l0.5,0l0.5,0l0.5,0.1l0.5,0.1l0.5,0.2l0.5,0.1l0.5,0.2l0.4,0.2l0.4,0.2l0.4,0.3l0.5,0.3
	l0.4,0.3l0.4,0.3l0.4,0.3l0.4,0.3l0.3,0.3l0.3,0.3l0.3,0.4l0.3,0.4l0.3,0.4l0.3,0.4l0.3,0.4l0.2,0.4l0.2,0.4l0.2,0.5l0.1,0.5
	l0.2,0.5l0.1,0.5l0.1,0.5l0.1,0.5l0,0.5v0.5v107.3v0.5l-0.1,0.5l0,0.5l-0.1,0.5l-0.1,0.5l-0.2,0.5l-0.1,0.5l-0.2,0.5l-0.2,0.4
	l-0.2,0.4l-0.2,0.5l-0.3,0.4l-0.3,0.4l-0.3,0.4l-0.3,0.4l-0.4,0.3l-0.3,0.4l-0.4,0.3l-0.4,0.3l-0.4,0.3l-0.4,0.3l-0.4,0.2l-0.5,0.3
	l-0.4,0.2l-0.5,0.2l-0.5,0.2l-0.5,0.2l-0.5,0.1l-0.5,0.1l-0.5,0.1l-0.5,0H139H31.4H30.9z"/>
<path class="st1" d="M139,263.1H31.4l-0.5,0l-0.5,0.1l-0.4,0.1l-0.4,0.2l-0.4,0.2l-0.4,0.3l-0.3,0.3l-0.3,0.3l-0.3,0.3l-0.3,0.4
	l-0.2,0.4l-0.2,0.4l-0.2,0.4l-0.1,0.4l-0.1,0.5l0,0.5v107.3l0,0.5l0.1,0.4l0.1,0.4l0.2,0.5l0.2,0.4l0.2,0.4l0.3,0.3l0.3,0.3l0.3,0.3
	l0.3,0.3l0.4,0.2l0.4,0.2l0.4,0.2l0.4,0.1l0.5,0.1l0.5,0H139l0.5,0l0.4-0.1l0.5-0.1l0.4-0.2l0.4-0.2l0.4-0.2l0.3-0.3l0.3-0.3
	l0.3-0.3l0.3-0.3l0.2-0.4l0.2-0.4l0.2-0.5l0.1-0.4l0.1-0.4l0-0.5V267.9l0-0.5l-0.1-0.5l-0.1-0.4l-0.2-0.4l-0.2-0.4l-0.2-0.4
	l-0.3-0.4l-0.3-0.3l-0.3-0.3l-0.3-0.3l-0.4-0.3l-0.4-0.2l-0.4-0.2l-0.5-0.1l-0.4-0.1L139,263.1z M31.4,379.9l-0.5,0l-0.4-0.1
	l-0.4-0.1l-0.4-0.2l-0.4-0.2l-0.4-0.2l-0.3-0.3l-0.3-0.3l-0.3-0.3l-0.3-0.3l-0.2-0.4l-0.2-0.4l-0.1-0.4l-0.1-0.4l-0.1-0.4l0-0.5
	V267.9l0-0.5l0.1-0.5l0.1-0.4l0.2-0.4l0.2-0.4l0.2-0.4l0.3-0.4l0.3-0.3l0.3-0.3l0.3-0.3l0.4-0.3l0.4-0.2l0.4-0.1l0.4-0.1l0.4-0.1
	l0.5,0H139l0.5,0l0.4,0.1l0.4,0.1l0.4,0.1l0.4,0.2l0.4,0.3l0.3,0.3l0.3,0.3l0.3,0.3l0.3,0.4l0.2,0.4l0.2,0.4l0.2,0.4l0.1,0.4
	l0.1,0.5l0,0.5v107.3l0,0.5l-0.1,0.4l-0.1,0.4l-0.2,0.4l-0.2,0.4l-0.2,0.4l-0.3,0.3l-0.3,0.3l-0.3,0.3l-0.3,0.3l-0.4,0.2l-0.4,0.2
	l-0.4,0.2l-0.4,0.1l-0.4,0.1l-0.5,0H31.4z"/>
<path class="st0" d="M139,263.1H31.4l-0.5,0l-0.5,0.1l-0.4,0.1l-0.5,0.2l-0.4,0.2l-0.4,0.3l-0.3,0.3l-0.3,0.3l-0.3,0.3l-0.3,0.4
	l-0.2,0.4L27,266l-0.2,0.4l-0.1,0.5l-0.1,0.5l0,0.5v107.3l0,0.5l0.1,0.5l0.1,0.4L27,377l0.2,0.4l0.2,0.4l0.3,0.3l0.3,0.3l0.3,0.3
	l0.3,0.3l0.4,0.2l0.4,0.2l0.5,0.2l0.4,0.1l0.5,0.1l0.5,0H139l0.5,0l0.4-0.1l0.5-0.1l0.5-0.2l0.4-0.2l0.4-0.2l0.3-0.3l0.3-0.3
	l0.3-0.3l0.3-0.3l0.2-0.4l0.2-0.4l0.2-0.5l0.1-0.4l0.1-0.5l0-0.5h0h0V267.9l0-0.5l-0.1-0.5l-0.1-0.5l-0.2-0.4l-0.2-0.4l-0.2-0.4
	l-0.3-0.4l-0.3-0.3l-0.3-0.3l-0.3-0.3l-0.4-0.3l-0.4-0.2l-0.5-0.2l-0.5-0.1l-0.4-0.1L139,263.1z M31.4,379.9l-0.5,0l-0.5-0.1
	l-0.4-0.1l-0.4-0.2l-0.4-0.2l-0.4-0.2l-0.3-0.3l-0.3-0.3l-0.3-0.3l-0.3-0.3l-0.2-0.4l-0.2-0.4l-0.2-0.5l-0.1-0.4l-0.1-0.4l0-0.5
	V267.9l0-0.5l0.1-0.5l0.1-0.4l0.2-0.4l0.2-0.4l0.2-0.4l0.3-0.4l0.3-0.3l0.3-0.3l0.3-0.3l0.4-0.3l0.4-0.2l0.4-0.2l0.4-0.1l0.5-0.1
	l0.5,0H139l0.5,0l0.4,0.1l0.5,0.1l0.4,0.2l0.4,0.2l0.4,0.3l0.3,0.3l0.3,0.3l0.3,0.3l0.3,0.4l0.2,0.4l0.2,0.4l0.2,0.4l0.1,0.4
	l0.1,0.5l0,0.5v107.3l0,0.5l-0.1,0.4l-0.1,0.4l-0.2,0.5l-0.2,0.4l-0.2,0.4l-0.3,0.3l-0.3,0.3l-0.3,0.3l-0.3,0.3l-0.4,0.2l-0.4,0.2
	l-0.4,0.2l-0.5,0.1l-0.4,0.1l-0.5,0H31.4z"/>
<polygon class="st0" points="81.4,314.8 79.5,314.8 70.5,314.8 70.5,299.1 78.4,299.1 80.7,299.1 82.7,299.1 84.6,299.2 86.1,299.2 
	87.5,299.2 88.6,299.3 89.5,299.3 90.1,299.3 91,299.5 91.7,299.6 92.5,299.9 93.1,300.2 93.7,300.5 94.3,300.8 94.8,301.3 
	95.3,301.7 95.7,302.3 96,302.8 96.4,303.4 96.6,304 96.8,304.7 96.9,305.4 97,306.1 97,306.9 97,307.7 96.9,308.4 96.7,309.1 
	96.5,309.8 96.2,310.5 95.9,311.1 95.5,311.7 95,312.2 94.5,312.7 93.9,313.1 93.3,313.4 92.6,313.8 91.9,314 91.1,314.3 
	90.3,314.5 89.4,314.6 88.9,314.6 88.1,314.7 87.1,314.7 86,314.8 84.6,314.8 83.1,314.8 "/>
<path class="st1" d="M82.7,299.1h-2.1h-2.3h-7.9v15.7h9h1.9h1.7l1.5,0l1.4,0l1.1,0l1,0l0.8,0l0.6,0v0v0l0.9-0.2l0.8-0.2l0.8-0.2
	l0.7-0.3l0.7-0.3l0.6-0.4l0.6-0.4l0.5-0.5l0.5-0.5l0.4-0.6l0.3-0.6l0.3-0.7l0.2-0.7l0.2-0.7l0.1-0.8l0-0.8l0-0.8l-0.1-0.7l-0.2-0.7
	l-0.2-0.6l-0.2-0.6l-0.3-0.6l-0.4-0.5l-0.4-0.5l-0.4-0.5l-0.5-0.4l-0.6-0.4l-0.6-0.3l-0.7-0.3l-0.8-0.2l-0.8-0.2l-0.9-0.2l-0.6,0
	l-0.9,0l-1.1,0l-1.4,0l-1.6,0L82.7,299.1z M70.5,314.8v-15.7h7.9h2.3h2.1l1.8,0l1.6,0l1.4,0l1.1,0l0.9,0l0.6,0l0.9,0.2l0.8,0.1
	l0.7,0.2l0.7,0.3l0.6,0.3l0.6,0.4l0.5,0.4l0.4,0.5l0.4,0.5l0.4,0.5l0.3,0.6l0.2,0.6l0.2,0.6l0.2,0.7l0.1,0.7l0,0.8l0,0.8l-0.1,0.8
	l-0.1,0.7l-0.2,0.7l-0.3,0.7l-0.3,0.6l-0.4,0.6l-0.5,0.5l-0.5,0.5l-0.6,0.4l-0.6,0.4l-0.7,0.3l-0.7,0.3l-0.8,0.2l-0.8,0.2l-0.9,0.2
	l-0.6,0l-0.8,0l-1,0l-1.1,0l-1.4,0l-1.5,0h-1.7h-1.9H70.5z"/>
<path class="st0" d="M82.7,299.1h-2.1h-2.3h-7.9v15.7h9h1.9h1.7l1.5,0l1.4,0l1.1,0l1,0l0.8,0l0.6,0l0.9-0.2l0.8-0.2l0.8-0.2l0.7-0.3
	l0.7-0.3l0.6-0.4l0.6-0.4l0.5-0.5l0.5-0.5l0.4-0.6l0.3-0.6l0.3-0.7l0.2-0.7l0.1-0.7l0.1-0.8l0-0.8l0-0.8l-0.1-0.7l-0.2-0.7l-0.2-0.6
	l-0.2-0.6l-0.3-0.6l-0.4-0.5l-0.4-0.5l-0.5-0.4l-0.5-0.4l-0.6-0.4l-0.6-0.3l-0.7-0.3l-0.8-0.2l-0.8-0.2l-0.9-0.1l-0.6,0l-0.9,0
	l-1.1,0l-1.4,0l-1.6,0L82.7,299.1z M70.5,314.8v-15.7h7.9h2.3h2.1l1.8,0l1.6,0l1.4,0l1.1,0l0.9,0l0.6,0l0.9,0.2l0.7,0.2l0.8,0.2
	l0.7,0.3l0.6,0.3l0.6,0.4l0.5,0.4l0.4,0.4l0.4,0.5l0.4,0.5l0.3,0.6l0.2,0.6l0.2,0.6l0.2,0.7l0.1,0.7l0,0.8l0,0.8l-0.1,0.8l-0.1,0.7
	l-0.2,0.7l-0.3,0.7l-0.3,0.6l-0.4,0.6l-0.5,0.5l-0.5,0.5l-0.6,0.4l-0.6,0.4l-0.7,0.3l-0.7,0.3l-0.8,0.2l-0.8,0.2l-0.9,0.2l-0.6,0
	l-0.8,0l-1,0l-1.1,0l-1.4,0l-1.5,0h-1.7h-1.9H70.5z"/>
<polygon class="st0" points="85,344.3 83.2,344.3 70.5,344.3 70.5,326.1 81.6,326.1 83.8,326.1 85.9,326.2 87.7,326.3 89.3,326.4 
	90.7,326.5 91.9,326.7 92.5,326.8 92.9,326.9 93.4,327 93.8,327.1 94.4,327.4 95.1,327.7 95.7,328 96.2,328.4 96.7,328.8 
	97.2,329.2 97.7,329.7 98,330.2 98.4,330.8 98.7,331.3 98.9,331.9 99.2,332.6 99.3,333.2 99.4,333.9 99.5,334.6 99.5,335.4 
	99.5,336.3 99.4,337.1 99.3,337.9 99.1,338.6 98.8,339.3 98.5,340 98.3,340.3 98,340.6 97.9,340.9 97.6,341.2 97.1,341.6 
	96.6,342.1 96,342.5 95.4,342.9 94.7,343.2 94.1,343.5 93.3,343.7 92.6,343.9 92,344 91.3,344 90.4,344.1 89.3,344.2 88,344.2 
	86.6,344.3 "/>
<polygon class="st1" points="83.8,326.1 81.6,326.1 70.5,326.1 70.5,344.3 83.2,344.3 85,344.3 86.6,344.3 88,344.2 89.3,344.2 
	90.3,344.1 91.3,344.1 92,344 92.6,343.9 93.4,343.7 94.1,343.5 94.7,343.2 95.4,342.9 96,342.6 96.6,342.1 97.1,341.7 97.6,341.2 
	97.9,340.9 98.1,340.6 98.3,340.3 98.5,340 98.8,339.3 99.1,338.6 99.3,337.9 99.4,337.1 99.5,336.3 99.6,335.4 99.5,334.6 
	99.4,333.9 99.3,333.2 99.2,332.5 99,331.9 98.7,331.3 98.4,330.8 98.1,330.2 97.7,329.7 97.2,329.2 96.7,328.8 96.3,328.3 
	95.7,328 95.1,327.6 94.4,327.3 93.8,327.1 93.8,327.1 94.4,327.4 95.1,327.7 95.7,328 96.2,328.4 96.7,328.8 97.2,329.2 
	97.7,329.7 98,330.2 98.4,330.8 98.7,331.3 98.9,331.9 99.2,332.5 99.3,333.2 99.4,333.9 99.5,334.6 99.5,335.4 99.5,336.3 
	99.4,337.1 99.3,337.9 99,338.6 98.8,339.3 98.4,340 98.3,340.3 98,340.6 97.8,340.9 97.6,341.2 97.1,341.6 96.6,342.1 96,342.5 
	95.4,342.9 94.7,343.2 94.1,343.5 93.4,343.7 92.6,343.8 92,344 91.3,344 90.3,344.1 89.3,344.2 88,344.2 86.6,344.3 85,344.3 
	83.2,344.3 70.5,344.3 70.5,326.1 81.6,326.1 83.8,326.1 85.8,326.2 87.7,326.3 89.3,326.3 90.7,326.5 91.9,326.7 92.4,326.8 
	92.9,326.9 93.4,327 93.8,327.1 93.8,327.1 93.4,327 92.9,326.9 92.5,326.7 91.9,326.7 90.7,326.5 89.3,326.3 87.7,326.3 
	85.8,326.2 "/>
<path class="st0" d="M83.8,326.1h-2.2H70.5v18.1h12.7H85h1.6l1.4,0l1.3,0l1.1-0.1l0.9-0.1L92,344l0.6-0.1l0.8-0.1l0.7-0.2l0.7-0.3
	l0.6-0.3l0.6-0.4l0.6-0.4l0.5-0.5l0.5-0.5l0.3-0.3l0.2-0.3l0.2-0.3l0.2-0.3l0.3-0.6l0.3-0.7l0.2-0.8l0.1-0.8l0.1-0.8l0-0.9l0-0.7
	l-0.1-0.7l-0.1-0.7l-0.2-0.7l-0.2-0.6l-0.3-0.6l-0.3-0.6l-0.3-0.6l-0.4-0.5l-0.4-0.5l-0.5-0.4l-0.5-0.4l-0.6-0.4l-0.6-0.3l-0.6-0.3
	l-0.7-0.3l-0.4-0.1l-0.4-0.1l-0.5-0.1l-0.5-0.1l-1.2-0.2l-1.4-0.1l-1.6-0.1l-1.8-0.1L83.8,326.1z M70.5,344.2v-18.1h11.1h2.2
	l2.1,0.1l1.8,0.1l1.6,0.1l1.4,0.2l1.2,0.2l0.5,0.1l0.5,0.1l0.4,0.1l0.4,0.1l0.7,0.3l0.6,0.3l0.6,0.3l0.6,0.4l0.5,0.4l0.5,0.4
	l0.4,0.5l0.4,0.5l0.3,0.6l0.3,0.6l0.3,0.6l0.2,0.6l0.2,0.7l0.1,0.7l0.1,0.7l0,0.7l0,0.9l-0.1,0.8l-0.1,0.8l-0.2,0.7l-0.3,0.7
	l-0.3,0.6l-0.2,0.3l-0.2,0.3l-0.2,0.3l-0.3,0.3l-0.5,0.5l-0.5,0.5l-0.6,0.4l-0.6,0.4l-0.6,0.3l-0.7,0.3l-0.7,0.2l-0.8,0.2l-0.6,0.1
	l-0.7,0.1l-0.9,0.1l-1.1,0.1l-1.3,0l-1.4,0H85h-1.8H70.5z"/>
<path class="st0" d="M38.8,373l-0.5,0l-0.5-0.1l-0.4-0.1l-0.4-0.1l-0.4-0.2l-0.4-0.2l-0.4-0.3l-0.3-0.3l-0.3-0.3l-0.3-0.3l-0.3-0.4
	l-0.2-0.4l-0.1-0.4l-0.2-0.4l0-0.5l0-0.5v-92.6l0-0.5l0-0.5l0.2-0.4l0.1-0.4l0.2-0.4l0.3-0.4l0.3-0.4l0.3-0.3l0.3-0.3l0.4-0.3
	l0.4-0.2l0.4-0.2l0.4-0.2l0.4-0.1l0.5-0.1l0.5,0h92.8l0.5,0l0.4,0.1l0.4,0.1l0.5,0.2l0.4,0.2l0.4,0.2l0.4,0.3l0.3,0.3l0.3,0.3
	l0.3,0.4l0.3,0.4l0.2,0.4l0.2,0.4l0.1,0.4l0.1,0.5l0,0.5v92.6l0,0.5l-0.1,0.5l-0.1,0.4l-0.2,0.4l-0.2,0.4l-0.3,0.4l-0.3,0.3
	l-0.3,0.3l-0.3,0.3l-0.4,0.3l-0.4,0.2l-0.4,0.2l-0.5,0.1l-0.4,0.1l-0.4,0.1l-0.5,0H38.8z M56.7,355.7h23.2l3.1,0l2.8,0l2.5,0l2.2,0
	l1.9-0.1l1.6-0.1l1.3-0.1l1-0.1l1.4-0.2l1.3-0.3l0.6-0.1l0.6-0.2l0.6-0.2l0.6-0.2l0.6-0.2l0.6-0.2l0.5-0.3l0.5-0.3l0.5-0.3l0.5-0.3
	l0.5-0.3l0.5-0.3l0.9-0.7l0.9-0.8l0.8-0.8l0.8-0.9l0.7-0.9l0.7-1l0.6-1l0.6-1l0.5-1.1l0.4-1.1l0.4-1.1l0.3-1.1l0.2-1.1l0.2-1.2
	l0.1-1.1l0-1.2l0-0.7l0-0.7l-0.1-0.7l-0.1-0.7l-0.1-0.7l-0.2-0.7l-0.2-0.7l-0.2-0.6l-0.2-0.6l-0.2-0.6l-0.3-0.6l-0.3-0.6l-0.3-0.6
	l-0.4-0.6l-0.4-0.6l-0.4-0.6l-0.4-0.5l-0.4-0.5l-0.5-0.5l-0.5-0.5l-0.5-0.4l-0.5-0.4l-0.6-0.4l-0.6-0.4l-0.6-0.4l-0.6-0.4l-0.6-0.3
	l-0.7-0.3l-0.7-0.3l-0.7-0.3l-0.8-0.3l-0.8-0.2l0.6-0.3l0.5-0.3l0.5-0.3l0.5-0.3l0.5-0.3l0.5-0.3l0.4-0.3l0.4-0.4l0.4-0.4l0.4-0.4
	l0.4-0.4l0.4-0.4l0.4-0.5l0.4-0.4l0.3-0.5l0.3-0.5l0.3-0.5l0.3-0.5l0.3-0.5l0.3-0.5l0.2-0.5l0.2-0.5l0.2-0.5l0.2-0.6l0.2-0.6
	l0.1-0.5l0.1-0.6l0.1-0.6l0.1-0.6l0-0.6l0-0.6v-0.6v-1.1l-0.1-1l-0.2-1l-0.3-1l-0.3-1l-0.4-1l-0.4-0.9l-0.5-0.9l-0.6-0.9l-0.6-0.8
	l-0.6-0.8l-0.6-0.7l-0.7-0.7l-0.7-0.6l-0.8-0.6l-0.8-0.6l-0.8-0.5l-0.8-0.4l-0.8-0.4l-0.9-0.4l-0.9-0.3l-0.9-0.3l-1-0.2l-1-0.2
	l-1-0.1l-1.2-0.2l-1.3-0.1L91,288l-1.6-0.1l-1.7-0.1l-1.8,0h-1.9H56.7V355.7z"/>
<path class="st1" d="M131.6,270.8L131.6,270.8L131.6,270.8H38.8l-0.5,0l-0.4,0.1l-0.4,0.1l-0.5,0.2l-0.4,0.2l-0.4,0.2l-0.4,0.3
	l-0.3,0.3l-0.3,0.3l-0.3,0.4l-0.3,0.4l-0.2,0.4l-0.2,0.4l-0.2,0.5l0,0.5l0,0.5v92.6l0,0.5l0,0.5l0.2,0.4l0.2,0.5l0.2,0.4l0.3,0.4
	l0.3,0.3l0.3,0.3l0.3,0.3l0.4,0.3l0.4,0.2l0.4,0.2l0.5,0.2l0.4,0.1l0.4,0.1l0.5,0h92.8l0.5,0l0.4-0.1l0.5-0.1l0.4-0.2l0.4-0.2
	l0.4-0.2l0.4-0.3l0.3-0.3l0.3-0.3l0.3-0.3l0.3-0.4l0.2-0.4l0.2-0.5l0.1-0.4l0.1-0.5l0-0.5v-92.6l0-0.5l-0.1-0.5l-0.1-0.4l-0.2-0.5
	l-0.2-0.4l-0.3-0.4l-0.3-0.4l-0.3-0.3l-0.3-0.3l-0.4-0.3l-0.4-0.2l-0.4-0.2l-0.5-0.2l-0.5-0.1l-0.4-0.1L131.6,270.8z M38.8,373
	l-0.5,0l-0.5-0.1l-0.4-0.1l-0.4-0.1l-0.4-0.2l-0.4-0.2l-0.4-0.3l-0.3-0.3l-0.3-0.3l-0.3-0.3l-0.3-0.4l-0.2-0.4l-0.2-0.4l-0.2-0.4
	l0-0.5l0-0.5v-92.6l0-0.5l0-0.5l0.2-0.4l0.2-0.4l0.2-0.4l0.3-0.4l0.3-0.4l0.3-0.3l0.3-0.3l0.4-0.3l0.4-0.2l0.4-0.2l0.4-0.1l0.4-0.1
	l0.5-0.1l0.5,0h92.8l0.5,0l0.4,0.1l0.4,0.1l0.5,0.1l0.4,0.2l0.4,0.2l0.4,0.3l0.3,0.3l0.3,0.3l0.3,0.4l0.3,0.4l0.2,0.4l0.2,0.4
	l0.1,0.4l0.1,0.5l0,0.5v92.6l0,0.5l-0.1,0.5l-0.1,0.4l-0.2,0.4l-0.2,0.4l-0.3,0.4l-0.3,0.3l-0.3,0.3l-0.3,0.3l-0.4,0.3l-0.4,0.2
	l-0.4,0.2l-0.5,0.1l-0.4,0.1l-0.4,0.1l-0.5,0H38.8z M85.9,287.8h-1.9H56.7v67.9h23.2l3.1,0l2.8,0l2.5,0l2.2,0l1.9-0.1l1.6-0.1
	l1.3-0.1l1-0.1l1.4-0.2l1.3-0.3l0.6-0.1l0.6-0.2l0.6-0.2l0.6-0.2l0.6-0.2l0.6-0.2l0.5-0.3l0.5-0.3l0.5-0.3l0.5-0.3l0.5-0.3l0.5-0.3
	l0.9-0.7l0.9-0.8l0.8-0.8l0.8-0.9l0.7-0.9l0.7-1l0.6-1l0.6-1l0.5-1.1l0.4-1.1l0.4-1.1l0.3-1.1l0.2-1.1l0.2-1.2l0.1-1.1l0-1.2l0-0.7
	l0-0.7l-0.1-0.7l-0.1-0.7l-0.1-0.7l-0.2-0.7l-0.2-0.7l-0.2-0.6l-0.2-0.6l-0.2-0.6l-0.3-0.6l-0.3-0.6l-0.3-0.6l-0.4-0.6l-0.4-0.6
	l-0.4-0.6l-0.4-0.5l-0.4-0.5l-0.5-0.5l-0.5-0.5l-0.5-0.4l-0.5-0.4l-0.6-0.4l-0.6-0.4l-0.6-0.4l-0.6-0.4l-0.6-0.3l-0.7-0.3l-0.7-0.3
	l-0.7-0.3l-0.7-0.3l-0.8-0.2l0.6-0.3l0.5-0.3l0.5-0.3l0.5-0.3l0.5-0.3l0.5-0.3l0.4-0.3l0.5-0.4l0.4-0.4l0.4-0.4l0.4-0.4l0.4-0.4
	l0.4-0.5l0.4-0.4l0.3-0.5l0.3-0.5l0.3-0.5l0.3-0.5l0.3-0.5l0.3-0.5l0.2-0.5l0.2-0.5l0.2-0.5l0.2-0.6l0.2-0.6l0.2-0.5l0.1-0.6
	l0.1-0.6l0.1-0.6l0-0.6l0-0.6v-0.6v-1.1l-0.1-1l-0.2-1.1l-0.3-1l-0.3-1l-0.4-1l-0.4-0.9l-0.5-0.9l-0.6-0.9l-0.6-0.8l-0.6-0.8
	l-0.6-0.7l-0.7-0.7l-0.7-0.6l-0.8-0.6l-0.8-0.6l-0.8-0.5l-0.8-0.4l-0.8-0.4l-0.9-0.4l-0.9-0.3l-0.9-0.3l-1-0.2l-1-0.2l-1-0.1
	l-1.2-0.2l-1.3-0.1L91,288l-1.6-0.1l-1.7-0.1L85.9,287.8z M56.7,355.7v-67.8h27.2h1.9l1.8,0l1.7,0.1L91,288l1.4,0.1l1.3,0.1l1.2,0.1
	l1,0.2l1,0.2l1,0.2l0.9,0.3l0.9,0.3l0.9,0.4l0.8,0.4l0.8,0.5l0.8,0.5l0.8,0.6l0.8,0.6l0.7,0.6l0.7,0.7l0.6,0.7l0.6,0.8l0.6,0.8
	l0.6,0.9l0.5,0.9l0.4,0.9l0.4,1l0.3,1l0.3,1l0.2,1l0.1,1v1.1v0.6l0,0.6l0,0.6l-0.1,0.6l-0.1,0.6l-0.1,0.6l-0.2,0.5l-0.2,0.6
	l-0.2,0.6l-0.2,0.5l-0.2,0.5l-0.2,0.5l-0.3,0.5l-0.3,0.5l-0.3,0.5l-0.3,0.5l-0.3,0.5l-0.3,0.5l-0.4,0.4l-0.4,0.4l-0.4,0.4l-0.4,0.4
	l-0.4,0.4l-0.4,0.4l-0.4,0.4l-0.4,0.3l-0.5,0.3l-0.5,0.3l-0.5,0.3l-0.5,0.3l-0.5,0.3l-0.6,0.3l0,0l0.8,0.2l0.8,0.3l0.7,0.3l0.7,0.3
	l0.7,0.3l0.6,0.3l0.6,0.4l0.6,0.4l0.6,0.4l0.6,0.4l0.5,0.4l0.5,0.4l0.5,0.5l0.5,0.5l0.5,0.5l0.4,0.5l0.4,0.6l0.4,0.6l0.4,0.6
	l0.3,0.6l0.3,0.6l0.3,0.6l0.2,0.6l0.2,0.6l0.2,0.6l0.1,0.7l0.2,0.7l0.1,0.7l0.1,0.7l0.1,0.7l0,0.7l0,0.7l0,1.2l-0.1,1.1l-0.2,1.2
	l-0.2,1.1l-0.3,1.1l-0.4,1.1l-0.4,1.1l-0.5,1.1l-0.6,1l-0.6,1l-0.7,1L109,349l-0.7,0.9l-0.8,0.8l-0.9,0.7l-0.9,0.7l-0.5,0.3
	l-0.5,0.3l-0.5,0.3l-0.5,0.3l-0.5,0.3l-0.5,0.3l-0.6,0.2l-0.6,0.2l-0.6,0.2l-0.6,0.2l-0.6,0.2l-0.6,0.1l-1.3,0.3l-1.4,0.2l-1,0.1
	l-1.3,0.1l-1.6,0.1l-1.9,0.1l-2.2,0l-2.5,0l-2.8,0l-3.1,0H56.7z"/>
<path class="st0" d="M131.6,270.8H38.8l-0.5,0l-0.5,0.1l-0.4,0.1l-0.4,0.2l-0.4,0.2l-0.4,0.2l-0.4,0.3l-0.3,0.3l-0.3,0.3l-0.3,0.4
	l-0.3,0.4l-0.2,0.4l-0.1,0.4l-0.2,0.4l0,0.5l0,0.5v92.6l0,0.5l0,0.5l0.2,0.4l0.1,0.4l0.2,0.4l0.3,0.4l0.3,0.3l0.3,0.3l0.3,0.3
	l0.4,0.3l0.4,0.2l0.4,0.2l0.4,0.1l0.4,0.1l0.5,0.1l0.5,0h92.8l0.5,0l0.4-0.1l0.4-0.1l0.5-0.1l0.4-0.2l0.4-0.2l0.4-0.3l0.3-0.3
	l0.3-0.3l0.3-0.3l0.3-0.4l0.2-0.4l0.2-0.4l0.1-0.4l0.1-0.5l0-0.5v-92.6l0-0.5l-0.1-0.5l-0.1-0.4l-0.2-0.4l-0.2-0.4l-0.3-0.4
	l-0.3-0.4l-0.3-0.3l-0.3-0.3l-0.4-0.3l-0.4-0.2l-0.4-0.2l-0.5-0.2l-0.4-0.1l-0.4-0.1L131.6,270.8z M38.8,373l-0.5,0l-0.4-0.1
	l-0.5-0.1l-0.4-0.2l-0.4-0.2l-0.4-0.2l-0.4-0.3l-0.3-0.3l-0.3-0.3l-0.3-0.3l-0.3-0.4l-0.2-0.4l-0.2-0.4l-0.1-0.4l0-0.5l0-0.5v-92.6
	l0-0.5l0-0.5l0.1-0.4l0.2-0.4l0.2-0.4l0.3-0.4l0.3-0.4l0.3-0.3l0.3-0.3l0.4-0.3l0.4-0.2l0.4-0.2l0.5-0.1l0.4-0.1l0.4-0.1l0.5,0h92.8
	l0.5,0l0.4,0.1l0.4,0.1l0.4,0.1l0.4,0.2l0.4,0.2l0.4,0.3l0.3,0.3l0.3,0.3l0.3,0.4l0.3,0.4l0.2,0.4l0.2,0.4l0.1,0.4l0.1,0.5l0,0.5
	v92.6l0,0.5l-0.1,0.5l-0.1,0.4l-0.2,0.5l-0.2,0.4l-0.3,0.4l-0.3,0.3l-0.3,0.3l-0.3,0.3l-0.4,0.3l-0.4,0.2l-0.4,0.2l-0.4,0.2
	l-0.4,0.1l-0.4,0.1l-0.5,0H38.8z M85.9,287.8h-1.9H56.7v67.9h23.2l3.1,0l2.8,0l2.5,0l2.2,0l1.9-0.1l1.6-0.1l1.3-0.1l1-0.1l1.4-0.2
	l1.3-0.3l0.6-0.1l0.6-0.2l0.6-0.2l0.6-0.2l0.6-0.2l0.6-0.2l0.5-0.3l0.5-0.3l0.5-0.3l0.5-0.3l0.5-0.3l0.5-0.3l0.9-0.7l0.9-0.8
	l0.8-0.8l0.8-0.9l0.7-0.9l0.7-1l0.6-1l0.6-1l0,0l0,0l0.5-1.1l0.4-1.1l0.4-1.1l0.3-1.1l0.2-1.1l0.2-1.2l0.1-1.1l0-1.2l0-0.7l0-0.7
	l-0.1-0.7l-0.1-0.7l-0.1-0.7l-0.2-0.7l-0.2-0.7l-0.2-0.6l-0.2-0.6l-0.2-0.6l-0.3-0.6l-0.3-0.6l-0.3-0.6l-0.4-0.6l-0.4-0.6l-0.4-0.6
	l-0.4-0.5l-0.5-0.5l-0.5-0.5l-0.5-0.5l-0.5-0.5l-0.5-0.4l-0.6-0.4l-0.6-0.4l-0.6-0.4l-0.6-0.4l-0.6-0.3l-0.7-0.3l-0.7-0.3l-0.7-0.3
	l-0.8-0.3l-0.7-0.2l0.5-0.2l0.5-0.3l0.5-0.3l0.5-0.3l0.5-0.3l0.5-0.3l0.4-0.3l0.5-0.4l0.4-0.4l0.4-0.4l0.4-0.4l0.4-0.4l0.4-0.4
	l0.4-0.5l0.3-0.5l0.3-0.5l0.3-0.5l0.3-0.5l0.3-0.5l0.3-0.5l0.2-0.5l0.2-0.5l0.2-0.5l0.2-0.6l0.2-0.6l0.1-0.5l0.1-0.6l0.1-0.6
	l0.1-0.6l0-0.6l0-0.6v-0.6v-1.1l-0.1-1.1l-0.2-1l-0.3-1l-0.3-1l-0.4-1l-0.4-0.9l-0.5-0.9l-0.6-0.9l-0.6-0.8l-0.6-0.8l-0.6-0.7
	l-0.7-0.7l-0.7-0.6l-0.8-0.6l-0.8-0.6l-0.8-0.5l-0.8-0.4l-0.8-0.4l-0.9-0.4l-0.9-0.3l-0.9-0.3l-1-0.2l-1-0.2l-1.1-0.2l-1.2-0.2
	l-1.3-0.1L91,288l-1.6-0.1l-1.7-0.1L85.9,287.8z M56.7,355.7v-67.9h27.2h1.9l1.8,0l1.7,0.1L91,288l1.4,0.1l1.3,0.1l1.2,0.2l1,0.1
	l1,0.2l1,0.2l0.9,0.3l0.9,0.3l0.9,0.4l0.8,0.4l0.8,0.4l0.8,0.5l0.8,0.6l0.8,0.6l0.7,0.6l0.7,0.7l0.6,0.7l0.6,0.8l0.6,0.8l0.6,0.9
	l0.5,0.9l0.4,0.9l0.4,1l0.3,1l0.3,1l0.2,1l0.1,1v1.1v0.6l0,0.6l0,0.6l-0.1,0.6l-0.1,0.6l-0.1,0.6l-0.1,0.5l-0.2,0.6l-0.2,0.6
	l-0.2,0.5l-0.2,0.5l-0.2,0.5l-0.3,0.5l-0.3,0.5l-0.3,0.5l-0.3,0.5l-0.3,0.5l-0.3,0.5l-0.4,0.4l-0.4,0.5l-0.4,0.4l-0.4,0.4l-0.4,0.4
	l-0.4,0.4l-0.4,0.4l-0.4,0.3l-0.5,0.3l-0.5,0.3l-0.5,0.3l-0.5,0.3l-0.5,0.3l-0.6,0.3l0.8,0.2l0.8,0.3l0.7,0.3l0.7,0.3l0.7,0.3
	l0.6,0.3l0.6,0.4l0.6,0.4l0.6,0.4l0.6,0.4l0.5,0.4l0.5,0.4l0.5,0.5l0.5,0.5l0.4,0.5l0.4,0.5l0.4,0.6l0.4,0.6l0.4,0.6l0.3,0.6
	l0.3,0.6l0.3,0.6l0.2,0.6l0.2,0.6l0.2,0.6l0.2,0.7l0.2,0.7l0.1,0.7l0.1,0.7l0.1,0.7l0,0.7l0,0.7l0,1.2l-0.1,1.1l-0.2,1.2l-0.2,1.1
	l-0.3,1.1l-0.4,1.1l-0.4,1.1l-0.5,1.1l-0.6,1l-0.6,1l-0.7,1L109,349l-0.8,0.9l-0.8,0.8l-0.9,0.8l-0.9,0.7l-0.5,0.3l-0.5,0.3
	l-0.5,0.3l-0.5,0.3l-0.5,0.3l-0.5,0.3l-0.6,0.2l-0.6,0.2l-0.6,0.2l-0.6,0.2l-0.6,0.2l-0.6,0.1l-1.3,0.3l-1.4,0.2l-1,0.1l-1.3,0.1
	l-1.6,0.1l-1.9,0.1l-2.2,0l-2.5,0l-2.8,0l-3.1,0H56.7z"/>
</svg>
