<svg width="20" height="20" viewBox="0 0 20 20" fill="none" xmlns="http://www.w3.org/2000/svg">
<path d="M7.23625 8.125H5V15H7.23625V8.125Z" fill="#353A45"/>
<path d="M13.3275 8.20563C13.3038 8.19813 13.2812 8.19 13.2562 8.18312C13.2263 8.17625 13.1962 8.17063 13.1656 8.16563C13.0469 8.14188 12.9169 8.125 12.7644 8.125C11.4606 8.125 10.6337 9.07313 10.3612 9.43938V8.125H8.125V15H10.3612V11.25C10.3612 11.25 12.0513 8.89625 12.7644 10.625C12.7644 12.1681 12.7644 15 12.7644 15H15V10.3606C15 9.32187 14.2881 8.45625 13.3275 8.20563Z" fill="#353A45"/>
<path d="M6.09375 7.1875C6.69781 7.1875 7.1875 6.69781 7.1875 6.09375C7.1875 5.48969 6.69781 5 6.09375 5C5.48969 5 5 5.48969 5 6.09375C5 6.69781 5.48969 7.1875 6.09375 7.1875Z" fill="#353A45"/>
<circle cx="10" cy="10" r="9.75" stroke="#1F2430" stroke-width="0.5"/>
</svg>
