<svg width="21" height="20" viewBox="0 0 21 20" fill="none" xmlns="http://www.w3.org/2000/svg">
<g clip-path="url(#clip0)">
<path d="M9.2307 14.1024C8.79826 14.1024 8.35316 14.0674 7.9054 13.9972C7.11674 13.8734 6.31841 13.4609 6.0925 13.3374L5.5 13.0134L6.14148 12.8025C6.8427 12.5719 7.26926 12.4289 7.79729 12.2049C7.26857 11.9488 6.86108 11.4883 6.66493 10.8929L6.5157 10.4398L6.63808 10.4585C6.52203 10.3416 6.4304 10.2228 6.35938 10.1149C6.10677 9.7312 5.97302 9.26238 6.00148 8.86061L6.02956 8.46518L6.2663 8.55689C6.16643 8.36829 6.09425 8.16687 6.05183 7.95577C5.94846 7.44094 6.03497 6.89399 6.29552 6.4157L6.50174 6.03713L6.77754 6.3684C7.64981 7.41622 8.75462 8.03778 10.0659 8.21975C10.0123 7.85056 10.0525 7.49427 10.1853 7.1749C10.3399 6.80304 10.6151 6.48772 10.9807 6.26296C11.3867 6.0134 11.8791 5.89248 12.3671 5.92246C12.8849 5.95427 13.3551 6.14829 13.7285 6.48391C13.9108 6.43653 14.0452 6.38594 14.2267 6.31759C14.336 6.27646 14.4599 6.22977 14.6149 6.17637L15.1862 5.97953L14.8137 7.04352C14.8382 7.04146 14.8636 7.03971 14.89 7.03856L15.5001 7.01094L15.1395 7.50373C15.1188 7.53196 15.1136 7.53997 15.1062 7.55103C15.0772 7.59482 15.041 7.6493 14.5461 8.31015C14.4222 8.47564 14.3603 8.69117 14.3718 8.91715C14.4157 9.77591 14.3103 10.5529 14.0585 11.2264C13.8203 11.8636 13.4512 12.4103 12.9615 12.8514C12.3556 13.3971 11.583 13.7707 10.665 13.9617C10.2147 14.0554 9.73119 14.1024 9.2307 14.1024Z" fill="#353A45"/>
</g>
<circle cx="10.5" cy="10" r="9.75" stroke="#1F2430" stroke-width="0.5"/>
<defs>
<clipPath id="clip0">
<rect width="10" height="10" fill="white" transform="translate(5.5 5)"/>
</clipPath>
</defs>
</svg>
